<?xml version="1.0" standalone="no"?>
<!DOCTYPE svg PUBLIC "-//W3C//DTD SVG 1.1//EN" "http://www.w3.org/Graphics/SVG/1.1/DTD/svg11.dtd" >
<svg xmlns="http://www.w3.org/2000/svg">
<metadata></metadata>
<defs>
<font id="quiroga_serif_probold_italic" horiz-adv-x="1214" >
<font-face units-per-em="2048" ascent="1536" descent="-512" />
<missing-glyph horiz-adv-x="573" />
<glyph unicode="&#x30;&#x2f;&#x30;" horiz-adv-x="1445" d="M164 20l1102 1287h178l-1106 -1287h-174zM246 1008q23 132 106.5 219.5t214.5 87.5q132 0 185 -87.5t30 -219.5q-25 -135 -107.5 -220.5t-215.5 -85.5q-89 0 -143 42t-70 109.5t0 154.5zM432 1008q-15 -72 -2.5 -124.5t53.5 -52.5q42 0 70 49t43 128q7 49 7 88.5 t-15 64.5t-43 25q-42 0 -71 -50t-42 -128zM803 295q23 132 106.5 219.5t214.5 87.5q132 0 185 -87.5t30 -219.5q-25 -135 -107.5 -220t-215.5 -85q-89 0 -143 42t-70 109t0 154zM989 295q-15 -72 -2.5 -124t53.5 -52q80 0 113 176q7 49 7 88.5t-15 64.5t-43 25 q-42 0 -71 -50t-42 -128z" />
<glyph unicode="&#x31;&#x2f;&#x34;" horiz-adv-x="1296" d="M98 20l1102 1287h178l-1106 -1287h-174zM209 711l2 88l141 30l56 320l-105 -33l-31 92l215 103h123l-84 -484l113 -28l-27 -88h-403zM662 203l294 399l174 -18l-61 -344h84l-20 -111h-84l-21 -127h-164l21 127h-209zM838 240h67l25 141z" />
<glyph unicode="&#x31;&#x2f;&#x32;" horiz-adv-x="1343" d="M98 20l1102 1287h178l-1106 -1287h-174zM209 711l2 88l141 30l56 320l-105 -33l-31 92l215 103h123l-84 -484l113 -28l-27 -88h-403zM692 2l2 109q33 24 82 58t72.5 51t56 41.5t47.5 39t32 34t25 36.5t11 37q16 81 -35 81l-24 -4l-46 -114h-114v170q13 7 36 17t84 27 t111 17q102 0 149 -48.5t36 -121.5q-11 -62 -49.5 -107t-112.5 -100l-129 -96h135l41 104h110l-24 -231h-496z" />
<glyph unicode="&#x33;&#x2f;&#x34;" horiz-adv-x="1302" d="M104 20l1102 1287h178l-1105 -1287h-175zM209 735l39 99q59 -17 125 -17q39 0 67.5 19.5t36.5 50.5q8 33 -3 52t-40 19h-82l17 97h84q27 0 46 39.5t14.5 78.5t-32.5 39l-12 -2l-43 -96h-100l-2 170q67 35 184 35q61 0 105 -16.5t64 -43.5t26 -60.5t-4.5 -67.5t-33.5 -65 t-55 -52q31 -17 50 -52t12 -79q-15 -83 -93 -129.5t-208 -46.5q-44 0 -84.5 7t-58.5 14zM668 203l295 399l174 -18l-62 -344h84l-20 -111h-84l-21 -127h-164l21 127h-209zM844 240h67l25 141z" />
<glyph unicode="&#xfb01;" horiz-adv-x="1048" d="M-188 -444q252 325 272 456l127 787l-117 10l-2 102l144 11l8 55q14 97 43.5 173t68 125.5t87 82t98.5 46t106 13.5q171 0 365 -82l-74 -243h-154v182q-58 20 -118 20q-146 0 -197 -344l-4 -28h489l-127 -791h127v-88q-137 -63 -221 -63q-74 0 -113.5 32.5t-29.5 104.5 l110 682h-256l-129 -795q-11 -64 -71 -151.5t-116.5 -149.5t-199.5 -210q-9 -10 -14 -15z" />
<glyph unicode="&#xfb02;" horiz-adv-x="1112" d="M-188 -444q252 325 272 456l127 787l-117 10l-2 102l144 11l8 55q14 97 43.5 173t68 125.5t87 82t98.5 46t106 13.5q74 0 158 -26l282 26l-206 -1286h127v-88q-140 -63 -224 -63q-74 0 -113.5 32.5t-29.5 104.5l186 1138q-89 48 -178 48q-72 0 -112 -80t-68 -273l-4 -28 h176v-123h-197l-129 -795q-11 -64 -71 -151.5t-116.5 -149.5t-199.5 -210q-9 -10 -14 -15z" />
<glyph unicode="&#xfb03;" horiz-adv-x="1581" d="M-188 -444q252 325 272 456l127 787l-117 10l-2 102l144 11l8 55q14 96 41.5 172.5t61.5 126t76.5 82t85 46t87.5 13.5q125 0 221 -47l-74 -244h-143v177q-43 0 -71 -79t-60 -274l-4 -28h303l8 55q18 120 58 208t96 137t118 72t132 23q170 0 364 -82l-74 -243h-153v182 q-58 20 -119 20q-146 0 -197 -344l-4 -28h490l-127 -791h127v-88q-137 -63 -221 -63q-74 0 -114 32.5t-30 104.5l111 682h-256l-129 -795q-11 -63 -69.5 -149t-116.5 -149.5t-196 -206.5q-13 -14 -20 -21l-102 78q252 325 272 456l127 787h-299l-129 -795 q-11 -64 -71 -151.5t-116.5 -149.5t-199.5 -210q-9 -10 -14 -15z" />
<glyph unicode="&#xfb04;" horiz-adv-x="1634" d="M-188 -444q252 325 272 456l127 787l-117 10l-2 102l144 11l8 55q14 96 41.5 172.5t61.5 126t76.5 82t85 46t87.5 13.5q125 0 221 -47l-74 -244h-143v177q-43 0 -71 -79t-60 -274l-4 -28h303l8 55q18 120 58 208t96 137t118 72t132 23q73 0 157 -26l283 26l-207 -1286 h127v-88q-139 -63 -223 -63q-74 0 -113.5 32.5t-29.5 104.5l186 1138q-89 48 -178 48q-72 0 -112.5 -80.5t-68.5 -272.5l-4 -28h177v-123h-197l-129 -795q-11 -63 -69.5 -149t-116.5 -149.5t-196 -206.5q-13 -14 -20 -21l-102 78q252 325 272 456l127 787h-299l-129 -795 q-11 -64 -71 -151.5t-116.5 -149.5t-199.5 -210q-9 -10 -14 -15z" />
<glyph horiz-adv-x="2048" />
<glyph horiz-adv-x="2048" />
<glyph unicode="&#xd;" horiz-adv-x="2048" />
<glyph unicode=" "  horiz-adv-x="573" />
<glyph unicode="&#x09;" horiz-adv-x="573" />
<glyph unicode="&#xa0;" horiz-adv-x="573" />
<glyph unicode="!" horiz-adv-x="575" d="M63 123q6 35 71.5 90t94.5 55t74 -55t39 -90t-70.5 -89t-93.5 -54t-75 54.5t-40 88.5zM178 422l117 967l270 28l-235 -977z" />
<glyph unicode="&#x22;" horiz-adv-x="706" d="M182 1024l33 403h223l-110 -403h-146zM467 1024l33 403h223l-111 -403h-145z" />
<glyph unicode="#" horiz-adv-x="1392" d="M96 367l64 172h243l89 252h-244l59 172h246l127 360h190l-127 -360h234l127 360h190l-127 -360h242l-59 -172h-244l-88 -252h244l-64 -172h-240l-129 -367h-190l129 367h-233l-129 -367h-191l129 367h-248zM594 539h233l88 252h-233z" />
<glyph unicode="$" horiz-adv-x="1052" d="M133 160l82 246h137l-4 -162q76 -21 141 -21q179 0 205 137q3 17 3.5 31t-3 27t-6.5 23.5t-13 21.5t-16.5 18.5t-22.5 18t-26.5 17t-32.5 17.5t-35.5 17.5t-41.5 19.5q-45 20 -79.5 40.5t-64.5 46t-47.5 53.5t-29.5 64t-11 77.5t8 93.5q19 108 115 188.5t232 102.5 l26 229h189l-56 -227q64 -8 123 -27.5t86 -35.5l27 -15l-82 -246h-139l4 162q-52 21 -123 21q-74 0 -124.5 -41t-61.5 -103q-12 -66 22.5 -104t122.5 -80q49 -22 85.5 -41t71.5 -42.5t57 -46.5t42 -52.5t26 -61t9 -72t-8 -85.5q-21 -114 -109 -188.5t-238 -94.5l-26 -229 h-189l54 223q-75 5 -144.5 25t-101.5 37z" />
<glyph unicode="&#x26;" horiz-adv-x="1374" d="M113 315q20 116 112.5 202t206.5 122q-61 83 -95.5 181t-17.5 196q28 153 151 240t310 87q90 0 180 -24t134 -48l45 -24l-92 -268h-162l6 217q-66 21 -133 21q-84 0 -138.5 -51t-68.5 -140q-3 -18 -3.5 -34.5t3 -34t7 -31.5t12.5 -32.5t15.5 -31t20 -33.5t22 -33.5 l25.5 -37.5l269 -393q76 125 92 303l-135 41l45 96h385l12 -98l-162 -39q0 -104 -40.5 -214t-108.5 -204l86 -98l166 -52l-45 -100h-328l-60 80q-60 -40 -148 -70t-177 -30q-205 0 -312.5 86.5t-78.5 248.5zM352 330q-18 -101 28.5 -162.5t156.5 -61.5q112 0 217 72 l-271 381q-108 -94 -131 -229z" />
<glyph unicode="'" horiz-adv-x="421" d="M182 1024l33 403h223l-110 -403h-146z" />
<glyph unicode="(" horiz-adv-x="724" d="M166 598q25 144 78.5 279.5t118 239.5t143 195.5t149 153.5t140.5 107l73 -84q-347 -331 -442 -877q-98 -559 129 -893l-102 -84q-45 38 -86 86t-83 116t-70.5 145.5t-49.5 175t-19 205.5t21 235z" />
<glyph unicode=")" horiz-adv-x="724" d="M-143 -281q347 331 442 877q98 559 -129 893l102 84q45 -38 86 -86t83 -116t70.5 -145.5t49.5 -175t19 -205.5t-21 -235q-25 -144 -78.5 -279.5t-118 -239.5t-143 -195.5t-149 -153.5t-140.5 -107z" />
<glyph unicode="*" horiz-adv-x="878" d="M154 940l28 162l205 -21l-98 166l160 94l53 -192l116 194l140 -92l-158 -170l207 23l-31 -164l-198 23l98 -158l-174 -94l-45 180l-107 -184l-141 94l156 162z" />
<glyph unicode="+" horiz-adv-x="1255" d="M272 594l29 164h330l61 354h174l-61 -354h332l-29 -164h-332l-63 -358h-174l63 358h-330z" />
<glyph unicode="," horiz-adv-x="491" d="M41 -150q93 86 100 152q1 9 -31.5 53.5t-29.5 67.5q6 32 72 88.5t94 56.5q17 0 45.5 -26t49.5 -66t15 -72q-6 -38 -30 -84t-84.5 -110t-147.5 -119z" />
<glyph unicode="-" horiz-adv-x="886" d="M104 385l25 141l678 19l-31 -180z" />
<glyph unicode="." horiz-adv-x="483" d="M78 123q6 35 71.5 90t94.5 55t73.5 -55t38.5 -90t-70 -89t-93 -54t-75 54.5t-40 88.5z" />
<glyph unicode="/" horiz-adv-x="1087" d="M51 -61l996 1527h204l-997 -1527h-203z" />
<glyph unicode="0" horiz-adv-x="1218" d="M207 662q20 109 49 202t78 184t111.5 154t154 102t201.5 39t187.5 -39t118 -102.5t57.5 -154t13 -183.5t-24 -202q-19 -109 -47.5 -202.5t-77.5 -184t-112 -154t-154 -102.5t-201 -39q-92 0 -161.5 26.5t-112 75.5t-67.5 111t-31.5 141.5t-2 158.5t20.5 169zM461 662 q-95 -547 123 -547q220 0 315 547q99 546 -121 546q-218 0 -317 -546z" />
<glyph unicode="1" horiz-adv-x="849" d="M61 96l238 54l170 956l-201 -49l-30 104l342 164h170l-209 -1175l178 -54l-49 -96h-592z" />
<glyph unicode="2" horiz-adv-x="1062" d="M49 90l252 236q235 221 337 363t128 288q20 118 -17.5 172.5t-142.5 54.5q-16 0 -38.5 -3t-37.5 -6l-14 -3l-67 -213h-162l4 278q7 3 19 9t50.5 21t78 26t98 20.5t114.5 9.5q225 0 317 -95.5t62 -270.5q-14 -81 -55 -159.5t-112.5 -162t-149.5 -161.5t-194 -188 q-14 -12 -21 -19l-121 -113h334l67 174h150l-17 -348h-850z" />
<glyph unicode="3" horiz-adv-x="997" d="M41 41l59 123q127 -45 252 -45q131 0 200.5 60.5t92.5 180.5q20 115 -16 179.5t-123 64.5h-148l25 139h149q153 0 195 238q18 107 -17 165t-112 58q-22 0 -49 -3t-43 -6l-17 -3l-67 -213h-162l4 278q7 3 19.5 9t52.5 21t81 26t101 20.5t117 9.5q104 0 180 -30.5 t115.5 -82.5t53.5 -115.5t1 -133.5q-17 -95 -79 -174t-140 -129q28 -14 51.5 -33t45.5 -47t34 -62t16.5 -79.5t-6.5 -98.5q-30 -172 -174 -275t-409 -103q-70 0 -141 15t-107 31z" />
<glyph unicode="4" horiz-adv-x="1083" d="M96 418l686 925l219 -20l-145 -825h178l-28 -172h-179l-32 -176l155 -54l-49 -96h-508l-16 96l176 54l33 176h-477zM352 498h262l82 465z" />
<glyph unicode="5" horiz-adv-x="1060" d="M80 41l59 123q127 -45 252 -45q126 0 193 60.5t92 195.5q23 137 -13 204t-141 74q-18 4 -56 2t-52 -2t-47 -4.5t-42 -5.5t-37 -6t-32 -6l-35 41l135 651h713l-108 -344h-150l-6 174h-277l-69 -360q38 6 86 6q116 0 201.5 -32t131 -88.5t63.5 -133.5t-1 -166 q-32 -187 -175.5 -293t-402.5 -106q-70 0 -140.5 15t-105.5 31z" />
<glyph unicode="6" horiz-adv-x="1091" d="M170 543q37 207 165 382t304.5 281.5t370.5 136.5l16 -116q-195 -51 -344 -182t-207 -318q105 41 199 41q199 0 295 -108t61 -302q-29 -169 -166 -273.5t-362 -104.5q-220 0 -302 135.5t-30 427.5zM442 590q-27 -107 -36.5 -189.5t-2 -147t40.5 -99.5t91 -37 q90 -3 149.5 54.5t81.5 184.5q24 130 -11.5 200.5t-131.5 70.5q-82 0 -181 -37z" />
<glyph unicode="7" horiz-adv-x="937" d="M137 0l686 1153h-360l-68 -174h-149l10 344h803l18 -41l-688 -1282h-252z" />
<glyph unicode="8" horiz-adv-x="1091" d="M123 346q22 117 101.5 198t189.5 128q-75 52 -112.5 125t-16.5 194q28 157 144.5 254.5t309.5 97.5q192 0 279.5 -102t60.5 -260q-34 -194 -229 -303q189 -110 149 -338q-28 -161 -162.5 -260.5t-334.5 -99.5q-205 0 -307 95.5t-72 270.5zM369 356q-22 -126 22.5 -183.5 t132.5 -57.5q85 0 149.5 54.5t84.5 170.5q10 53 -3.5 95t-51.5 72t-66.5 45.5t-79.5 37.5l-6 4q-152 -80 -182 -238zM510 1008q-9 -50 0.5 -88t41.5 -68.5t66.5 -51.5t94.5 -50q50 35 82.5 87.5t48.5 143.5q16 97 -14 162t-113 65q-82 0 -135.5 -53.5t-71.5 -146.5z" />
<glyph unicode="9" horiz-adv-x="1091" d="M205 965q29 169 166 273.5t362 104.5q220 0 302 -135.5t30 -427.5q-37 -207 -165 -382t-304.5 -281.5t-370.5 -136.5l-16 116q194 52 343.5 181.5t207.5 316.5q-105 -39 -199 -39q-199 0 -295 108t-61 302zM469 967q-49 -271 141 -271q89 0 183 35v2q27 107 36.5 189.5 t2 147t-40.5 99.5t-91 37q-90 3 -149.5 -54.5t-81.5 -184.5z" />
<glyph unicode=":" horiz-adv-x="466" d="M78 123q6 35 71.5 90t94.5 55t73.5 -55t38.5 -90t-70 -89t-93 -54t-75 54.5t-40 88.5zM207 797q6 35 71.5 90t94.5 55t73.5 -55t38.5 -90t-70 -89.5t-93 -54.5t-75 55t-40 89z" />
<glyph unicode=";" horiz-adv-x="462" d="M41 -150q93 86 100 152q1 9 -31.5 53.5t-29.5 67.5q6 32 72 88.5t94 56.5q17 0 45.5 -26t49.5 -66t15 -72q-6 -38 -30 -84t-84.5 -110t-147.5 -119zM203 797q6 35 71.5 90t94.5 55t73.5 -55t38.5 -90t-70.5 -89.5t-93.5 -54.5t-74.5 55t-39.5 89z" />
<glyph unicode="&#x3c;" horiz-adv-x="1122" d="M223 629l13 69l749 461l72 -149l-582 -346l461 -347l-125 -149z" />
<glyph unicode="=" horiz-adv-x="1282" d="M272 465l25 143h817l-24 -143h-818zM319 741l27 144h817l-26 -144h-818z" />
<glyph unicode="&#x3e;" horiz-adv-x="1138" d="M297 317l582 347l-461 346l125 149l587 -461l-12 -69l-749 -461z" />
<glyph unicode="?" horiz-adv-x="937" d="M33 123q6 35 71.5 90t94.5 55t73.5 -55t38.5 -90t-70.5 -89t-93.5 -54t-74.5 54.5t-39.5 88.5zM135 410l12 266l50 43q43 -8 104 -8q122 0 213.5 80t114.5 204q13 85 10.5 156t-14.5 98q-44 29 -142 29q-26 0 -50.5 -2.5t-36.5 -5.5l-11 -2l-63 -215h-162l12 272 q6 4 16.5 10t45.5 22t72.5 28t96 22t117.5 10q86 0 158.5 -23.5t127.5 -71t77.5 -130t3.5 -191.5q-15 -84 -55 -154t-94.5 -116.5t-121.5 -79.5t-134 -48t-134 -17l-55 -170z" />
<glyph unicode="@" horiz-adv-x="2031" d="M154 305q0 229 72 419.5t201.5 322t312.5 204t401 72.5q164 0 303 -51t233.5 -139t147.5 -208.5t53 -258.5q0 -128 -29.5 -235t-82 -180t-118 -127t-143 -84.5t-151 -45t-148.5 -14.5q-55 0 -96 38t-53 103q-53 -57 -122.5 -99t-107.5 -42q-46 0 -85.5 22t-71.5 67 t-45.5 127t-3.5 191q9 90 27.5 167.5t54.5 150.5t85.5 124t123 82t163.5 31q34 0 66.5 -13t48.5 -25l16 -13l51 51h150l-150 -846q169 26 277 186.5t108 385.5q0 102 -32.5 194t-93 165.5t-158 117t-217.5 43.5q-347 0 -548.5 -232t-201.5 -645q0 -124 30 -222.5 t81.5 -162.5t123 -106t149.5 -60t167 -18q276 0 518 121l45 -94q-237 -163 -590 -172q-126 0 -237.5 26t-208 81.5t-166.5 137.5t-109.5 200t-39.5 263zM848 360q-13 -124 10 -213q44 21 102.5 62t100.5 78l84 479q-25 43 -84 43q-47 0 -86 -43t-64 -113t-40.5 -143 t-22.5 -150z" />
<glyph unicode="A" horiz-adv-x="1271" d="M-35 92l168 51l578 1200h153l201 -1200l147 -51l-38 -92h-490l-14 90l147 49l-51 283h-328l-133 -281l146 -49l-39 -92h-430zM504 553h239l-59 373z" />
<glyph unicode="B" horiz-adv-x="1101" d="M23 88l153 53l164 1041l-135 53l45 88h440q225 0 326.5 -91.5t75.5 -244.5q-17 -99 -76.5 -166t-132.5 -100v-8q104 -41 156 -128.5t32 -207.5q-28 -175 -147.5 -276t-343.5 -101h-541zM412 125q54 -4 106 -4q147 0 216.5 59t90.5 185q20 126 -40.5 199t-186.5 73h-106z M514 766h109q84 0 148 51.5t83 163.5q36 221 -186 221l-86 -2z" />
<glyph unicode="C" horiz-adv-x="1040" d="M104 465q0 85 17 197q62 329 243.5 505t432.5 176q56 0 108.5 -8t88 -19.5t63 -23.5t40.5 -20l13 -8l-86 -279h-164l6 219q-40 8 -92 8q-50 0 -94.5 -15t-91.5 -53.5t-84.5 -99t-70 -158t-52.5 -224.5q-16 -99 -16 -199q0 -352 253 -352q148 0 314 67l22 -110 q-62 -33 -162.5 -60.5t-220.5 -27.5q-222 0 -344.5 120.5t-122.5 364.5z" />
<glyph unicode="D" horiz-adv-x="1224" d="M12 88l152 53l164 1041l-131 53l43 88h436q284 0 418.5 -114t134.5 -353q0 -73 -17 -192q-54 -342 -233 -503t-514 -161h-434zM401 125q46 -4 84 -4q132 0 221.5 50t152 170.5t95.5 322.5q19 117 19 198q0 182 -78.5 261t-239.5 79l-84 -2z" />
<glyph unicode="E" horiz-adv-x="1034" d="M12 88l154 53l164 1041l-133 53l43 88h886l-86 -303h-149l-8 176h-314l-67 -440l-4 -4h209l77 153l95 -35l-60 -364l-106 -37l-29 154h-209l4 -5l-78 -491h322l63 176h152l-10 -303h-897z" />
<glyph unicode="F" horiz-adv-x="1013" d="M12 88l154 53l164 1041l-133 53l43 88h913l-88 -303h-150l-8 176h-338l-67 -444h205l75 153l97 -35l-60 -364l-106 -37l-29 154h-205l-76 -482l129 -51l-38 -90h-463z" />
<glyph unicode="G" horiz-adv-x="1230" d="M102 469q0 76 17 195q54 345 234.5 512t461.5 167q65 0 129 -8t109.5 -19.5t82 -23.5t54.5 -20l18 -8l-90 -279h-162l7 215q-60 12 -172 12q-327 0 -412 -548q-19 -120 -19 -205q0 -348 250 -348q89 0 174 34l56 340l-133 56l43 88h462l17 -88l-152 -56l-61 -389 q-61 -41 -179 -78.5t-253 -37.5q-231 0 -356.5 121.5t-125.5 367.5z" />
<glyph unicode="H" horiz-adv-x="1320" d="M12 88l152 53l164 1041l-131 53l43 88h462l15 -88l-150 -53l-67 -430h456l68 430l-131 53l43 88h463l14 -88l-149 -53l-164 -1041l133 -53l-45 -88h-461l-18 88l151 53l76 482h-457l-76 -482l134 -53l-45 -88h-461z" />
<glyph unicode="I" horiz-adv-x="628" d="M12 88l152 53l164 1041l-131 53l43 88h462l15 -88l-150 -53l-164 -1041l134 -53l-45 -88h-461z" />
<glyph unicode="J" horiz-adv-x="573" d="M-139 -258q106 77 178 190t94 230l160 1020l-131 53l43 88h463l14 -88l-150 -53l-159 -1020q-13 -82 -58.5 -160.5t-114 -143t-138.5 -114.5t-150 -94z" />
<glyph unicode="K" horiz-adv-x="1167" d="M12 88l152 53l164 1041l-131 53l43 88h462l15 -88l-150 -53l-164 -1041l134 -53l-45 -88h-461zM492 694l458 500l-108 41l45 88h375l14 -88l-152 -53l-395 -432l234 -596l161 -66l-43 -88h-313z" />
<glyph unicode="L" horiz-adv-x="1007" d="M12 88l152 53l164 1041l-131 53l43 88h462l15 -88l-150 -53l-166 -1055h344l62 176h149l-10 -303h-915z" />
<glyph unicode="M" horiz-adv-x="1509" d="M-6 88l149 53l207 1041l-133 53l47 88h379l152 -840l405 840h373l12 -90l-147 -49l-123 -1043l131 -53l-43 -88h-473l-19 88l152 53l90 748l-375 -766h-160l-145 782l-151 -764l131 -53l-43 -88h-400z" />
<glyph unicode="N" horiz-adv-x="1261" d="M12 88l152 53l164 1041l-133 53l45 88h372l320 -846l110 705l-131 53l45 88h412l14 -88l-149 -53l-191 -1202h-196l-367 972l-127 -811l131 -53l-43 -88h-411z" />
<glyph unicode="O" d="M102 457q0 76 19 205q18 109 47 202t81.5 183.5t121.5 154t171 102.5t226 39q101 0 179.5 -25.5t129 -68.5t83 -105.5t46 -131.5t13.5 -150q0 -84 -17 -200q-18 -109 -48 -202t-82.5 -184t-121.5 -154.5t-171 -102.5t-226 -39q-100 0 -178.5 25t-129 67.5t-83.5 104.5 t-46.5 130.5t-13.5 149.5zM360 432q0 -326 213 -326q65 0 120 31t94 82t71 124.5t52 151t34 167.5q19 120 19 223q0 332 -215 332q-80 0 -144 -45.5t-107 -126.5t-71 -175t-45 -208q-21 -140 -21 -230z" />
<glyph unicode="P" horiz-adv-x="1040" d="M12 88l154 53l164 1045l-129 49l41 88h413q234 0 349.5 -69t115.5 -226q0 -26 -8 -88q-30 -181 -166.5 -277t-347.5 -96q-59 0 -125 8l-70 -434l134 -53l-43 -88h-463zM492 692q41 -6 110 -6q133 0 201.5 86.5t68.5 243.5q0 95 -54.5 140.5t-184.5 45.5l-62 -2z" />
<glyph unicode="Q" horiz-adv-x="1245" d="M119 774q22 126 72 228t129 179t194.5 119.5t259.5 42.5q93 0 167.5 -19t126.5 -53t88.5 -83t56.5 -106.5t27 -127t3 -141t-18 -151.5q-46 -272 -183.5 -445t-361.5 -231l229 -195q50 -43 105 -43q68 0 149 64l60 -72q-61 -75 -150 -121t-174 -43q-59 1 -95.5 20 t-90.5 64l-375 320q-45 5 -98 34.5t-70 69.5l82 104q102 -5 194 -92q30 -10 72 -10q336 0 436 576q15 84 20.5 157t-1.5 146.5t-30.5 125.5t-71.5 84.5t-119 32.5q-83 0 -150.5 -34t-115 -94.5t-78.5 -137t-48 -168.5q-29 -169 5.5 -269.5t119.5 -105.5q93 -5 181 74l61 -65 q-45 -56 -122 -99.5t-175 -40.5q-182 6 -267 139t-44 367z" />
<glyph unicode="R" horiz-adv-x="1155" d="M12 88l150 53l166 1045l-129 49l41 88h413q44 0 83 -2t78.5 -7t72 -13.5t64.5 -20.5t56 -28.5t46.5 -38t35.5 -48.5t22.5 -60t8.5 -72.5t-6 -86.5q-10 -59 -32 -110t-51.5 -87.5t-61 -65.5t-67 -48.5t-64 -31t-56.5 -19.5q31 -85 89 -240.5t73 -196.5l-2 -2l162 -53 l-43 -92h-318l-229 627l31 63h53q230 0 270 256q38 256 -237 256l-62 -2l-168 -1059l134 -53l-43 -88h-463z" />
<glyph unicode="S" horiz-adv-x="974" d="M27 74l86 264h161l-6 -209q67 -23 152 -23q212 0 242 199q8 51 -2.5 89.5t-46 70.5t-72 53.5t-105.5 54.5q-152 72 -214.5 170t-37.5 254q24 149 154 247.5t317 98.5q61 0 120.5 -10t100.5 -24t73 -28t47 -24l16 -10l-84 -262h-162l4 209q-53 23 -139 23 q-91 0 -148 -59.5t-71 -149.5q-14 -86 30.5 -139t143.5 -101q35 -17 61.5 -30t57 -30t52 -32.5t44.5 -34.5t39 -39t31 -43.5t23 -49.5t13 -56t4.5 -64.5t-6.5 -73.5q-24 -156 -152 -245.5t-354 -89.5q-98 0 -191 23.5t-137 46.5z" />
<glyph unicode="T" horiz-adv-x="1064" d="M172 1010l8 313h1016l-96 -313h-146v190l-170 -4l-163 -1055l127 -51l-41 -90h-461l-15 88l148 53l168 1055l-166 4l-62 -190h-147z" />
<glyph unicode="U" horiz-adv-x="1267" d="M193 1235l47 88h471l16 -88l-152 -53l-90 -566q-30 -188 -30 -286q0 -112 35.5 -168t119.5 -56q147 0 230 122.5t125 387.5l88 566l-133 53l45 88h401l16 -88l-151 -53l-90 -566q-20 -126 -46.5 -219.5t-69 -175t-101 -132.5t-142.5 -80t-192 -29q-109 0 -184 23 t-118.5 69.5t-62 109t-18.5 150.5q0 101 31 284l88 566z" />
<glyph unicode="V" horiz-adv-x="1267" d="M170 1235l43 88h481l15 -88l-152 -53l131 -836l399 836l-133 53l43 88h404l10 -88l-147 -53l-576 -1202h-196l-189 1202z" />
<glyph unicode="W" horiz-adv-x="1925" d="M170 1235l43 88h469l14 -88l-151 -53l110 -846l369 731l-37 215l260 41q23 -11 37 -43t9 -90.5t-36 -126.5l113 -729l383 848l-139 53l45 88h399l10 -88l-149 -53l-541 -1202h-215l-102 821l-412 -821h-192l-156 1202z" />
<glyph unicode="X" horiz-adv-x="1212" d="M-27 88l152 53l405 506v4l-227 531l-131 53l45 88h485l15 -88l-152 -53l146 -340l274 340l-135 53l45 88h412l12 -88l-150 -53l-395 -492v-4l248 -545l133 -53l-45 -88h-492l-16 88l154 53l-162 359l-285 -359l133 -53l-43 -88h-409z" />
<glyph unicode="Y" horiz-adv-x="1177" d="M170 1235l45 88h463l14 -88l-151 -53l149 -422l301 418l-145 57l47 88h414l14 -88l-152 -53l-415 -570l-74 -471l133 -53l-45 -88h-461l-16 88l149 53l68 430l-217 617z" />
<glyph unicode="Z" horiz-adv-x="1028" d="M25 88l817 1106l-365 4l-69 -188h-146l10 313h840l4 -106l-803 -1088h404l67 184h148l-8 -313h-889z" />
<glyph unicode="[" horiz-adv-x="626" d="M-2 -352l338 1915l424 -29l-21 -113l-204 -26l-279 -1571l195 -35l-19 -108z" />
<glyph unicode="\" horiz-adv-x="1138" d="M0 1466h203l997 -1527h-205z" />
<glyph unicode="]" horiz-adv-x="626" d="M-133 -324l20 113l205 27l279 1570l-195 35l19 109l434 33l-338 -1915z" />
<glyph unicode="^" horiz-adv-x="786" d="M154 993l305 424h125l151 -424l-121 -69l-139 241l-225 -241z" />
<glyph unicode="_" horiz-adv-x="1208" d="M102 -182l27 143l977 19l-31 -181z" />
<glyph unicode="`" horiz-adv-x="921" d="M217 1243l125 160l363 -238l-66 -96z" />
<glyph unicode="a" horiz-adv-x="974" d="M61 262q0 65 5.5 127.5t20 131.5t37 128.5t58.5 114.5t82 93.5t111 61.5t143 23q97 0 162 -49l35 49h170l-131 -811h127v-88q-138 -63 -222 -63q-139 0 -139 96v35q-64 -56 -131.5 -93.5t-118.5 -37.5q-91 0 -148.5 72t-60.5 210zM299 256q0 -72 14 -119q112 49 230 137 l80 486q-5 10 -14 21t-33 23.5t-52 12.5q-54 0 -96 -44.5t-65.5 -109t-38.5 -146t-20 -145t-5 -116.5z" />
<glyph unicode="b" horiz-adv-x="958" d="M88 72l193 1183l-158 35v88l418 39l-99 -606q64 56 132.5 93.5t119.5 37.5q91 0 148.5 -72.5t60.5 -210.5q0 -66 -5 -127.5t-18.5 -131.5t-35.5 -128.5t-58.5 -113.5t-84 -93.5t-116 -61.5t-151.5 -23q-75 0 -172.5 25.5t-173.5 66.5zM332 125q55 -19 106 -19 q54 0 96.5 44.5t66.5 109t39.5 145.5t20.5 144.5t5 116.5q0 64 -15 118q-124 -54 -235 -137z" />
<glyph unicode="c" horiz-adv-x="843" d="M84 285q0 303 124 480t349 177q82 0 152 -17t99 -34l30 -17l-70 -243h-162v180q-18 6 -55 6q-50 0 -90.5 -41t-65.5 -102t-42 -137t-24 -141.5t-7 -119.5q0 -110 26 -149q12 -4 39 -4q68 0 151 37.5t132 77.5l67 -101q-61 -59 -163.5 -108t-192.5 -49q-142 0 -219.5 76.5 t-77.5 228.5z" />
<glyph unicode="d" horiz-adv-x="962" d="M61 262q0 65 5.5 127.5t20 131.5t37 128.5t58.5 114.5t82 93.5t111 61.5t143 23t131 -29l56 342l-158 35v88l418 39l-209 -1286h127v-88q-140 -63 -224 -63q-139 0 -139 96v35q-64 -56 -131.5 -93.5t-118.5 -37.5q-91 0 -148.5 72t-60.5 210zM299 256q0 -72 14 -119 q117 51 232 137l80 486q-8 17 -35 37t-66 20q-54 0 -96 -44.5t-65.5 -109t-38.5 -146t-20 -145t-5 -116.5z" />
<glyph unicode="e" horiz-adv-x="851" d="M59 285q0 112 18 210.5t56 181t93 141t132.5 91.5t171.5 33q141 0 215 -57.5t76 -153.5q-15 -233 -516 -325q-8 -66 -8 -130q0 -104 25 -149q20 -4 40 -4q129 0 318 135l63 -96q-67 -68 -177.5 -125t-209.5 -57q-142 0 -219.5 76.5t-77.5 228.5zM326 532q32 6 75.5 24 t86.5 44t73.5 62.5t32.5 72.5q3 46 -14 76q-21 6 -56 6q-69 0 -119 -79t-79 -206z" />
<glyph unicode="f" horiz-adv-x="602" d="M-188 -444q252 325 272 456l127 787l-117 10l-2 102l144 11l8 55q18 119 58 207.5t93.5 137.5t111 72t120.5 23q125 0 221 -47l-74 -244h-153v177h-21q-44 0 -73.5 -81t-57.5 -272l-4 -28h197v-123h-218l-129 -795q-11 -64 -71 -151.5t-116.5 -149.5t-199.5 -210 q-9 -10 -14 -15z" />
<glyph unicode="g" horiz-adv-x="913" d="M-109 -274q0 196 328 294q-20 36 -20 66q-3 58 63 135q-82 31 -122 98t-40 156q1 102 27.5 186t79 147.5t137 98.5t195.5 35q65 0 147 -20h268v-125l-159 2q27 -53 30 -131q-1 -125 -55.5 -228.5t-146 -165t-201.5 -71.5l-39 -82l317 -207q101 -70 101 -137 q0 -44 -43 -96t-113.5 -97t-171.5 -75.5t-205 -30.5q-168 0 -271.5 70.5t-105.5 177.5zM121 -283q0 -60 24 -88q51 -26 140 -26q98 0 179 53t111 115l-264 172q-190 -65 -190 -226zM317 434q3 -76 21 -108q23 -9 55 -9q56 0 99.5 42t66.5 106t34 126.5t11 117.5 q-3 77 -18 108q-24 8 -58 8q-56 0 -99.5 -41.5t-66.5 -105.5t-34 -126.5t-11 -117.5z" />
<glyph unicode="h" horiz-adv-x="1042" d="M59 0l205 1255l-158 35v88l418 39l-98 -612q77 58 163 97.5t159 39.5q86 0 127.5 -44.5t29.5 -121.5l-104 -645h127v-88q-137 -63 -221 -63q-74 0 -114.5 32.5t-29.5 104.5l107 647q-49 -7 -125 -38t-146 -79l-102 -647h-238z" />
<glyph unicode="i" horiz-adv-x="593" d="M102 811v94l402 37l-131 -811h127v-88q-137 -63 -221 -63q-74 0 -114 32.5t-30 104.5l109 663zM297 1235q6 35 71.5 90t94.5 55t73.5 -55t38.5 -90t-70 -89t-93 -54t-75 54.5t-40 88.5z" />
<glyph unicode="j" horiz-adv-x="557" d="M-166 -444q247 323 268 456l127 768l-143 31v94l403 37l-153 -938q-11 -63 -69.5 -149t-116.5 -149.5t-196 -206.5q-13 -14 -20 -21zM281 1235q6 35 71 90t94 55t74 -55t39 -90t-70.5 -89t-93.5 -54t-74.5 54.5t-39.5 88.5z" />
<glyph unicode="k" horiz-adv-x="923" d="M84 0l205 1255l-158 35v88l418 39l-100 -620q193 145 315 145q77 0 108 -34.5t31 -94.5q0 -95 -77 -199t-191 -194l106 -289h150v-88q-137 -63 -219 -63q-112 0 -137 59l-119 315l14 72q94 67 166 161.5t72 184.5q-40 -6 -109.5 -42t-132.5 -83l-104 -647h-238z" />
<glyph unicode="l" horiz-adv-x="571" d="M100 117l187 1138l-158 35v88l418 39l-207 -1286h127v-88q-139 -63 -223 -63q-74 0 -114 32.5t-30 104.5z" />
<glyph unicode="m" horiz-adv-x="1581" d="M102 811v94l402 37l-23 -137q77 58 163 97.5t159 39.5q77 0 119.5 -37t40.5 -102l2 2q77 58 162.5 97.5t158.5 39.5q86 0 128 -44.5t30 -121.5l-105 -645h127v-88q-137 -63 -221 -63q-74 0 -114 32.5t-29 104.5l106 647q-49 -7 -124 -38t-144 -79l-104 -647h-238l127 764 q-49 -7 -124 -38t-144 -79l-105 -647h-237l129 780z" />
<glyph unicode="n" horiz-adv-x="1099" d="M102 811v94l402 37l-23 -137q77 58 163 97.5t159 39.5q86 0 128 -44.5t30 -121.5l-105 -645h127v-88q-137 -63 -221 -63q-74 0 -114.5 32.5t-29.5 104.5l107 647q-49 -7 -124 -38t-144 -79l-105 -647h-237l129 780z" />
<glyph unicode="o" horiz-adv-x="927" d="M59 285q0 305 127.5 481t368.5 176q317 0 317 -303q0 -307 -126.5 -483t-368.5 -176q-318 0 -318 305zM297 276q0 -57 9 -99.5t18 -57.5q26 -13 59 -13q56 0 101 40.5t72.5 101.5t46 137t25.5 141t7 119q0 57 -9 100t-18 58q-24 12 -59 12q-56 0 -101 -40.5t-72.5 -101.5 t-46 -137t-25.5 -141t-7 -119z" />
<glyph unicode="p" horiz-adv-x="980" d="M23 -502l208 1282l-141 31v94l402 37l-23 -135q55 55 128 95t124 40q93 0 149.5 -72.5t59.5 -210.5q0 -66 -5 -127.5t-18.5 -131.5t-35.5 -128.5t-58.5 -113.5t-84 -93.5t-116 -61.5t-151.5 -23q-46 0 -121 14l-80 -496h-237zM360 123q53 -17 105 -17q54 0 96.5 44.5 t66 108.5t39 145.5t20.5 145t5 116.5q0 67 -14 118q-135 -64 -234 -137z" />
<glyph unicode="q" horiz-adv-x="923" d="M59 262q0 65 5.5 127.5t20 131.5t37 128.5t58.5 114.5t82 93.5t111 61.5t143 23q97 0 162 -49q4 6 16 23.5t19 25.5h172l-232 -1444h-237l98 608q-149 -126 -246 -126q-91 0 -148.5 72t-60.5 210zM297 256q0 -72 14 -119q112 49 230 137l80 488q-6 10 -16 21t-33 22.5 t-50 11.5q-54 0 -96 -44.5t-65.5 -109t-38.5 -146t-20 -145t-5 -116.5z" />
<glyph unicode="r" horiz-adv-x="798" d="M102 811v94l402 37l-19 -108q125 108 228 108q60 0 104 -27l-82 -284h-164v125q-46 -14 -108 -62l-111 -694h-237l129 780z" />
<glyph unicode="s" horiz-adv-x="835" d="M51 113q-2 48 7 92.5t18 64.5l10 21h156l16 -180q37 -11 94 -11q128 0 142 97q5 49 -23 79.5t-111 85.5q-6 4 -9.5 6.5t-8.5 6t-10 6.5q-49 32 -72 49t-55.5 47t-46 56.5t-22.5 66t-5 88.5q8 106 104.5 180t247.5 74q73 0 147 -17t112 -34l38 -17l-67 -243h-164v180 q-36 12 -80 12q-57 0 -93.5 -35t-39.5 -83q-2 -28 9 -54t35.5 -49t44 -37t50.5 -33q33 -20 44 -27t40.5 -26.5t41 -29.5t35 -30t33 -34.5t24.5 -36.5t20 -42t8.5 -45t1.5 -52q-11 -107 -111 -168t-272 -61q-55 0 -103 6.5t-91 21t-68.5 41.5t-26.5 64z" />
<glyph unicode="t" horiz-adv-x="686" d="M113 809v102l151 11l90 211h164l-33 -211h197v-123h-217l-107 -668q34 -1 104 4.5t109 11.5l11 -96q-54 -26 -143.5 -48.5t-176.5 -22.5q-77 0 -113.5 31t-25.5 106l108 682z" />
<glyph unicode="u" horiz-adv-x="1060" d="M115 811v94l403 37l-129 -784q49 7 124.5 37.5t143.5 78.5l105 648h237l-131 -791h129v-88q-137 -63 -221 -63q-74 0 -113.5 32.5t-29.5 104.5q-77 -58 -163 -97.5t-159 -39.5q-86 0 -127.5 44t-29.5 121l102 635z" />
<glyph unicode="v" horiz-adv-x="940" d="M35 807v100l383 35l8 -711q203 247 258 512l-143 121l51 78q51 0 93 -5.5t84.5 -20.5t70 -40t40.5 -67t3 -98q-18 -107 -93.5 -244.5t-177.5 -263.5t-211 -223h-190l-16 792z" />
<glyph unicode="w" horiz-adv-x="1390" d="M35 807v100l381 35l8 -711q154 187 225 394l-6 297h227l9 -691q96 115 163.5 247.5t94.5 264.5l-142 121l49 78q51 0 93.5 -5.5t85 -20.5t69.5 -40t40 -67t3 -98q-28 -163 -169 -372.5t-314 -358.5h-188l-9 311q-109 -170 -256 -311h-190l-16 792z" />
<glyph unicode="x" horiz-adv-x="915" d="M-16 94q0 27 26 64q28 39 78.5 89.5t98 91.5t151.5 130l-121 322h-149l-2 88q141 63 225 63q109 0 129 -57l102 -281q119 107 162 174l-106 88l43 76q36 0 79 -6.5t92 -20.5t81 -44t32 -70q0 -23 -16 -49q-50 -74 -314 -293l123 -328h148l2 -88q-139 -63 -225 -63 q-107 0 -127 59l-103 280q-125 -107 -182 -184l98 -82l-41 -73q-143 0 -213 26.5t-71 87.5z" />
<glyph unicode="y" horiz-adv-x="929" d="M-250 -303l96 67l136 -126q50 47 123.5 134t138.5 177v2l-60 819l-166 37v100l383 35l54 -723q143 227 231 524l-141 121l49 78q51 0 93.5 -5.5t85 -21.5t69.5 -42t39 -71t2 -104q-25 -138 -143.5 -343.5t-288.5 -428.5q-73 -97 -132 -168t-124 -139.5t-120.5 -104.5 t-97.5 -36q-92 0 -157.5 62.5t-69.5 156.5z" />
<glyph unicode="z" horiz-adv-x="819" d="M-4 55l520 713h-381l25 154h598l39 -56l-523 -710h232l14 135h156q31 -50 31 -144q2 -61 -44.5 -104t-117.5 -43h-512z" />
<glyph unicode="{" horiz-adv-x="716" d="M66 -352l286 784l-213 133l15 76l258 133l-13 789l457 -31l-18 -109l-203 -26l6 -690l-242 -103l207 -102l-252 -688l195 -27l-19 -106z" />
<glyph unicode="|" horiz-adv-x="450" d="M0 -221l303 1712h205l-303 -1712h-205z" />
<glyph unicode="}" horiz-adv-x="716" d="M-139 -322l18 109l203 27l-6 690l241 102l-206 103l251 688l-194 26l18 107l465 33l-286 -785l213 -133l-15 -76l-258 -133l12 -788z" />
<glyph unicode="~" horiz-adv-x="1259" d="M268 594q41 95 111.5 157t146.5 62q28 0 105 -20l258 -80q14 -4 26.5 -6t24.5 0.5t21 4t20 10t16.5 11.5t17.5 16t15 16.5t16 19t15 18.5l84 -43q-45 -97 -114 -160t-144 -63q-46 0 -109 20l-248 80q-20 7 -38.5 7.5t-35 -5.5t-29 -13t-27.5 -22t-24 -24.5t-24 -28.5z " />
<glyph unicode="&#xa1;" horiz-adv-x="575" d="M10 -522l236 997l153 19l-120 -988zM233 797q6 35 71.5 90t94.5 55t74 -55t39 -90t-70.5 -89.5t-93.5 -54.5t-75 55t-40 89z" />
<glyph unicode="&#xa2;" horiz-adv-x="952" d="M201 489q0 281 106 454.5t303 199.5l23 200h188l-49 -202q53 -8 98.5 -23.5t64.5 -27.5l19 -11l-69 -243h-162v180q-18 6 -55 6q-61 0 -108.5 -60t-72.5 -150.5t-37 -175.5t-12 -155q0 -109 27 -149q12 -4 39 -4q68 0 150.5 37t131.5 77l68 -100q-43 -41 -111 -80.5 t-139 -60.5l-22 -221h-189l49 206q-117 14 -179 89.5t-62 213.5z" />
<glyph unicode="&#xa3;" horiz-adv-x="1114" d="M59 133q111 77 162 180.5t86 286.5l-141 4l18 105l144 2l6 30q29 164 77.5 279.5t113.5 180.5t137 93.5t161 28.5q79 0 152 -19.5t106 -39.5l33 -19l-90 -266h-162l8 209q-24 6 -73 6q-86 0 -140.5 -101.5t-99.5 -357.5l-4 -18l342 8l-25 -139l-338 8l-6 -35 q-25 -141 -65 -227t-142 -174q94 35 187 35q26 0 53 -2t45 -4t44 -6.5t36 -6.5t35.5 -7.5t28.5 -6.5l59 182h162l-2 -317q-97 -35 -183 -35q-55 0 -168.5 21.5t-166.5 21.5q-176 0 -324 -53z" />
<glyph unicode="&#xa4;" horiz-adv-x="1413" d="M154 244l211 162q-42 108 -17 258q26 148 109 256l-154 163l174 146l135 -180q109 53 244 53q137 0 225 -53l197 180l123 -146l-209 -161q45 -108 20 -258q-26 -153 -112 -261l151 -159l-172 -148l-135 180q-105 -51 -242 -51q-142 0 -227 54l-196 -183zM594 664 q-27 -146 5.5 -227t125.5 -81q90 0 153.5 82.5t88.5 225.5q25 146 -7.5 226.5t-125.5 80.5q-89 0 -152.5 -83.5t-87.5 -223.5z" />
<glyph unicode="&#xa5;" horiz-adv-x="1189" d="M190 1235l46 88h462l15 -88l-152 -53l150 -422l301 418l-146 57l47 88h414l14 -88l-151 -53l-354 -486l258 6l-25 -139l-301 6l-16 -96l262 6l-25 -139l-258 6l-31 -205l134 -53l-46 -88h-460l-17 88l150 53l33 211l-240 6l18 105l240 4l16 104l-2 4l-272 7l18 104l213 4 l-174 498z" />
<glyph unicode="&#xa6;" horiz-adv-x="450" d="M0 -221l133 749h205l-133 -749h-205zM170 741l133 750h205l-133 -750h-205z" />
<glyph unicode="&#xa7;" horiz-adv-x="958" d="M96 68l72 241h145v-186q38 -17 93 -17q134 0 153 109q10 59 -14 98.5t-105 69.5q-44 17 -76.5 32t-61.5 32t-48 34t-34.5 38t-20.5 43.5t-7.5 50.5t5.5 59q23 123 174 192q-64 42 -84 92t-6 129q19 110 122.5 184t251.5 74q76 0 147 -22.5t104 -44.5l32 -23l-70 -241 h-145v186q-38 19 -90 19q-57 0 -91 -31.5t-44 -83.5q-7 -50 16.5 -80t95.5 -64q72 -35 112.5 -59.5t74 -59t42.5 -76.5t-1 -99q-20 -114 -146 -185q67 -41 92.5 -95.5t10.5 -139.5q-20 -118 -126.5 -191t-285.5 -73q-50 0 -98 9t-80.5 22t-58 26t-38.5 22zM406 688 q-5 -26 -1 -44t28 -36t37.5 -24.5t62.5 -28.5q5 -3 8 -4q73 43 82 96q9 47 -16 80t-93 64q-4 0 -8 4q-89 -24 -100 -107z" />
<glyph unicode="&#xa8;" horiz-adv-x="991" d="M328 1235q6 35 71.5 90t94.5 55t73.5 -55t38.5 -90t-70.5 -89t-93.5 -54t-74.5 54.5t-39.5 88.5zM684 1235q6 35 71.5 90t94.5 55t74 -55t39 -90t-70.5 -89t-93.5 -54t-75 54.5t-40 88.5z" />
<glyph unicode="&#xa9;" horiz-adv-x="1740" d="M207 659q34 190 148.5 347t283 247t354.5 90q138 0 251 -53t185 -144t101 -218t4 -269q-33 -189 -147.5 -344t-281.5 -244t-351 -89q-139 0 -253.5 52.5t-187 142t-102 215.5t-4.5 267zM373 662q-26 -151 17.5 -274t146.5 -193t245 -70q211 0 378.5 154t207.5 383 q27 151 -14.5 274.5t-141.5 193.5t-239 70q-142 0 -270 -70t-215.5 -193t-114.5 -275zM557 653q13 75 40 137.5t71 114.5t112 81.5t154 29.5q125 0 221 -66l-51 -182h-115l-2 129q-30 10 -72 10q-65 0 -102.5 -63.5t-60.5 -190.5q-25 -119 -5.5 -185.5t95.5 -66.5 q95 0 196 35l13 -88q-138 -53 -244 -53q-86 0 -144.5 29t-83 78t-31.5 114t9 137z" />
<glyph unicode="&#xaa;" horiz-adv-x="649" d="M125 958q13 171 89.5 278t209.5 107q40 0 70.5 -13t42.5 -25l53 38h110l-82 -485h78l2 -84q-100 -43 -161 -43q-82 0 -101 66q-27 -22 -73 -44t-78 -22q-59 0 -98 34t-52.5 83.5t-9.5 109.5zM311 977q-2 -33 -1.5 -56.5t2.5 -36.5l1 -12q68 14 131 50l48 274 q-23 18 -58 18q-54 0 -86 -72t-37 -165z" />
<glyph unicode="&#xab;" horiz-adv-x="1261" d="M176 428l12 66l508 409l90 -90l-354 -352l230 -352l-121 -91zM662 428l12 66l467 409l90 -90l-334 -352l209 -352l-121 -91z" />
<glyph unicode="&#xac;" horiz-adv-x="1277" d="M289 598l26 156h818l-64 -367h-195l37 211h-622z" />
<glyph unicode="&#xad;" horiz-adv-x="886" d="M104 385l25 141l678 19l-31 -180z" />
<glyph unicode="&#xae;" horiz-adv-x="1740" d="M207 659q34 190 148.5 347t283 247t354.5 90q138 0 251 -53t185 -144t101 -218t4 -269q-33 -189 -147.5 -344t-281.5 -244t-351 -89q-139 0 -253.5 52.5t-187 142t-102 215.5t-4.5 267zM373 662q-26 -151 17.5 -274t146.5 -193t245 -70q211 0 378.5 154t207.5 383 q27 151 -14.5 274.5t-141.5 193.5t-239 70q-142 0 -270 -70t-215.5 -193t-114.5 -275zM528 301v72l74 37l84 481l-61 37l28 71h271q109 0 169.5 -53t41.5 -158q-7 -42 -28.5 -76.5t-49.5 -54.5t-51.5 -30.5t-42.5 -14.5l86 -202l81 -37l-28 -72h-199l-108 277l-29 -168 l61 -37l-28 -72h-271zM813 678h31q103 0 121 110q21 111 -82 111h-31z" />
<glyph unicode="&#xaf;" horiz-adv-x="1095" d="M322 1167l24 140h643l-24 -140h-643z" />
<glyph unicode="&#xb0;" horiz-adv-x="643" d="M129 1067q22 117 108 196.5t216 79.5q131 0 188.5 -79.5t36.5 -196.5q-21 -119 -106 -196.5t-216 -77.5t-189.5 78t-37.5 196zM307 1067q-11 -66 6 -109t64 -43q49 0 81.5 43t43.5 109q13 67 -4 110.5t-66 43.5q-47 0 -79.5 -43.5t-45.5 -110.5z" />
<glyph unicode="&#xb1;" horiz-adv-x="1226" d="M236 55l28 164h817l-28 -164h-817zM332 731l28 164h330l62 354h174l-62 -354h332l-29 -164h-331l-64 -358h-174l64 358h-330z" />
<glyph unicode="&#xb2;" horiz-adv-x="610" d="M123 743l2 109q33 24 82 58t72.5 51t56 41.5t47.5 39t32 34t25 36.5t11 37q16 82 -35 82l-25 -4l-45 -115h-115v170q13 7 36 17t84.5 27t111.5 17q102 0 148.5 -48t35.5 -121q-11 -62 -49.5 -107t-112.5 -100l-129 -97h136l40 105h111l-25 -232h-495z" />
<glyph unicode="&#xb3;" horiz-adv-x="579" d="M123 760l39 98q59 -16 125 -16q40 0 68 19t36 50q8 33 -3 52.5t-40 19.5h-82l17 96h84q27 0 46 39.5t14.5 79t-32.5 39.5l-12 -2l-43 -96h-100l-2 170q67 34 184 34q61 0 105 -16.5t64 -43.5t26 -60.5t-4.5 -67.5t-33.5 -65t-55 -52q31 -17 50 -52t12 -79 q-15 -83 -93 -129.5t-208 -46.5q-44 0 -84.5 7.5t-58.5 14.5z" />
<glyph unicode="&#xb4;" horiz-adv-x="948" d="M354 1169l422 230l76 -174l-446 -154z" />
<glyph unicode="&#xb5;" horiz-adv-x="1060" d="M-139 -444q243 318 268 456q28 148 74 436.5t53 331.5l-141 31v94l403 37l-129 -784q49 7 124.5 37.5t143.5 78.5l105 648h237l-131 -791h129v-88q-137 -63 -221 -63q-74 0 -113.5 32.5t-29.5 104.5q-166 -125 -297 -135q-10 -39 -35 -85.5t-50.5 -83.5t-82.5 -104 t-91.5 -104.5t-115.5 -126.5z" />
<glyph unicode="&#xb6;" d="M176 938q37 207 184 296t420 89h469l11 -96l-152 -49l-209 -1178h-178l207 1178h-90l-207 -1178h-187l101 563q-194 0 -297 98t-72 277z" />
<glyph unicode="&#xb7;" horiz-adv-x="425" d="M117 487q6 35 71.5 90.5t94.5 55.5t73.5 -55.5t38.5 -90.5t-70.5 -89t-93.5 -54t-74.5 54.5t-39.5 88.5z" />
<glyph unicode="&#xb8;" horiz-adv-x="960" d="M238 -477l49 96q72 -25 129 -25q42 0 73.5 22t38.5 60q6 36 -17.5 57t-66.5 21q-39 0 -79 -10l-29 35l147 278l115 -18l-59 -186q91 2 148.5 -45.5t41.5 -133.5q-11 -65 -60 -111t-112.5 -65.5t-134.5 -19.5q-102 0 -184 45z" />
<glyph unicode="&#xb9;" horiz-adv-x="512" d="M123 743l2 88l141 31l56 320l-105 -33l-31 92l215 102h123l-84 -483l113 -29l-27 -88h-403z" />
<glyph unicode="&#xba;" horiz-adv-x="634" d="M131 1036q23 132 107 219.5t215 87.5q132 0 185 -87.5t30 -219.5q-25 -134 -108 -219.5t-216 -85.5q-89 0 -143 42t-70 109t0 154zM317 1036q-15 -72 -2 -124t54 -52q79 0 112 176q7 49 7 88.5t-15 64.5t-43 25q-42 0 -71 -50t-42 -128z" />
<glyph unicode="&#xbb;" horiz-adv-x="1261" d="M31 109l334 352l-209 352l120 90l324 -409l-12 -66l-467 -410zM475 109l354 352l-229 352l121 90l364 -409l-12 -66l-508 -410z" />
<glyph unicode="&#xbf;" horiz-adv-x="909" d="M51 -94q19 106 76 190.5t134.5 134.5t162 76.5t168.5 28.5l55 170l160 6l-12 -266l-52 -43q-41 8 -102 8q-121 0 -211.5 -84.5t-120.5 -214.5q-13 -59 -14.5 -118.5t4.5 -94.5t14 -53q43 -29 142 -29q26 0 50 2.5t35 4.5l11 3l63 215h162l-12 -272q-6 -4 -16 -10t-45 -22 t-72.5 -28t-95.5 -22t-117 -10q-68 0 -128 15t-112 47t-84.5 82t-46 121t3.5 163zM629 797q6 35 71.5 90t94.5 55t73.5 -55t38.5 -90t-70.5 -89.5t-93.5 -54.5t-74.5 55t-39.5 89z" />
<glyph unicode="&#xc0;" horiz-adv-x="1271" d="M-35 92l168 51l578 1200h153l201 -1200l147 -51l-38 -92h-490l-14 90l147 49l-51 283h-328l-133 -281l146 -49l-39 -92h-430zM504 553h239l-59 373zM530 1645l125 159l363 -237l-66 -97z" />
<glyph unicode="&#xc1;" horiz-adv-x="1271" d="M-35 92l168 51l578 1200h153l201 -1200l147 -51l-38 -92h-490l-14 90l147 49l-51 283h-328l-133 -281l146 -49l-39 -92h-430zM504 553h239l-59 373zM612 1571l422 229l76 -174l-446 -153z" />
<glyph unicode="&#xc2;" horiz-adv-x="1271" d="M-35 92l168 51l578 1200h153l201 -1200l147 -51l-38 -92h-490l-14 90l147 49l-51 283h-328l-133 -281l146 -49l-39 -92h-430zM504 553h239l-59 373zM510 1536l289 258h129l200 -258l-100 -80l-194 160l-252 -160z" />
<glyph unicode="&#xc3;" horiz-adv-x="1290" d="M-16 92l168 51l577 1200h154l200 -1200l148 -51l-39 -92h-490l-14 90l148 49l-52 283h-327l-133 -281l145 -49l-39 -92h-430zM522 553h240l-60 373zM530 1540q41 95 110.5 156t145.5 61q32 0 86 -28l93 -54q60 -34 153 78l84 -47q-43 -95 -112.5 -156t-145.5 -61 q-32 0 -84 29l-94 53q-60 36 -154 -78z" />
<glyph unicode="&#xc4;" horiz-adv-x="1271" d="M-35 92l168 51l578 1200h153l201 -1200l147 -51l-38 -92h-490l-14 90l147 49l-51 283h-328l-133 -281l146 -49l-39 -92h-430zM504 553h239l-59 373zM539 1659q6 35 71.5 90t94.5 55t73.5 -55t38.5 -90t-70.5 -89t-93.5 -54t-74.5 54.5t-39.5 88.5zM877 1659q6 35 71 90 t94 55t74 -55t39 -90t-70.5 -89t-93.5 -54t-74.5 54.5t-39.5 88.5z" />
<glyph unicode="&#xc5;" horiz-adv-x="1271" d="M-35 92l168 51l578 1200h153l201 -1200l147 -51l-38 -92h-490l-14 90l147 49l-51 283h-328l-133 -281l146 -49l-39 -92h-430zM504 553h239l-59 373zM637 1612q9 50 102 129.5t135 79.5q26 0 67.5 -37t72 -88t24.5 -84q-9 -50 -102 -127.5t-135 -77.5q-26 0 -67.5 36.5 t-72 86.5t-24.5 82zM778 1612q-3 -15 16 -38.5t31 -23.5t40.5 23.5t31.5 38.5q1 15 -18 38t-31 23q-13 0 -41 -23.5t-29 -37.5z" />
<glyph unicode="&#xc6;" horiz-adv-x="1697" d="M-20 92l172 51l835 1045l-115 47l43 88h887l-86 -303h-149l-8 176h-314l-67 -440l-4 -4h208l78 153l94 -35l-59 -364l-106 -37l-29 154h-209l4 -5l-78 -491h322l63 176h152l-10 -303h-897l-19 88l154 53l43 281h-328l-223 -281l133 -49l-39 -92h-430zM664 553h241l60 373 z" />
<glyph unicode="&#xc7;" horiz-adv-x="1040" d="M104 465q0 85 17 197q62 329 243.5 505t432.5 176q56 0 108.5 -8t88 -19.5t63 -23.5t40.5 -20l13 -8l-86 -279h-164l6 219q-40 8 -92 8q-50 0 -94.5 -15t-91.5 -53.5t-84.5 -99t-70 -158t-52.5 -224.5q-16 -99 -16 -199q0 -352 253 -352q148 0 314 67l22 -110 q-159 -81 -354 -88l-41 -127q92 2 149.5 -45.5t41.5 -133.5q-11 -65 -60 -111t-113 -65.5t-135 -19.5q-102 0 -184 45l49 96q73 -25 129 -25q42 0 74 22.5t39 59.5q6 36 -17.5 57t-66.5 21q-40 0 -80 -10l-29 35l111 209q-173 25 -268 144.5t-95 332.5z" />
<glyph unicode="&#xc8;" horiz-adv-x="1034" d="M12 88l154 53l164 1041l-133 53l43 88h886l-86 -303h-149l-8 176h-314l-67 -440l-4 -4h209l77 153l95 -35l-60 -364l-106 -37l-29 154h-209l4 -5l-78 -491h322l63 176h152l-10 -303h-897zM473 1645l125 159l363 -237l-66 -97z" />
<glyph unicode="&#xc9;" horiz-adv-x="1034" d="M12 88l154 53l164 1041l-133 53l43 88h886l-86 -303h-149l-8 176h-314l-67 -440l-4 -4h209l77 153l95 -35l-60 -364l-106 -37l-29 154h-209l4 -5l-78 -491h322l63 176h152l-10 -303h-897zM557 1571l422 229l76 -174l-447 -153z" />
<glyph unicode="&#xca;" horiz-adv-x="1034" d="M12 88l154 53l164 1041l-133 53l43 88h886l-86 -303h-149l-8 176h-314l-67 -440l-4 -4h209l77 153l95 -35l-60 -364l-106 -37l-29 154h-209l4 -5l-78 -491h322l63 176h152l-10 -303h-897zM440 1536l289 258h129l201 -258l-101 -80l-194 160l-252 -160z" />
<glyph unicode="&#xcb;" horiz-adv-x="1034" d="M12 88l154 53l164 1041l-133 53l43 88h886l-86 -303h-149l-8 176h-314l-67 -440l-4 -4h209l77 153l95 -35l-60 -364l-106 -37l-29 154h-209l4 -5l-78 -491h322l63 176h152l-10 -303h-897zM451 1659q6 35 71 90t94 55t74 -55t39 -90t-70.5 -89t-93.5 -54t-74.5 54.5 t-39.5 88.5zM791 1659q6 35 71 90t94 55t74 -55t39 -90t-70.5 -89t-93.5 -54t-74.5 54.5t-39.5 88.5z" />
<glyph unicode="&#xcc;" horiz-adv-x="628" d="M12 88l152 53l164 1041l-131 53l43 88h462l15 -88l-150 -53l-164 -1041l134 -53l-45 -88h-461zM238 1645l124 159l363 -237l-66 -97z" />
<glyph unicode="&#xcd;" horiz-adv-x="628" d="M12 88l152 53l164 1041l-131 53l43 88h462l15 -88l-150 -53l-164 -1041l134 -53l-45 -88h-461zM260 1571l422 229l76 -174l-447 -153z" />
<glyph unicode="&#xce;" horiz-adv-x="628" d="M12 88l152 53l164 1041l-131 53l43 88h462l15 -88l-150 -53l-164 -1041l134 -53l-45 -88h-461zM188 1536l289 258h129l201 -258l-100 -80l-195 160l-252 -160z" />
<glyph unicode="&#xcf;" horiz-adv-x="628" d="M12 88l152 53l164 1041l-131 53l43 88h462l15 -88l-150 -53l-164 -1041l134 -53l-45 -88h-461zM205 1659q6 35 71.5 90t94.5 55t73.5 -55t38.5 -90t-70.5 -89t-93.5 -54t-74.5 54.5t-39.5 88.5zM545 1659q6 35 71.5 90t94.5 55t73.5 -55t38.5 -90t-70.5 -89t-93.5 -54 t-74.5 54.5t-39.5 88.5z" />
<glyph unicode="&#xd0;" horiz-adv-x="1224" d="M12 88l152 53l72 455l-144 4l25 141l141 4l70 437l-131 53l43 88h436q284 0 418.5 -114t134.5 -353q0 -73 -17 -192q-54 -342 -233 -503t-514 -161h-434zM401 125q46 -4 84 -4q132 0 221.5 50t152 170.5t95.5 322.5q19 117 19 198q0 182 -78.5 261t-239.5 79l-84 -2 l-71 -448l295 8l-31 -180l-289 8z" />
<glyph unicode="&#xd1;" horiz-adv-x="1261" d="M12 88l152 53l164 1041l-133 53l45 88h372l320 -846l110 705l-131 53l45 88h412l14 -88l-149 -53l-191 -1202h-196l-367 972l-127 -811l131 -53l-43 -88h-411zM567 1540q41 95 110.5 156t145.5 61q32 0 86 -28l92 -54q61 -35 154 78l84 -47q-43 -95 -112.5 -156 t-145.5 -61q-32 0 -84 29l-94 53q-60 36 -154 -78z" />
<glyph unicode="&#xd2;" d="M102 457q0 76 19 205q18 109 47 202t81.5 183.5t121.5 154t171 102.5t226 39q101 0 179.5 -25.5t129 -68.5t83 -105.5t46 -131.5t13.5 -150q0 -84 -17 -200q-18 -109 -48 -202t-82.5 -184t-121.5 -154.5t-171 -102.5t-226 -39q-100 0 -178.5 25t-129 67.5t-83.5 104.5 t-46.5 130.5t-13.5 149.5zM360 432q0 -326 213 -326q65 0 120 31t94 82t71 124.5t52 151t34 167.5q19 120 19 223q0 332 -215 332q-80 0 -144 -45.5t-107 -126.5t-71 -175t-45 -208q-21 -140 -21 -230zM551 1645l125 159l362 -237l-65 -97z" />
<glyph unicode="&#xd3;" d="M102 457q0 76 19 205q18 109 47 202t81.5 183.5t121.5 154t171 102.5t226 39q101 0 179.5 -25.5t129 -68.5t83 -105.5t46 -131.5t13.5 -150q0 -84 -17 -200q-18 -109 -48 -202t-82.5 -184t-121.5 -154.5t-171 -102.5t-226 -39q-100 0 -178.5 25t-129 67.5t-83.5 104.5 t-46.5 130.5t-13.5 149.5zM360 432q0 -326 213 -326q65 0 120 31t94 82t71 124.5t52 151t34 167.5q19 120 19 223q0 332 -215 332q-80 0 -144 -45.5t-107 -126.5t-71 -175t-45 -208q-21 -140 -21 -230zM653 1571l422 229l76 -174l-446 -153z" />
<glyph unicode="&#xd4;" d="M102 457q0 76 19 205q18 109 47 202t81.5 183.5t121.5 154t171 102.5t226 39q101 0 179.5 -25.5t129 -68.5t83 -105.5t46 -131.5t13.5 -150q0 -84 -17 -200q-18 -109 -48 -202t-82.5 -184t-121.5 -154.5t-171 -102.5t-226 -39q-100 0 -178.5 25t-129 67.5t-83.5 104.5 t-46.5 130.5t-13.5 149.5zM360 432q0 -326 213 -326q65 0 120 31t94 82t71 124.5t52 151t34 167.5q19 120 19 223q0 332 -215 332q-80 0 -144 -45.5t-107 -126.5t-71 -175t-45 -208q-21 -140 -21 -230zM547 1536l289 258h129l200 -258l-100 -80l-195 160l-252 -160z" />
<glyph unicode="&#xd5;" d="M102 457q0 76 19 205q18 109 47 202t81.5 183.5t121.5 154t171 102.5t226 39q101 0 179.5 -25.5t129 -68.5t83 -105.5t46 -131.5t13.5 -150q0 -84 -17 -200q-18 -109 -48 -202t-82.5 -184t-121.5 -154.5t-171 -102.5t-226 -39q-100 0 -178.5 25t-129 67.5t-83.5 104.5 t-46.5 130.5t-13.5 149.5zM360 432q0 -326 213 -326q65 0 120 31t94 82t71 124.5t52 151t34 167.5q19 120 19 223q0 332 -215 332q-80 0 -144 -45.5t-107 -126.5t-71 -175t-45 -208q-21 -140 -21 -230zM526 1540q41 95 110.5 156t145.5 61q32 0 86 -28l93 -54q60 -34 153 78 l84 -47q-43 -95 -112.5 -156t-145.5 -61q-32 0 -84 29l-94 53q-60 36 -154 -78z" />
<glyph unicode="&#xd6;" d="M102 457q0 76 19 205q18 109 47 202t81.5 183.5t121.5 154t171 102.5t226 39q101 0 179.5 -25.5t129 -68.5t83 -105.5t46 -131.5t13.5 -150q0 -84 -17 -200q-18 -109 -48 -202t-82.5 -184t-121.5 -154.5t-171 -102.5t-226 -39q-100 0 -178.5 25t-129 67.5t-83.5 104.5 t-46.5 130.5t-13.5 149.5zM360 432q0 -326 213 -326q65 0 120 31t94 82t71 124.5t52 151t34 167.5q19 120 19 223q0 332 -215 332q-80 0 -144 -45.5t-107 -126.5t-71 -175t-45 -208q-21 -140 -21 -230zM528 1659q6 35 71.5 90t94.5 55t74 -55t39 -90t-70.5 -89t-93.5 -54 t-75 54.5t-40 88.5zM868 1659q6 35 71.5 90t94.5 55t74 -55t39 -90t-70.5 -89t-93.5 -54t-75 54.5t-40 88.5z" />
<glyph unicode="&#xd7;" horiz-adv-x="1232" d="M295 416l309 258l-205 246l144 116l202 -243l308 258l98 -119l-305 -256l203 -248l-142 -117l-205 246l-307 -260z" />
<glyph unicode="&#xd8;" horiz-adv-x="1288" d="M23 -123l188 260q-84 116 -84 320q0 83 18 205q18 109 47.5 202t81.5 183.5t121.5 154t171.5 102.5t226 39q145 0 249 -55l168 234l136 -76l-189 -260q86 -121 86 -324q0 -91 -16 -200q-18 -109 -48 -202t-82.5 -184t-121.5 -154.5t-171 -102.5t-226 -39q-153 0 -252 55 l-170 -234zM385 432q0 -35 2 -51l545 754q-56 82 -160 82q-64 0 -118.5 -31t-93.5 -82t-70 -124t-50.5 -150.5t-33.5 -167.5q-21 -140 -21 -230zM436 190q55 -84 162 -84q65 0 120 31t94 82t71 124.5t52 151t34 167.5q18 114 18 223q0 10 -1 31.5t-1 31.5z" />
<glyph unicode="&#xd9;" horiz-adv-x="1267" d="M193 1235l47 88h471l16 -88l-152 -53l-90 -566q-30 -188 -30 -286q0 -112 35.5 -168t119.5 -56q147 0 230 122.5t125 387.5l88 566l-133 53l45 88h401l16 -88l-151 -53l-90 -566q-20 -126 -46.5 -219.5t-69 -175t-101 -132.5t-142.5 -80t-192 -29q-109 0 -184 23 t-118.5 69.5t-62 109t-18.5 150.5q0 101 31 284l88 566zM571 1645l125 159l363 -237l-66 -97z" />
<glyph unicode="&#xda;" horiz-adv-x="1267" d="M193 1235l47 88h471l16 -88l-152 -53l-90 -566q-30 -188 -30 -286q0 -112 35.5 -168t119.5 -56q147 0 230 122.5t125 387.5l88 566l-133 53l45 88h401l16 -88l-151 -53l-90 -566q-20 -126 -46.5 -219.5t-69 -175t-101 -132.5t-142.5 -80t-192 -29q-109 0 -184 23 t-118.5 69.5t-62 109t-18.5 150.5q0 101 31 284l88 566zM678 1571l422 229l76 -174l-447 -153z" />
<glyph unicode="&#xdb;" horiz-adv-x="1267" d="M193 1235l47 88h471l16 -88l-152 -53l-90 -566q-30 -188 -30 -286q0 -112 35.5 -168t119.5 -56q147 0 230 122.5t125 387.5l88 566l-133 53l45 88h401l16 -88l-151 -53l-90 -566q-20 -126 -46.5 -219.5t-69 -175t-101 -132.5t-142.5 -80t-192 -29q-109 0 -184 23 t-118.5 69.5t-62 109t-18.5 150.5q0 101 31 284l88 566zM551 1536l289 258h129l200 -258l-100 -80l-195 160l-251 -160z" />
<glyph unicode="&#xdc;" horiz-adv-x="1267" d="M193 1235l47 88h471l16 -88l-152 -53l-90 -566q-30 -188 -30 -286q0 -112 35.5 -168t119.5 -56q147 0 230 122.5t125 387.5l88 566l-133 53l45 88h401l16 -88l-151 -53l-90 -566q-20 -126 -46.5 -219.5t-69 -175t-101 -132.5t-142.5 -80t-192 -29q-109 0 -184 23 t-118.5 69.5t-62 109t-18.5 150.5q0 101 31 284l88 566zM578 1659q6 35 71 90t94 55t74 -55t39 -90t-70.5 -89t-93.5 -54t-74.5 54.5t-39.5 88.5zM915 1659q6 35 71.5 90t94.5 55t74 -55t39 -90t-70.5 -89t-93.5 -54t-75 54.5t-40 88.5z" />
<glyph unicode="&#xdd;" horiz-adv-x="1177" d="M170 1235l45 88h463l14 -88l-151 -53l149 -422l301 418l-145 57l47 88h414l14 -88l-152 -53l-415 -570l-74 -471l133 -53l-45 -88h-461l-16 88l149 53l68 430l-217 617zM616 1571l422 229l76 -174l-446 -153z" />
<glyph unicode="&#xde;" horiz-adv-x="1069" d="M39 88l151 53l164 1041l-131 53l43 88h463l14 -88l-149 -53l-21 -133h76q234 0 349.5 -69t115.5 -226q0 -26 -8 -88q-30 -181 -166.5 -277t-347.5 -96q-59 0 -137 4l-25 -156l133 -53l-45 -88h-461zM473 414q33 -2 123 -2q118 0 181.5 63.5t82.5 190.5q6 40 6 75 q0 95 -54.5 141t-184.5 46q-49 0 -74 -2z" />
<glyph unicode="&#xdf;" horiz-adv-x="1132" d="M-188 -444q252 325 272 456l127 787l-117 10l-2 102l144 11l8 55q15 85 38.5 152.5t50 112.5t62.5 78.5t69 51.5t75 28.5t75.5 13.5t75.5 3q62 0 128.5 -17t128 -49t97 -89.5t25.5 -128.5q-5 -39 -22.5 -73t-53.5 -69.5t-62 -56.5t-81 -62q-5 -4 -8.5 -6.5t-7.5 -5.5 q-51 -47 -74 -82.5t-29 -75.5q-5 -31 7 -59t26.5 -43t50.5 -49q46 -34 68.5 -51t57.5 -47.5t51 -52.5t33.5 -52.5t21.5 -63t0 -69.5q-30 -235 -353 -235q-52 0 -97.5 7.5t-84.5 23t-62 44t-24 66.5q0 42 12 88t24 71l11 25h141l19 -186q42 -10 74 -10q53 0 80.5 22.5 t33.5 71.5q10 55 -19.5 95t-90.5 77q-44 31 -76 60t-66 70.5t-47.5 91.5t-3.5 103q2 17 6 32t11.5 30.5t12.5 26t17.5 26.5t18 23.5t23.5 25t23.5 23.5t27.5 26.5t28 26.5q77 61 113 102t43 91q11 73 -27 117t-129 44q-31 0 -54 -6t-48.5 -27t-44.5 -57.5t-37.5 -100 t-32.5 -153.5l-154 -946q-11 -64 -71 -151.5t-116.5 -149.5t-199.5 -210q-9 -10 -14 -15z" />
<glyph unicode="&#xe0;" horiz-adv-x="974" d="M61 262q0 65 5.5 127.5t20 131.5t37 128.5t58.5 114.5t82 93.5t111 61.5t143 23q97 0 162 -49l35 49h170l-131 -811h127v-88q-138 -63 -222 -63q-139 0 -139 96v35q-64 -56 -131.5 -93.5t-118.5 -37.5q-91 0 -148.5 72t-60.5 210zM299 256q0 -72 14 -119q112 49 230 137 l80 486q-5 10 -14 21t-33 23.5t-52 12.5q-54 0 -96 -44.5t-65.5 -109t-38.5 -146t-20 -145t-5 -116.5zM317 1243l125 160l363 -238l-66 -96z" />
<glyph unicode="&#xe1;" horiz-adv-x="974" d="M61 262q0 65 5.5 127.5t20 131.5t37 128.5t58.5 114.5t82 93.5t111 61.5t143 23q97 0 162 -49l35 49h170l-131 -811h127v-88q-138 -63 -222 -63q-139 0 -139 96v35q-64 -56 -131.5 -93.5t-118.5 -37.5q-91 0 -148.5 72t-60.5 210zM299 256q0 -72 14 -119q112 49 230 137 l80 486q-5 10 -14 21t-33 23.5t-52 12.5q-54 0 -96 -44.5t-65.5 -109t-38.5 -146t-20 -145t-5 -116.5zM377 1169l422 230l75 -174l-446 -154z" />
<glyph unicode="&#xe2;" horiz-adv-x="974" d="M61 262q0 65 5.5 127.5t20 131.5t37 128.5t58.5 114.5t82 93.5t111 61.5t143 23q97 0 162 -49l35 49h170l-131 -811h127v-88q-138 -63 -222 -63q-139 0 -139 96v35q-64 -56 -131.5 -93.5t-118.5 -37.5q-91 0 -148.5 72t-60.5 210zM266 1135l289 258h129l201 -258 l-101 -80l-194 159l-252 -159zM299 256q0 -72 14 -119q112 49 230 137l80 486q-5 10 -14 21t-33 23.5t-52 12.5q-54 0 -96 -44.5t-65.5 -109t-38.5 -146t-20 -145t-5 -116.5z" />
<glyph unicode="&#xe3;" horiz-adv-x="1024" d="M61 262q0 65 5.5 127.5t20 131.5t37 128.5t58.5 114.5t82 93.5t111 61.5t143 23q97 0 162 -49l35 49h170l-131 -811h127v-88q-138 -63 -222 -63q-139 0 -139 96v35q-64 -56 -131.5 -93.5t-118.5 -37.5q-91 0 -148.5 72t-60.5 210zM264 1139q41 95 110.5 156t145.5 61 q30 0 86 -29l92 -53q61 -35 154 78l84 -47q-43 -96 -112.5 -157t-145.5 -61q-32 0 -84 29l-94 53q-61 36 -154 -77zM299 256q0 -72 14 -119q112 49 230 137l80 486q-5 10 -14 21t-33 23.5t-52 12.5q-54 0 -96 -44.5t-65.5 -109t-38.5 -146t-20 -145t-5 -116.5z" />
<glyph unicode="&#xe4;" horiz-adv-x="993" d="M61 262q0 65 5.5 127.5t20 131.5t37 128.5t58.5 114.5t82 93.5t111 61.5t143 23q97 0 162 -49l35 49h170l-131 -811h127v-88q-138 -63 -222 -63q-139 0 -139 96v35q-64 -56 -131.5 -93.5t-118.5 -37.5q-91 0 -148.5 72t-60.5 210zM268 1257q6 35 71.5 90.5t94.5 55.5 t74 -55.5t39 -90.5t-70.5 -89t-93.5 -54t-75 54.5t-40 88.5zM299 256q0 -72 14 -119q112 49 230 137l80 486q-5 10 -14 21t-33 23.5t-52 12.5q-54 0 -96 -44.5t-65.5 -109t-38.5 -146t-20 -145t-5 -116.5zM625 1257q6 35 71.5 90.5t94.5 55.5t73.5 -55.5t38.5 -90.5 t-70.5 -89t-93.5 -54t-74.5 54.5t-39.5 88.5z" />
<glyph unicode="&#xe5;" horiz-adv-x="974" d="M61 262q0 65 5.5 127.5t20 131.5t37 128.5t58.5 114.5t82 93.5t111 61.5t143 23q97 0 162 -49l35 49h170l-131 -811h127v-88q-138 -63 -222 -63q-139 0 -139 96v35q-64 -56 -131.5 -93.5t-118.5 -37.5q-91 0 -148.5 72t-60.5 210zM299 256q0 -72 14 -119q112 49 230 137 l80 486q-5 10 -14 21t-33 23.5t-52 12.5q-54 0 -96 -44.5t-65.5 -109t-38.5 -146t-20 -145t-5 -116.5zM383 1210q9 50 102.5 129.5t135.5 79.5q26 0 67.5 -37t71.5 -88t24 -84q-9 -50 -102 -127t-135 -77q-26 0 -67.5 36.5t-72 86t-24.5 81.5zM524 1210q-3 -14 15.5 -37.5 t31.5 -23.5t41 23.5t31 37.5q1 15 -18 38.5t-31 23.5q-13 0 -41 -24t-29 -38z" />
<glyph unicode="&#xe6;" horiz-adv-x="1359" d="M66 262q0 77 8 150t27 152.5t53.5 145t83 119t121.5 83.5t163 30q97 0 162 -49l35 49h131l-12 -78q94 78 231 78q121 0 184.5 -57.5t65.5 -153.5q-2 -38 -15.5 -71.5t-39.5 -60t-49.5 -45.5t-62.5 -38t-59.5 -27.5t-58.5 -23.5q-100 -39 -231 -59l-2 -5h2q-8 -58 -8 -125 q0 -106 24 -149q12 -4 41 -4q129 0 318 135l63 -96q-67 -68 -177.5 -125t-209.5 -57q-223 0 -276 174q-207 -174 -304 -174q-91 0 -148 72t-60 210zM303 256q0 -72 14 -119q112 49 230 137l82 486q-5 9 -14.5 20.5t-33.5 24t-53 12.5q-54 0 -96 -44.5t-65.5 -109t-38.5 -146 t-20 -145t-5 -116.5zM823 528q54 15 119 50q66 35 106.5 72t43.5 85q2 43 -15 74q-21 8 -55 8q-69 0 -119.5 -79.5t-79.5 -205.5v-4z" />
<glyph unicode="&#xe7;" horiz-adv-x="843" d="M53 -487l49 96q72 -25 129 -25q42 0 74 22.5t39 59.5q6 36 -17.5 57t-66.5 21q-40 0 -80 -10l-28 35l118 225q-186 52 -186 291q0 303 124 480t349 177q82 0 152 -17t99 -34l30 -17l-70 -243h-162v180q-18 6 -55 6q-50 0 -90.5 -41t-65.5 -102t-42 -137t-24 -141.5 t-7 -119.5q0 -110 26 -149q12 -4 39 -4q68 0 151 37.5t132 77.5l67 -101q-58 -56 -155 -103.5t-185 -53.5l-43 -138q92 2 149.5 -45t41.5 -133q-11 -65 -60 -111t-112.5 -65.5t-134.5 -19.5q-102 0 -185 45z" />
<glyph unicode="&#xe8;" horiz-adv-x="854" d="M61 285q0 112 18 210.5t56 181t93 141t132.5 91.5t171.5 33q141 0 215 -57.5t76 -153.5q-15 -233 -516 -325q-8 -66 -8 -130q0 -104 25 -149q20 -4 41 -4q128 0 317 135l63 -96q-67 -68 -177.5 -125t-209.5 -57q-142 0 -219.5 76.5t-77.5 228.5zM260 1243l125 160 l363 -238l-66 -96zM328 532q32 6 75.5 24t86.5 44t73.5 62.5t32.5 72.5q3 46 -14 76q-21 6 -56 6q-69 0 -119 -79t-79 -206z" />
<glyph unicode="&#xe9;" horiz-adv-x="854" d="M61 285q0 112 18 210.5t56 181t93 141t132.5 91.5t171.5 33q141 0 215 -57.5t76 -153.5q-15 -233 -516 -325q-8 -66 -8 -130q0 -104 25 -149q20 -4 41 -4q128 0 317 135l63 -96q-67 -68 -177.5 -125t-209.5 -57q-142 0 -219.5 76.5t-77.5 228.5zM319 1169l422 230 l76 -174l-446 -154zM328 532q32 6 75.5 24t86.5 44t73.5 62.5t32.5 72.5q3 46 -14 76q-21 6 -56 6q-69 0 -119 -79t-79 -206z" />
<glyph unicode="&#xea;" horiz-adv-x="860" d="M61 285q0 112 18 210.5t56 181t93 141t132.5 91.5t171.5 33q141 0 215 -57.5t76 -153.5q-15 -233 -516 -325q-8 -66 -8 -130q0 -104 25 -149q20 -4 41 -4q128 0 317 135l63 -96q-67 -68 -177.5 -125t-209.5 -57q-142 0 -219.5 76.5t-77.5 228.5zM211 1135l289 258h129 l200 -258l-100 -80l-194 159l-252 -159zM328 532q32 6 75.5 24t86.5 44t73.5 62.5t32.5 72.5q3 46 -14 76q-21 6 -56 6q-69 0 -119 -79t-79 -206z" />
<glyph unicode="&#xeb;" horiz-adv-x="919" d="M61 285q0 112 18 210.5t56 181t93 141t132.5 91.5t171.5 33q141 0 215 -57.5t76 -153.5q-15 -233 -516 -325q-8 -66 -8 -130q0 -104 25 -149q20 -4 41 -4q128 0 317 135l63 -96q-67 -68 -177.5 -125t-209.5 -57q-142 0 -219.5 76.5t-77.5 228.5zM252 1257q6 35 71.5 90.5 t94.5 55.5t73.5 -55.5t38.5 -90.5t-70 -89t-93 -54t-75 54.5t-40 88.5zM328 532q32 6 75.5 24t86.5 44t73.5 62.5t32.5 72.5q3 46 -14 76q-21 6 -56 6q-69 0 -119 -79t-79 -206zM608 1257q6 35 71.5 90.5t94.5 55.5t74 -55.5t39 -90.5t-70.5 -89t-93.5 -54t-75 54.5 t-40 88.5z" />
<glyph unicode="&#xec;" horiz-adv-x="593" d="M102 811v94l402 37l-131 -811h127v-88q-137 -63 -221 -63q-74 0 -114 32.5t-30 104.5l109 663zM121 1243l125 160l362 -238l-65 -96z" />
<glyph unicode="&#xed;" horiz-adv-x="593" d="M102 811v94l402 37l-131 -811h127v-88q-137 -63 -221 -63q-74 0 -114 32.5t-30 104.5l109 663zM201 1169l422 230l75 -174l-446 -154z" />
<glyph unicode="&#xee;" horiz-adv-x="593" d="M82 1135l289 258h129l200 -258l-100 -80l-194 159l-252 -159zM102 811v94l402 37l-131 -811h127v-88q-137 -63 -221 -63q-74 0 -114 32.5t-30 104.5l109 663z" />
<glyph unicode="&#xef;" horiz-adv-x="593" d="M102 811v94l402 37l-131 -811h127v-88q-137 -63 -221 -63q-74 0 -114 32.5t-30 104.5l109 663zM133 1257q6 35 71.5 90.5t94.5 55.5t74 -55.5t39 -90.5t-70.5 -89t-93.5 -54t-75 54.5t-40 88.5zM489 1257q6 35 71.5 90.5t94.5 55.5t74 -55.5t39 -90.5t-70.5 -89 t-93.5 -54t-75 54.5t-40 88.5z" />
<glyph unicode="&#xf0;" horiz-adv-x="929" d="M68 330q7 135 39 245t89 193t145.5 128.5t201.5 45.5q50 0 71 -6q-21 100 -77 180l-125 -96l-76 74l106 125q-46 39 -153 94l69 104q84 -20 199 -88l145 156l119 -115l-153 -135q121 -124 163 -278t29 -371q-8 -132 -40 -239.5t-89.5 -191t-147.5 -129.5t-206 -46 q-155 0 -236.5 84.5t-72.5 265.5zM299 354q-11 -180 20 -237q26 -11 64 -11q59 0 106.5 44.5t76 116.5t45 147.5t22.5 152.5q12 151 -25 236q-24 12 -61 12q-59 0 -106.5 -45t-76 -117t-44.5 -147.5t-21 -151.5z" />
<glyph unicode="&#xf1;" horiz-adv-x="974" d="M104 811v94l402 37l-23 -137q77 58 163 97.5t159 39.5q86 0 128 -44.5t30 -121.5l-105 -645h127v-88q-137 -63 -221 -63q-74 0 -114 32.5t-29 104.5l106 647q-49 -7 -124 -38t-144 -79l-105 -647h-237l129 780zM326 1139q41 95 110.5 156t145.5 61q30 0 86 -29l92 -53 q60 -34 153 78l84 -47q-43 -96 -112.5 -157t-145.5 -61q-32 0 -84 29l-94 53q-60 36 -153 -77z" />
<glyph unicode="&#xf2;" horiz-adv-x="929" d="M61 285q0 305 127.5 481t368.5 176q317 0 317 -303q0 -307 -126.5 -483t-368.5 -176q-318 0 -318 305zM297 1243l125 160l362 -238l-65 -96zM299 276q0 -57 9 -99.5t18 -57.5q26 -13 59 -13q56 0 101 40.5t72.5 101.5t46 137t25.5 141t7 119q0 57 -9 100t-18 58 q-24 12 -59 12q-56 0 -101 -40.5t-72.5 -101.5t-46 -137t-25.5 -141t-7 -119z" />
<glyph unicode="&#xf3;" horiz-adv-x="950" d="M61 285q0 305 127.5 481t368.5 176q317 0 317 -303q0 -307 -126.5 -483t-368.5 -176q-318 0 -318 305zM299 276q0 -57 9 -99.5t18 -57.5q26 -13 59 -13q56 0 101 40.5t72.5 101.5t46 137t25.5 141t7 119q0 57 -9 100t-18 58q-24 12 -59 12q-56 0 -101 -40.5t-72.5 -101.5 t-46 -137t-25.5 -141t-7 -119zM397 1169l422 230l76 -174l-446 -154z" />
<glyph unicode="&#xf4;" horiz-adv-x="940" d="M61 285q0 305 127.5 481t368.5 176q317 0 317 -303q0 -307 -126.5 -483t-368.5 -176q-318 0 -318 305zM266 1135l289 258h129l201 -258l-101 -80l-194 159l-252 -159zM299 276q0 -57 9 -99.5t18 -57.5q26 -13 59 -13q56 0 101 40.5t72.5 101.5t46 137t25.5 141t7 119 q0 57 -9 100t-18 58q-24 12 -59 12q-56 0 -101 -40.5t-72.5 -101.5t-46 -137t-25.5 -141t-7 -119z" />
<glyph unicode="&#xf5;" horiz-adv-x="970" d="M61 285q0 305 127.5 481t368.5 176q317 0 317 -303q0 -307 -126.5 -483t-368.5 -176q-318 0 -318 305zM244 1139q41 95 110.5 156t145.5 61q30 0 86 -29l92 -53q60 -34 153 78l84 -47q-43 -96 -112.5 -157t-145.5 -61q-32 0 -84 29l-94 53q-60 36 -153 -77zM299 276 q0 -57 9 -99.5t18 -57.5q26 -13 59 -13q56 0 101 40.5t72.5 101.5t46 137t25.5 141t7 119q0 57 -9 100t-18 58q-24 12 -59 12q-56 0 -101 -40.5t-72.5 -101.5t-46 -137t-25.5 -141t-7 -119z" />
<glyph unicode="&#xf6;" horiz-adv-x="980" d="M61 285q0 305 127.5 481t368.5 176q317 0 317 -303q0 -307 -126.5 -483t-368.5 -176q-318 0 -318 305zM289 1257q6 35 71.5 90.5t94.5 55.5t73.5 -55.5t38.5 -90.5t-70.5 -89t-93.5 -54t-74.5 54.5t-39.5 88.5zM299 276q0 -57 9 -99.5t18 -57.5q26 -13 59 -13 q56 0 101 40.5t72.5 101.5t46 137t25.5 141t7 119q0 57 -9 100t-18 58q-24 12 -59 12q-56 0 -101 -40.5t-72.5 -101.5t-46 -137t-25.5 -141t-7 -119zM645 1257q6 35 71.5 90.5t94.5 55.5t74 -55.5t39 -90.5t-70.5 -89t-93.5 -54t-75 54.5t-40 88.5z" />
<glyph unicode="&#xf7;" horiz-adv-x="1236" d="M272 594l29 164h817l-28 -164h-818zM496 346q6 35 71.5 90.5t94.5 55.5t73.5 -55.5t38.5 -90.5t-70.5 -89t-93.5 -54t-74.5 54.5t-39.5 88.5zM612 1004q6 35 71.5 90t94.5 55t74 -55t39 -90t-70.5 -89.5t-93.5 -54.5t-75 55t-40 89z" />
<glyph unicode="&#xf8;" horiz-adv-x="980" d="M12 -98l127 184q-53 70 -53 199q0 305 127.5 481t368.5 176q86 0 151 -24l117 167l123 -65l-129 -182q55 -73 55 -199q0 -307 -127 -483t-369 -176q-97 0 -159 26l-119 -170zM324 324l319 460l-8 19q-24 12 -60 12q-63 0 -112 -50t-77 -130t-43 -157.5t-19 -153.5z M340 143q4 -18 10 -24q26 -13 60 -13q64 0 113 52t76.5 134t42 161t17.5 155z" />
<glyph unicode="&#xf9;" horiz-adv-x="1060" d="M115 811v94l403 37l-129 -784q49 7 124.5 37.5t143.5 78.5l105 648h237l-131 -791h129v-88q-137 -63 -221 -63q-74 0 -113.5 32.5t-29.5 104.5q-77 -58 -163 -97.5t-159 -39.5q-86 0 -127.5 44t-29.5 121l102 635zM371 1243l125 160l362 -238l-65 -96z" />
<glyph unicode="&#xfa;" horiz-adv-x="1060" d="M115 811v94l403 37l-129 -784q49 7 124.5 37.5t143.5 78.5l105 648h237l-131 -791h129v-88q-137 -63 -221 -63q-74 0 -113.5 32.5t-29.5 104.5q-77 -58 -163 -97.5t-159 -39.5q-86 0 -127.5 44t-29.5 121l102 635zM451 1169l421 230l76 -174l-446 -154z" />
<glyph unicode="&#xfb;" horiz-adv-x="1060" d="M115 811v94l403 37l-129 -784q49 7 124.5 37.5t143.5 78.5l105 648h237l-131 -791h129v-88q-137 -63 -221 -63q-74 0 -113.5 32.5t-29.5 104.5q-77 -58 -163 -97.5t-159 -39.5q-86 0 -127.5 44t-29.5 121l102 635zM342 1135l289 258h129l201 -258l-101 -80l-194 159 l-252 -159z" />
<glyph unicode="&#xfc;" horiz-adv-x="1060" d="M115 811v94l403 37l-129 -784q49 7 124.5 37.5t143.5 78.5l105 648h237l-131 -791h129v-88q-137 -63 -221 -63q-74 0 -113.5 32.5t-29.5 104.5q-77 -58 -163 -97.5t-159 -39.5q-86 0 -127.5 44t-29.5 121l102 635zM348 1257q6 35 71.5 90.5t94.5 55.5t74 -55.5t39 -90.5 t-70.5 -89t-93.5 -54t-75 54.5t-40 88.5zM705 1257q6 35 71 90.5t94 55.5t74 -55.5t39 -90.5t-70.5 -89t-93.5 -54t-74.5 54.5t-39.5 88.5z" />
<glyph unicode="&#xfd;" horiz-adv-x="929" d="M-250 -303l96 67l136 -126q50 47 123.5 134t138.5 177v2l-60 819l-166 37v100l383 35l54 -723q143 227 231 524l-141 121l49 78q51 0 93.5 -5.5t85 -21.5t69.5 -42t39 -71t2 -104q-25 -138 -143.5 -343.5t-288.5 -428.5q-73 -97 -132 -168t-124 -139.5t-120.5 -104.5 t-97.5 -36q-92 0 -157.5 62.5t-69.5 156.5zM332 1169l422 230l75 -174l-446 -154z" />
<glyph unicode="&#xfe;" horiz-adv-x="980" d="M18 -502l295 1757l-157 35v88l417 39l-104 -606q62 56 129.5 93.5t118.5 37.5q93 0 149.5 -72.5t59.5 -210.5q0 -66 -5 -127.5t-18.5 -131.5t-35.5 -128.5t-58.5 -113.5t-84 -93.5t-116 -61.5t-151.5 -23q-48 0 -123 16l-82 -498h-234zM356 125q52 -19 105 -19 q54 0 96.5 44.5t66 108.5t39 145.5t20.5 145t5 116.5q0 67 -14 118q-125 -58 -232 -137z" />
<glyph unicode="&#xff;" horiz-adv-x="929" d="M-250 -303l96 67l136 -126q50 47 123.5 134t138.5 177v2l-60 819l-166 37v100l383 35l54 -723q143 227 231 524l-141 121l49 78q51 0 93.5 -5.5t85 -21.5t69.5 -42t39 -71t2 -104q-25 -138 -143.5 -343.5t-288.5 -428.5q-73 -97 -132 -168t-124 -139.5t-120.5 -104.5 t-97.5 -36q-92 0 -157.5 62.5t-69.5 156.5zM223 1257q6 35 71.5 90.5t94.5 55.5t74 -55.5t39 -90.5t-70.5 -89t-93.5 -54t-75 54.5t-40 88.5zM580 1257q6 35 71 90.5t94 55.5t74 -55.5t39 -90.5t-70.5 -89t-93.5 -54t-74.5 54.5t-39.5 88.5z" />
<glyph unicode="&#x152;" horiz-adv-x="1699" d="M102 457q0 76 19 205q18 109 46.5 202t80 184t119.5 154t168.5 102t222.5 39q85 0 160 -20h874l-86 -303h-150l-8 176h-440q90 -120 90 -334q0 -54 -6 -110h180l78 153l94 -35l-59 -364l-107 -37l-28 154h-176q-62 -333 -236 -496h451l63 176h152l-11 -303h-882 q-85 -20 -168 -20q-98 0 -174.5 25t-126 67.5t-81.5 104.5t-45.5 130.5t-13.5 149.5zM360 432q0 -326 203 -326q78 0 141 45.5t105.5 127t70 175.5t44.5 208q18 114 18 223q0 332 -205 332q-77 0 -139.5 -45.5t-104.5 -126.5t-69 -175t-43 -208q-21 -140 -21 -230z" />
<glyph unicode="&#x153;" horiz-adv-x="1392" d="M59 285q0 305 127.5 481t368.5 176q171 0 252 -90q111 90 264 90q141 0 215 -57.5t76 -153.5q-2 -38 -15.5 -71.5t-39.5 -60t-49.5 -45.5t-62.5 -38t-59.5 -27.5t-58.5 -23.5q-102 -40 -227 -59l-8 -39q-4 -50 -4 -91q0 -104 24 -147l-2 -2q12 -4 43 -4q129 0 318 135 l63 -96q-67 -68 -177.5 -125t-209.5 -57q-158 0 -233 90q-116 -90 -287 -90q-318 0 -318 305zM297 276q0 -57 9 -99.5t18 -57.5q26 -13 59 -13q56 0 101 40.5t72.5 101.5t46 137t25.5 141t7 119q0 57 -9 100t-18 58q-24 12 -59 12q-56 0 -101 -40.5t-72.5 -101.5t-46 -137 t-25.5 -141t-7 -119zM866 530q58 15 119 48q66 35 106.5 72t43.5 85q2 43 -15 74q-21 8 -55 8q-68 0 -118 -77t-79 -199q0 -2 -1 -6t-1 -5z" />
<glyph unicode="&#x178;" horiz-adv-x="1177" d="M170 1235l45 88h463l14 -88l-151 -53l149 -422l301 418l-145 57l47 88h414l14 -88l-152 -53l-415 -570l-74 -471l133 -53l-45 -88h-461l-16 88l149 53l68 430l-217 617zM502 1659q6 35 71.5 90t94.5 55t73.5 -55t38.5 -90t-70.5 -89t-93.5 -54t-74.5 54.5t-39.5 88.5z M840 1659q6 35 71.5 90t94.5 55t73.5 -55t38.5 -90t-70.5 -89t-93.5 -54t-74.5 54.5t-39.5 88.5z" />
<glyph unicode="&#x2c6;" horiz-adv-x="1069" d="M301 1135l289 258h129l201 -258l-101 -80l-194 159l-252 -159z" />
<glyph unicode="&#x2dc;" horiz-adv-x="1179" d="M334 1139q41 95 110.5 156t145.5 61q30 0 86 -29l92 -53q61 -35 154 78l84 -47q-43 -96 -112.5 -157t-145.5 -61q-32 0 -84 29l-95 53q-60 36 -153 -77z" />
<glyph unicode="&#x2000;" horiz-adv-x="910" />
<glyph unicode="&#x2001;" horiz-adv-x="1821" />
<glyph unicode="&#x2002;" horiz-adv-x="910" />
<glyph unicode="&#x2003;" horiz-adv-x="1821" />
<glyph unicode="&#x2004;" horiz-adv-x="607" />
<glyph unicode="&#x2005;" horiz-adv-x="455" />
<glyph unicode="&#x2006;" horiz-adv-x="303" />
<glyph unicode="&#x2007;" horiz-adv-x="303" />
<glyph unicode="&#x2008;" horiz-adv-x="227" />
<glyph unicode="&#x2009;" horiz-adv-x="364" />
<glyph unicode="&#x200a;" horiz-adv-x="101" />
<glyph unicode="&#x2010;" horiz-adv-x="886" d="M104 385l25 141l678 19l-31 -180z" />
<glyph unicode="&#x2011;" horiz-adv-x="886" d="M104 385l25 141l678 19l-31 -180z" />
<glyph unicode="&#x2012;" horiz-adv-x="886" d="M104 385l25 141l678 19l-31 -180z" />
<glyph unicode="&#x2013;" horiz-adv-x="1337" d="M104 383l25 143l1128 19l-32 -180z" />
<glyph unicode="&#x2014;" horiz-adv-x="1935" d="M104 383l23 143l1728 19l-30 -180z" />
<glyph unicode="&#x2018;" horiz-adv-x="430" d="M156 1143q6 38 30 84t84.5 110t147.5 119l53 -59q-93 -86 -100 -152q-1 -9 31.5 -53.5t29.5 -67.5q-6 -32 -72 -88.5t-94 -56.5q-17 0 -45.5 26t-49.5 66t-15 72z" />
<glyph unicode="&#x2019;" horiz-adv-x="430" d="M154 1038q93 86 100 152q1 9 -31.5 53.5t-29.5 67.5q6 33 72 89t93 56q29 0 74 -58.5t37 -105.5q-6 -38 -30 -84t-84.5 -110t-147.5 -119z" />
<glyph unicode="&#x201a;" horiz-adv-x="491" d="M41 -150q93 86 100 152q1 9 -31.5 53.5t-29.5 67.5q6 32 72 88.5t94 56.5q17 0 45.5 -26t49.5 -66t15 -72q-6 -38 -30 -84t-84.5 -110t-147.5 -119z" />
<glyph unicode="&#x201c;" horiz-adv-x="747" d="M156 1143q6 38 30 84t84.5 110t147.5 119l53 -59q-93 -86 -100 -152q-1 -9 31.5 -53.5t29.5 -67.5q-6 -32 -72 -88.5t-94 -56.5q-17 0 -45.5 26t-49.5 66t-15 72zM473 1143q6 38 30 84t84.5 110t147.5 119l53 -59q-93 -86 -100 -152q-1 -9 32 -53.5t30 -67.5 q-6 -32 -72 -88.5t-94 -56.5q-29 0 -74 58.5t-37 105.5z" />
<glyph unicode="&#x201d;" horiz-adv-x="747" d="M154 1038q93 86 100 152q1 9 -31.5 53.5t-29.5 67.5q6 33 72 89t93 56q29 0 74 -58.5t37 -105.5q-6 -38 -30 -84t-84.5 -110t-147.5 -119zM471 1038q93 86 100 152q1 9 -31.5 53.5t-29.5 67.5q6 32 72 88.5t94 56.5q17 0 45.5 -26t49.5 -66t15 -72q-6 -38 -30 -84 t-84.5 -110t-147.5 -119z" />
<glyph unicode="&#x201e;" horiz-adv-x="821" d="M41 -150q93 86 100 152q1 9 -31.5 53.5t-29.5 67.5q6 32 72 88.5t94 56.5q17 0 45.5 -26t49.5 -66t15 -72q-6 -38 -30 -84t-84.5 -110t-147.5 -119zM371 -150q93 86 100 152q1 9 -31.5 53.5t-29.5 67.5q6 33 72 89t93 56q29 0 74 -58.5t37 -105.5q-6 -38 -30 -84 t-84.5 -110t-147.5 -119z" />
<glyph unicode="&#x2022;" horiz-adv-x="630" d="M160 717q8 44 72 112t138 118t109 50q34 0 89 -50t94.5 -118t31.5 -112q-7 -45 -70 -112.5t-135.5 -116t-107.5 -48.5t-91.5 49.5t-97 117t-32.5 110.5z" />
<glyph unicode="&#x2026;" horiz-adv-x="1310" d="M78 123q6 35 71.5 90t94.5 55t73.5 -55t38.5 -90t-70 -89t-93 -54t-75 54.5t-40 88.5zM492 123q6 35 71 90t94 55t74 -55t39 -90t-70.5 -89t-93.5 -54t-74.5 54.5t-39.5 88.5zM905 123q6 35 71.5 90t94.5 55t74 -55t39 -90t-70.5 -89t-93.5 -54t-75 54.5t-40 88.5z" />
<glyph unicode="&#x202f;" horiz-adv-x="364" />
<glyph unicode="&#x2039;" horiz-adv-x="776" d="M135 428l12 66l508 409l90 -90l-354 -352l230 -352l-121 -91z" />
<glyph unicode="&#x203a;" horiz-adv-x="776" d="M31 109l354 352l-229 352l120 90l365 -409l-12 -66l-508 -410z" />
<glyph unicode="&#x205f;" horiz-adv-x="455" />
<glyph unicode="&#x20ac;" horiz-adv-x="1230" d="M100 471l21 115l133 2q6 69 20 127l-131 4l21 115l143 2q84 255 258.5 381t409.5 126q57 0 112 -8t91.5 -19.5t65.5 -23.5t42 -20l14 -8l-96 -285h-162l7 217q-40 8 -101 8q-264 0 -379 -362l357 8l-27 -150l-364 9l-9 -47q-9 -53 -10 -68l365 8l-27 -149l-348 8 q0 -175 71.5 -258.5t200.5 -83.5q57 0 103 8l69 217h162l-2 -285q-18 -9 -50 -22t-128.5 -35t-190.5 -22q-233 0 -364 121.5t-131 365.5z" />
<glyph unicode="&#x2122;" horiz-adv-x="1179" d="M143 1229l17 188h454l-45 -188h-86l2 102h-45l-55 -317l70 -23l-25 -69h-264l2 69l76 19l57 321h-43l-33 -102h-82zM512 922v71l80 19l92 321l-68 17l25 67h209l20 -194l93 194h206l-2 -71l-69 -15l-8 -319l65 -21l-20 -69h-254l2 69l57 19l6 178l-94 -207h-82l-27 219 l-53 -188l58 -21l-25 -69h-211z" />
<glyph unicode="&#xe000;" horiz-adv-x="942" d="M0 0v942h942v-942h-942z" />
</font>
</defs>
</svg>
