<?xml version="1.0" standalone="no"?>
<!DOCTYPE svg PUBLIC "-//W3C//DTD SVG 1.1//EN" "http://www.w3.org/Graphics/SVG/1.1/DTD/svg11.dtd" >
<svg xmlns="http://www.w3.org/2000/svg">
<metadata></metadata>
<defs>
<font id="quiroga_serif_prodemiBdIt" horiz-adv-x="1005" >
<font-face units-per-em="2048" ascent="1536" descent="-512" />
<missing-glyph horiz-adv-x="573" />
<glyph unicode="&#x30;&#x2f;&#x30;" horiz-adv-x="1388" d="M164 31l1071 1263h151l-1077 -1263h-145zM242 1012q22 129 104 215t213 86q88 0 142 -42.5t69 -109t0 -149.5q-23 -131 -104.5 -215t-212.5 -84q-67 0 -115 23.5t-71 64.5t-31 95t6 116zM397 1012q-16 -84 1.5 -137.5t74.5 -53.5q108 0 141 191q33 192 -75 192 q-57 0 -93 -54t-49 -138zM760 299q22 129 104 215t213 86q88 0 142 -42.5t69 -109t0 -149.5q-23 -131 -104.5 -215t-212.5 -84q-67 0 -115 23.5t-71 64.5t-31 95.5t6 115.5zM915 299q-16 -84 1.5 -137t74.5 -53q109 0 142 190q33 193 -76 193q-57 0 -93 -54.5t-49 -138.5z " />
<glyph unicode="&#x31;&#x2f;&#x34;" horiz-adv-x="1239" d="M98 31l1071 1263h152l-1077 -1263h-146zM207 721v72l143 30l62 353l-115 -37l-23 75l197 97h107l-86 -490l112 -28l-22 -72h-375zM647 203l301 397l135 -14l-61 -348h82l-19 -99h-81l-23 -129h-133l22 129h-211zM791 238h98l31 176z" />
<glyph unicode="&#x31;&#x2f;&#x32;" horiz-adv-x="1286" d="M98 31l1071 1263h152l-1077 -1263h-146zM207 721v72l143 30l62 353l-115 -37l-23 75l197 97h107l-86 -490l112 -28l-22 -72h-375zM688 10v86q188 133 253.5 192.5t76.5 125.5q16 94 -49 94q-12 0 -23.5 -1.5t-17.5 -2.5l-6 -2l-39 -115h-99l9 158q12 6 32.5 15t76.5 24.5 t102 15.5q103 0 144 -47t28 -125q-16 -97 -140 -198q-33 -26 -127 -93l-30 -20h149l41 102h90l-22 -209h-449z" />
<glyph unicode="&#x33;&#x2f;&#x34;" horiz-adv-x="1245" d="M104 31l1072 1263h151l-1077 -1263h-146zM199 735l32 88q47 -14 117 -14q101 0 117 76q8 39 -7 62.5t-50 23.5h-64l14 86h66q42 0 65 52q23 51 5 88q-13 26 -43 26l-33 -4l-33 -91h-88l6 150q72 37 170 37q57 0 97.5 -17t59.5 -43.5t24 -60t-5.5 -66.5t-33.5 -62.5 t-54 -47.5q33 -15 51.5 -49.5t8.5 -85.5q-16 -79 -87 -124.5t-196 -45.5q-38 0 -73 5.5t-51 11.5zM653 203l301 397l136 -14l-62 -348h82l-18 -99h-82l-23 -129h-133l23 129h-211zM797 238h98l31 176z" />
<glyph unicode="&#xfb01;" horiz-adv-x="999" d="M-190 -459q256 343 274 459l135 813l-115 10q0 14 -1 43t-1 45l138 11l10 59q17 106 47.5 185.5t66 126t81.5 75.5t88 39t92 10q89 0 183.5 -25.5t149.5 -50.5l-61 -219h-125l4 168q-62 25 -145 25q-47 0 -82 -28.5t-67 -111t-54 -223.5l-4 -32h283l196 12l-133 -819h125 v-76q-123 -57 -197 -57q-139 0 -118 126l116 707q-48 0 -144.5 1t-145.5 1l-136 -819q-6 -35 -20 -70t-44 -79.5t-54 -77t-77.5 -91.5t-84 -92t-101.5 -108z" />
<glyph unicode="&#xfb02;" horiz-adv-x="1058" d="M-190 -459q256 343 274 459l135 813l-115 10q0 14 -1 43t-1 45l138 11l10 59q21 121 58 208.5t86 135.5t102 70t114 22q77 0 178 -24q16 0 48 4l194 20l-213 -1304h125v-76q-123 -57 -199 -57q-137 0 -116 126l192 1166q-125 47 -211 47q-68 0 -108.5 -84t-71.5 -283 l-4 -32l182 2v-109q-34 0 -100 1t-100 1l-136 -819q-6 -35 -20 -70t-44 -79.5t-54 -77t-77.5 -91.5t-84 -92t-101.5 -108z" />
<glyph unicode="&#xfb03;" horiz-adv-x="1513" d="M-190 -459q256 343 274 459l135 813l-115 10q0 14 -1 43t-1 45l138 11l10 59q21 120 56 208t78.5 136t89 70t95.5 22q104 0 205 -49l-61 -217h-119l4 164q-29 4 -49 -6q-72 -32 -121 -357l-4 -32l328 2l10 59q23 131 63 221t92.5 135t105 62.5t116.5 17.5q88 0 182 -25.5 t149 -50.5l-61 -219h-123l4 168q-62 25 -145 25q-47 0 -82 -28.5t-67 -111t-54 -223.5l-6 -32h283l198 12l-135 -819h127v-76q-123 -57 -199 -57q-137 0 -116 126l116 707q-49 0 -145.5 1t-144.5 1l-136 -819q-6 -34 -20 -69t-45.5 -80.5t-54 -76t-78 -92.5t-82.5 -91.5 t-101 -108.5l-79 63q256 343 274 459l133 813q-54 0 -161.5 1t-163.5 1l-136 -819q-10 -51 -38.5 -105.5t-86.5 -126.5t-108.5 -127.5t-147.5 -158.5z" />
<glyph unicode="&#xfb04;" horiz-adv-x="1566" d="M-190 -459q256 343 274 459l135 813l-115 10q0 14 -1 43t-1 45l138 11l10 59q21 120 56 208t78.5 136t89 70t95.5 22q104 0 205 -49l-61 -217h-119l4 164q-29 4 -49 -6q-72 -32 -121 -357l-4 -32l328 2l10 59q21 121 58 208.5t86 135.5t102 70t114 22q77 0 178 -24 q20 0 48 4l196 20l-215 -1304h127v-76q-125 -57 -199 -57q-139 0 -118 126l194 1166q-125 47 -213 47q-68 0 -108 -84t-70 -283l-6 -32l182 2v-109q-33 0 -99 1t-99 1l-136 -819q-6 -34 -20 -69t-45.5 -80.5t-54 -76t-78 -92.5t-82.5 -91.5t-101 -108.5l-79 63 q256 343 274 459l133 813q-54 0 -161.5 1t-163.5 1l-136 -819q-6 -35 -20 -70t-44 -79.5t-54 -77t-77.5 -91.5t-84 -92t-101.5 -108z" />
<glyph horiz-adv-x="2048" />
<glyph horiz-adv-x="2048" />
<glyph unicode="&#xd;" horiz-adv-x="2048" />
<glyph unicode=" "  horiz-adv-x="573" />
<glyph unicode="&#x09;" horiz-adv-x="573" />
<glyph unicode="&#xa0;" horiz-adv-x="573" />
<glyph unicode="!" horiz-adv-x="538" d="M63 109q4 29 63.5 79t84.5 50q23 0 64.5 -50t37.5 -79q-6 -29 -65 -79t-82 -50q-25 0 -67 50t-36 79zM172 403l133 990l223 24l-225 -999z" />
<glyph unicode="&#x22;" horiz-adv-x="649" d="M182 1034l33 387h188l-108 -387h-113zM444 1034l33 387h189l-109 -387h-113z" />
<glyph unicode="#" horiz-adv-x="1288" d="M96 387l51 141h238l94 273h-237l47 141h239l131 381h156l-131 -381h227l131 381h158l-131 -381h236l-48 -141h-237l-94 -273h237l-51 -141h-233l-134 -387h-155l131 387h-227l-132 -387h-157l133 387h-242zM543 528h227l92 273h-227z" />
<glyph unicode="$" horiz-adv-x="1001" d="M133 156l66 225h123l-7 -158q54 -24 148 -24q193 0 219 157q7 44 -1 77t-36 59t-59 43.5t-86 42.5q-95 42 -147 87t-73 113.5t-4 167.5q19 110 110.5 191t221.5 98l27 231h160l-56 -231q61 -7 118 -25.5t83 -33.5l27 -15l-66 -225h-125l8 160q-51 22 -135 22 q-81 0 -134 -46.5t-66 -117.5q-13 -72 24.5 -117t126.5 -85q48 -21 82.5 -39t67.5 -39.5t54 -43.5t38.5 -49.5t24.5 -59t7 -70.5t-8 -86q-21 -115 -103 -189t-226 -92l-25 -227h-162l51 221q-72 4 -139 23.5t-98 36.5z" />
<glyph unicode="&#x26;" horiz-adv-x="1310" d="M113 326q20 119 102.5 206t190.5 136q-56 82 -82.5 166.5t-8.5 187.5q26 150 141 235.5t287 85.5q84 0 167 -22.5t124 -44.5l41 -23l-76 -247h-133l8 198q-1 0 -11 4.5t-21 8t-28.5 7.5t-40.5 6.5t-48 2.5q-94 0 -153 -53.5t-74 -147.5q-6 -37 -1.5 -72t25 -76t34 -62.5 t46.5 -69.5l279 -422q86 134 102 344l-129 41l37 80h356l10 -82l-157 -39q0 -76 -37 -205t-113 -231l82 -103l160 -51l-37 -84h-285l-67 88q-58 -43 -141 -75.5t-173 -32.5q-203 0 -304 91.5t-72 254.5zM303 332q-18 -107 35 -175.5t172 -68.5q126 0 231 82l-292 428 q-117 -105 -146 -266z" />
<glyph unicode="'" horiz-adv-x="374" d="M174 1034l33 387h188l-108 -387h-113z" />
<glyph unicode="(" horiz-adv-x="663" d="M166 598q26 147 78.5 284t115 240.5t138.5 194.5t143.5 151.5t134.5 104.5l51 -66q-352 -343 -446 -895q-102 -568 127 -911l-74 -66q-43 37 -82 84.5t-78.5 112t-67.5 145.5t-46 174.5t-17 208.5t23 238z" />
<glyph unicode=")" horiz-adv-x="663" d="M-164 -299q349 337 447 895q102 568 -127 911l73 66q43 -37 82 -84.5t78.5 -112.5t68 -146t46.5 -174t17 -208t-23 -238t-62 -239.5t-91 -211t-108.5 -177t-119.5 -148.5t-118.5 -114.5t-111.5 -84.5z" />
<glyph unicode="*" horiz-adv-x="862" d="M154 954l22 133l227 -22l-108 186l133 78l59 -217l131 219l117 -78l-178 -188l234 25l-25 -136l-225 25l108 -178l-143 -78l-51 207l-123 -211l-117 78l174 182z" />
<glyph unicode="+" horiz-adv-x="1241" d="M272 608l23 133h342l65 365h138l-64 -365h346l-24 -133h-346l-64 -368h-139l65 368h-342z" />
<glyph unicode="," horiz-adv-x="440" d="M39 -156q94 88 100 146q0 9 -34 53.5t-31 65.5q4 28 63.5 78.5t83.5 50.5q25 0 65.5 -53.5t32.5 -98.5q-11 -66 -67 -143t-170 -148z" />
<glyph unicode="-" horiz-adv-x="831" d="M104 389l21 123l627 18l-27 -159z" />
<glyph unicode="." horiz-adv-x="454" d="M78 109q4 29 63 79t84 50q23 0 65 -50t38 -79q-6 -29 -65.5 -79t-82.5 -50q-25 0 -66.5 50t-35.5 79z" />
<glyph unicode="/" horiz-adv-x="1058" d="M49 -61l1002 1527h174l-1004 -1527h-172z" />
<glyph unicode="0" horiz-adv-x="1157" d="M207 662q19 109 46.5 202t74 184t105.5 154t144.5 102t188.5 39q87 0 152 -26.5t104 -75t62.5 -111t28.5 -141.5t0 -158t-21 -169q-18 -109 -45.5 -202.5t-74 -184t-106 -154t-145.5 -102.5t-189 -39t-175 39t-109.5 102.5t-53 154t-11 184t23.5 202.5zM412 662 q-99 -568 141 -568q68 0 124 46.5t96 129.5t67 179t47 213q21 117 26 212.5t-6 178.5t-51 129.5t-108 46.5t-124.5 -46.5t-96.5 -129t-67.5 -178.5t-47.5 -213z" />
<glyph unicode="1" horiz-adv-x="790" d="M61 82l232 53l172 995l-205 -51l-24 86l317 158h137l-205 -1188l172 -53l-41 -82h-542z" />
<glyph unicode="2" horiz-adv-x="1001" d="M49 80l240 231q236 230 338.5 376t126.5 294q22 126 -19 185t-157 59q-24 0 -52 -4.5t-44 -9.5l-17 -5l-57 -200h-129l10 258q17 9 47 22t116.5 35t165.5 22q209 0 294.5 -95t56.5 -267q-15 -83 -54 -161.5t-112 -166t-143.5 -160t-190.5 -189.5q-12 -11 -18 -17 l-138 -133h383l60 168h123l-27 -322h-793z" />
<glyph unicode="3" horiz-adv-x="935" d="M41 31l49 104q103 -37 232 -37q140 0 215 65t98 191q20 122 -21.5 191t-136.5 69h-123l21 119h125q92 0 144 69t71 183q20 115 -20 177.5t-128 62.5q-33 0 -65 -4.5t-48 -9.5l-16 -5l-59 -200h-127l10 258q17 9 46.5 22t118.5 35t173 22q96 0 166.5 -30.5t107.5 -81.5 t49.5 -114t0.5 -132q-17 -101 -81 -182t-141 -127q28 -13 51 -30t46.5 -44.5t35.5 -62t17.5 -82t-6.5 -105.5q-28 -169 -164 -270.5t-385 -101.5q-68 0 -132 12.5t-94 25.5z" />
<glyph unicode="4" horiz-adv-x="1019" d="M96 418l668 925l174 -20l-143 -844h176l-25 -143h-176l-35 -201l150 -53l-39 -82h-461l-12 82l170 53l35 201h-472zM303 479h299l94 551z" />
<glyph unicode="5" horiz-adv-x="987" d="M80 31l49 104q102 -37 231 -37q134 0 204 64t95 207q25 145 -18.5 218t-159.5 77q-29 1 -59 0t-60 -5t-47.5 -6.5t-46.5 -7.5t-32 -6l-23 29l131 655h651l-90 -319h-121l2 167h-315l-74 -393q60 10 111 10q214 0 306 -114.5t60 -300.5q-32 -184 -164 -288.5t-374 -104.5 q-68 0 -132 12.5t-94 25.5z" />
<glyph unicode="6" horiz-adv-x="1026" d="M168 539q27 159 99.5 298t176 241t234 171t274.5 94l13 -98q-242 -66 -383 -236t-195 -442q-98 -468 121 -473q95 -2 158 56.5t86 199.5q24 133 -14 204t-138 71q-53 0 -103.5 -11.5t-72.5 -21.5l12 108q24 12 83.5 28.5t117.5 16.5q185 0 273.5 -103t56.5 -290 q-29 -167 -154.5 -269.5t-329.5 -102.5q-210 0 -286.5 139t-28.5 420z" />
<glyph unicode="7" horiz-adv-x="876" d="M137 0l676 1171h-397l-60 -167h-123l23 319h748l12 -31l-672 -1292h-207z" />
<glyph unicode="8" horiz-adv-x="1030" d="M123 340q11 64 40.5 119t70.5 95t86 68t96 48q-20 13 -35 25t-32.5 30t-30 36t-23 43.5t-15 53t-4.5 63.5t7 76q26 154 135 250t287 96q179 0 259.5 -101t53.5 -257q-35 -203 -232 -307q17 -10 31 -19.5t31 -23.5t30.5 -30t26.5 -36t21.5 -44.5t14 -53t5 -63.5t-7.5 -74 q-27 -158 -153 -256t-312 -98q-191 0 -285 94.5t-65 265.5zM317 350q-22 -134 28.5 -195t146.5 -61q95 0 164.5 58.5t91.5 181.5q9 52 -1.5 90.5t-38 64t-56 42.5t-69 38.5t-63.5 38.5q-74 -40 -130.5 -104t-72.5 -154zM459 1014q-4 -25 -4 -47t3.5 -40.5t12.5 -36t19.5 -31 t27.5 -28t32.5 -26t39 -25t43.5 -23.5t49 -24q58 40 95.5 97t53.5 155q16 104 -18.5 174t-126.5 70q-90 0 -149.5 -58t-77.5 -157z" />
<glyph unicode="9" horiz-adv-x="1026" d="M203 76q242 68 383 237t196 441q98 470 -120 473q-96 2 -157.5 -55.5t-86.5 -198.5q-24 -133 13 -205t136 -72q53 0 103.5 12.5t74.5 22.5l-14 -108q-14 -7 -39 -16.5t-72 -20.5t-88 -11q-185 0 -273 103.5t-56 292.5q29 166 154.5 269t328.5 103q209 0 286 -140t29 -421 q-27 -158 -99.5 -297t-176.5 -241t-234.5 -170.5t-273.5 -93.5z" />
<glyph unicode=":" horiz-adv-x="446" d="M78 109q4 29 63 79t84 50q23 0 65 -50t38 -79q-6 -29 -65.5 -79t-82.5 -50q-25 0 -66.5 50t-35.5 79zM207 811q4 29 63 80t84 51q23 0 65 -51t38 -80q-6 -29 -65.5 -79t-82.5 -50q-24 0 -66 50.5t-36 78.5z" />
<glyph unicode=";" horiz-adv-x="438" d="M39 -156q94 88 100 146q0 9 -34 53.5t-31 65.5q4 28 63.5 78.5t83.5 50.5q25 0 65.5 -53.5t32.5 -98.5q-11 -66 -67 -143t-170 -148zM199 811q4 29 63 80t84 51q24 0 65.5 -50.5t37.5 -80.5q-4 -29 -63.5 -79t-84.5 -50q-24 0 -65 50.5t-37 78.5z" />
<glyph unicode="&#x3c;" horiz-adv-x="1101" d="M223 629l10 65l748 443l55 -117l-612 -358l487 -359l-98 -117z" />
<glyph unicode="=" horiz-adv-x="1212" d="M260 471l21 123h776l-21 -123h-776zM307 754l23 123h776l-23 -123h-776z" />
<glyph unicode="&#x3e;" horiz-adv-x="1110" d="M297 303l612 359l-487 358l98 117l590 -443l-10 -65l-748 -443z" />
<glyph unicode="?" horiz-adv-x="864" d="M33 109q4 29 63 79t84 50q23 0 65 -50t38 -79q-6 -29 -65.5 -79t-82.5 -50q-25 0 -66.5 50t-35.5 79zM135 383l19 250l34 31q52 -6 115 2q122 15 199 99t102 220q16 96 14 170.5t-16 110.5q-53 32 -149 32q-32 0 -61 -4t-42 -8l-14 -4l-49 -176h-127l12 227q5 3 14 9 t40 20.5t65 25.5t87.5 20t108.5 9q79 0 144 -25t113.5 -74.5t67.5 -134t1 -194.5t-69 -194t-122.5 -134.5t-148.5 -78t-162 -35.5l-49 -162z" />
<glyph unicode="@" horiz-adv-x="1978" d="M154 299q0 310 115 540t332.5 355t512.5 125q158 0 292 -50.5t225.5 -137.5t142.5 -207.5t51 -257.5q0 -138 -34 -251t-88.5 -186t-129 -125.5t-148.5 -78.5t-155 -35q-123 -18 -154 47q-26 9 -45.5 36.5t-23.5 67.5q-61 -65 -136 -113t-123 -48q-69 0 -116 63.5 t-54 187.5q-10 107 7 222q15 105 46 190t80.5 154t126 107t173.5 38q38 0 73 -14t50 -28l16 -13l53 55h115l-148 -862q187 15 305.5 179t118.5 409q0 84 -20.5 162t-63.5 146t-104 119t-146.5 80t-185.5 29q-360 0 -564 -236.5t-204 -662.5q0 -129 30.5 -230t82.5 -166.5 t126 -108.5t155 -61t175 -18q275 0 521 123l37 -75q-240 -167 -574 -172q-125 -1 -234.5 23.5t-204 79t-162 135.5t-106 199.5t-38.5 264.5zM799 356q-14 -158 14 -237q45 14 116.5 61.5t129.5 98.5l86 495q-5 9 -12 18.5t-34 23t-63 13.5q-55 0 -99 -45t-71 -119.5 t-43.5 -151t-23.5 -157.5z" />
<glyph unicode="A" horiz-adv-x="1249" d="M-33 80l166 51l586 1212h129l194 -1212l144 -51l-33 -80h-448l-13 80l148 49l-54 301h-364l-143 -299l147 -51l-35 -80h-411zM479 545h291l-72 463z" />
<glyph unicode="B" horiz-adv-x="1064" d="M25 78l151 53l172 1061l-131 53l37 78h420q213 0 308 -91t69 -243q-9 -57 -40.5 -109t-70.5 -85.5t-68.5 -53.5t-48.5 -28q105 -30 166 -119t39 -221q-28 -172 -143.5 -272.5t-327.5 -100.5h-518zM360 109l47 -3q47 -2 87 -2q162 0 237 61t98 195q22 131 -45 208t-204 77 h-131zM467 758h135q96 0 168 54.5t92 170.5q20 125 -38 180.5t-171 55.5l-112 -5z" />
<glyph unicode="C" horiz-adv-x="1007" d="M109 410q-7 122 16 252q60 336 234.5 508.5t422.5 172.5q84 0 157 -18.5t105 -36.5l31 -18l-74 -260h-135l6 207q-60 12 -110 12q-54 0 -103 -15.5t-99.5 -55.5t-91.5 -102t-76 -163t-56 -231q-26 -159 -14 -269q23 -299 270 -299q150 0 299 64l20 -99 q-60 -30 -155.5 -54.5t-194.5 -24.5q-206 0 -323 107t-129 323z" />
<glyph unicode="D" horiz-adv-x="1191" d="M14 78l152 53l172 1061l-129 53l35 78h415q283 0 409.5 -112t123.5 -351q0 -65 -18 -198q-38 -230 -122 -373.5t-233.5 -216t-374.5 -72.5h-415zM352 111q42 -7 109 -7q106 0 185.5 28.5t143 93t106 172t67.5 264.5q20 114 20 212q0 184 -85.5 264.5t-254.5 80.5l-111 -5 z" />
<glyph unicode="E" horiz-adv-x="995" d="M14 78l152 53l172 1061l-129 53l35 78h839l-69 -279h-123q0 27 -2 83t-2 85h-357l-73 -467l-2 -2h256l71 146l76 -29l-57 -346l-86 -29l-25 146h-254q0 -2 2 -2l-86 -518h369l59 168h123l-20 -279h-854z" />
<glyph unicode="F" horiz-adv-x="980" d="M14 78l152 53l172 1061l-129 53l35 78h872l-69 -279h-123l-6 168h-388l-73 -469h254l71 146l76 -29l-57 -346l-86 -29l-25 146h-252l-82 -500l129 -51l-34 -80h-422z" />
<glyph unicode="G" horiz-adv-x="1187" d="M106 471q3 178 40.5 323.5t100.5 246.5t150.5 169.5t189 100.5t216.5 32q62 0 123 -7.5t103 -18.5t75 -22.5t49 -18.5l16 -8l-75 -258h-133l8 198q-105 21 -189 21q-353 0 -446 -567q-27 -162 -15 -271q23 -297 269 -297q124 0 207 43l57 348l-127 52l37 75h401l13 -75 l-136 -52l-63 -397q-56 -38 -168.5 -73t-243.5 -35q-224 0 -343 121.5t-116 369.5z" />
<glyph unicode="H" horiz-adv-x="1290" d="M14 78l152 53l172 1061l-129 53l35 78h422l10 -78l-148 -53l-73 -449h510l73 449l-129 53l35 78h422l10 -78l-147 -53l-172 -1061l131 -53l-39 -78h-420l-14 78l151 53l80 500h-508l-82 -500l131 -53l-38 -78h-420z" />
<glyph unicode="I" horiz-adv-x="591" d="M14 78l152 53l172 1061l-129 53l35 78h422l10 -78l-148 -53l-172 -1061l131 -53l-38 -78h-420z" />
<glyph unicode="J" horiz-adv-x="540" d="M-139 -256q103 74 180.5 187.5t97.5 228.5l168 1032l-129 53l35 78h422l10 -78l-147 -53l-166 -1032q-12 -82 -55.5 -160t-106.5 -140.5t-127.5 -111t-136.5 -88.5z" />
<glyph unicode="K" horiz-adv-x="1132" d="M14 78l152 51l174 1067l-131 51l37 76h420l12 -76l-152 -51l-174 -1067l135 -51l-36 -78h-422zM455 684l481 518l-109 45l37 76h359l12 -76l-145 -49l-441 -475l271 -590l153 -55l-37 -78h-266z" />
<glyph unicode="L" horiz-adv-x="976" d="M14 78l152 53l172 1061l-129 53l35 78h422l10 -78l-148 -53l-176 -1081h391l58 168h121l-19 -279h-874z" />
<glyph unicode="M" horiz-adv-x="1490" d="M-4 78l149 53l215 1061l-129 53l37 78h346l158 -885l438 885h342l9 -80l-146 -51l-131 -1061l131 -53l-37 -78h-428l-14 78l149 53l111 887l-436 -873h-135l-154 885l-182 -899l133 -53l-37 -78h-375z" />
<glyph unicode="N" horiz-adv-x="1245" d="M14 78l152 53l172 1061l-131 53l37 78h338l348 -942l133 811l-131 51l39 80h381l10 -80l-148 -51l-196 -1212h-158l-395 1067l-150 -916l131 -53l-34 -78h-383z" />
<glyph unicode="O" horiz-adv-x="1179" d="M104 434q-1 86 8.5 173.5t32.5 177.5t58 171t88 152.5t119 123t154 81.5t190 30q93 0 166 -23.5t121 -64.5t79 -100t45 -124.5t15 -143.5q0 -105 -19 -225q-18 -109 -47.5 -202.5t-80.5 -184t-118.5 -154t-165.5 -102.5t-217 -39q-93 0 -166.5 23.5t-121.5 64t-79.5 99 t-45.5 124t-15 143.5zM313 436q-4 -346 236 -346q86 0 157.5 49t119 128.5t80.5 184.5t48.5 213t16.5 218q4 350 -236 350q-106 0 -189.5 -74t-132 -194t-73.5 -255t-27 -274z" />
<glyph unicode="P" d="M14 78l152 53l172 1063l-127 51l35 78h391q218 0 327 -64t115 -210q4 -149 -59.5 -257.5t-175 -162.5t-258.5 -54q-76 0 -131 9l20 100q61 -9 131 -6q119 6 183 71.5t85 194.5q24 141 -33 208t-223 67l-88 -5l-176 -1083l131 -53l-36 -78h-420z" />
<glyph unicode="Q" horiz-adv-x="1202" d="M131 768q22 124 67 224.5t119.5 181t188.5 125t260 44.5q121 0 209 -38t136 -100.5t70.5 -152t21 -184.5t-20.5 -206q-47 -276 -187 -453t-364 -223q39 -27 63 -49l193 -148q26 -22 53 -22q89 -33 184 38l45 -61q-58 -68 -140 -105t-159 -28q-36 3 -70.5 19t-52.5 29 t-57 46l-176 143q-164 132 -172 138q-63 10 -108 39t-56 55l68 90q53 -7 100.5 -32.5t69.5 -47.5q38 -10 86 -10q85 0 156.5 33.5t120.5 88t87.5 132.5t61.5 157t39 171q95 567 -219 567q-93 0 -166 -36.5t-121.5 -102t-79 -145t-47.5 -177.5q-29 -175 7 -280.5t128 -112.5 q104 -7 197 82l51 -49q-42 -58 -119.5 -103t-175.5 -41q-182 10 -256 142t-35 362z" />
<glyph unicode="R" horiz-adv-x="1120" d="M14 78l150 53l174 1063l-129 51l35 78h393q65 0 119.5 -5.5t104 -18t86.5 -32t67 -48.5t45 -67.5t21 -87.5t-5 -110q-12 -72 -41.5 -131t-65.5 -97t-81.5 -66t-86.5 -41.5t-83 -20.5q28 -67 59.5 -146.5t67 -171t57.5 -147.5h-2l158 -53l-37 -80h-270l-250 637l24 55h56 q58 0 102 11.5t84 39.5t66.5 81t39.5 130q23 145 -47 205t-209 60l-88 -5l-176 -1083l131 -53l-34 -78h-420z" />
<glyph unicode="S" horiz-adv-x="944" d="M29 68l71 245h133l-8 -194q68 -29 174 -29q234 0 271 211q4 23 4 43t-3.5 38t-9.5 34t-16 30t-21 26.5t-27 24.5t-31 22t-35 21t-38 20t-42 20q-161 71 -222 165.5t-36 255.5q24 146 147 244t299 98q91 0 176 -22.5t125 -44.5l39 -23l-72 -243h-133l8 194l-9 4 q-9 3 -17 5.5t-23.5 6.5t-31 6.5t-38 4.5t-45.5 2q-101 0 -165 -62.5t-80 -158.5q-16 -91 32 -150t154 -106q46 -20 79.5 -37t68 -38t58 -42t45.5 -46.5t34.5 -54t20.5 -63t7.5 -75.5t-8.5 -89q-24 -155 -144.5 -243t-338.5 -88q-60 0 -118 9t-98.5 22t-72.5 26t-48 22z" />
<glyph unicode="T" horiz-adv-x="1040" d="M174 1038l16 285h977l-77 -285h-121l4 179l-219 -5l-174 -1081l129 -51l-35 -80h-422l-10 78l147 53l176 1081l-215 5l-53 -179h-123z" />
<glyph unicode="U" horiz-adv-x="1247" d="M197 1245l36 78h424l13 -78l-148 -53l-96 -578q-33 -205 -25 -313q6 -106 49 -158.5t134 -52.5q165 0 252 121.5t133 402.5l92 578l-129 53l37 78h374l13 -78l-148 -53l-96 -578q-26 -158 -63 -267.5t-99 -196t-157 -128.5t-228 -42q-99 0 -168.5 21t-111 63.5t-61 100.5 t-21.5 138q-5 114 28 311l95 578z" />
<glyph unicode="V" horiz-adv-x="1230" d="M170 1245l35 78h440l10 -78l-157 -53l141 -905l438 905l-143 53l35 78h391l8 -78l-145 -53l-588 -1212h-152l-188 1216z" />
<glyph unicode="W" horiz-adv-x="1878" d="M170 1245l35 78h434l10 -78l-157 -53l120 -911l387 813l-28 188l211 41q18 -10 30.5 -32.5t10.5 -71.5t-29 -111l125 -827l412 911l-148 53l35 78h391l8 -78l-147 -53l-549 -1212h-166l-125 890l-422 -890h-153l-162 1216z" />
<glyph unicode="X" horiz-adv-x="1185" d="M-25 78l152 53l410 531q-44 103 -124 295t-100 239l-135 51l37 76h461l12 -78l-160 -53l160 -377l291 377l-145 53l36 78h406l10 -76l-153 -55l-394 -506l248 -555l131 -53l-37 -78h-450l-13 78l150 53l-180 406l-307 -406l131 -53l-37 -78h-385z" />
<glyph unicode="Y" horiz-adv-x="1146" d="M170 1245l37 78h430l10 -78l-158 -53l162 -465l334 463l-149 55l38 78h400l10 -78l-147 -53l-437 -594l-75 -467l131 -53l-37 -78h-420l-14 78l149 53l70 436l-215 631z" />
<glyph unicode="Z" horiz-adv-x="997" d="M27 80l833 1128l-416 6l-57 -176h-119l15 285h794l4 -100l-819 -1110l455 -2l55 172h123l-14 -283h-844z" />
<glyph unicode="[" horiz-adv-x="557" d="M-2 -352l338 1915l381 -25l-19 -100l-206 -25l-285 -1608l199 -32l-19 -99z" />
<glyph unicode="\" horiz-adv-x="1112" d="M0 1466h172l1002 -1527h-175z" />
<glyph unicode="]" horiz-adv-x="557" d="M-160 -330l19 103l207 22l284 1610l-198 33l18 98l389 27l-338 -1915z" />
<glyph unicode="^" horiz-adv-x="733" d="M152 993l288 418h101l139 -418l-92 -51l-135 256l-228 -256z" />
<glyph unicode="_" horiz-adv-x="1146" d="M102 -174l23 123l919 18l-26 -160z" />
<glyph unicode="`" horiz-adv-x="856" d="M211 1237l106 137l328 -223l-53 -78z" />
<glyph unicode="a" horiz-adv-x="921" d="M66 289q4 103 18.5 192.5t47.5 176t81 148t123 99t170 37.5q83 0 156 -55l45 55h124l-137 -829h127v-76q-122 -57 -198 -57q-58 0 -89.5 24t-25.5 82l4 49q-67 -65 -140 -110t-128 -45q-85 0 -133.5 78.5t-44.5 230.5zM258 303q-6 -129 16 -190q49 17 122.5 62.5 t135.5 96.5l84 500q-3 8 -11 19.5t-36.5 27t-66.5 15.5q-52 0 -94.5 -39t-68 -96.5t-44 -133t-26.5 -139t-11 -123.5z" />
<glyph unicode="b" horiz-adv-x="909" d="M92 66l201 1206l-154 31v77l365 37l-105 -633q65 65 140 111.5t129 46.5q85 0 134 -79t46 -230q-4 -104 -18 -193t-46.5 -176t-81 -148t-125.5 -98.5t-176 -37.5q-74 0 -157 24t-152 62zM289 111q58 -23 121 -23q58 0 103 45.5t71 112t43 151t22.5 152t5.5 125.5 q0 83 -16 133q-49 -15 -124.5 -60.5t-137.5 -97.5z" />
<glyph unicode="c" horiz-adv-x="792" d="M86 299q8 295 120.5 469t323.5 174q48 0 91.5 -6.5t71.5 -15t49 -17.5t30 -15l10 -7l-63 -232h-131l4 172q-26 13 -68 13q-61 0 -109.5 -54t-76 -139t-42 -167.5t-17.5 -160.5q-2 -39 -2.5 -69.5t2.5 -52t5.5 -37t10 -25t12 -15t15.5 -7.5t16.5 -2.5t19.5 -0.5 q111 0 267 107l55 -82q-58 -56 -152.5 -102.5t-177.5 -46.5q-133 0 -201.5 80t-62.5 239z" />
<glyph unicode="d" horiz-adv-x="913" d="M66 289q4 103 18.5 192.5t47 176t80.5 148t123 99t171 37.5q79 0 133 -39l61 369l-153 31v77l364 37l-215 -1304h125v-76q-122 -57 -198 -57q-61 0 -91 23.5t-24 82.5l4 49q-67 -65 -140 -110t-128 -45q-85 0 -133.5 78.5t-44.5 230.5zM258 303q-6 -129 16 -190 q50 17 125 63t136 96l83 500q-41 62 -116 62q-52 0 -94.5 -39t-68 -96.5t-44 -133t-26.5 -139t-11 -123.5z" />
<glyph unicode="e" horiz-adv-x="802" d="M63 299q5 188 52.5 329.5t146.5 227.5t240 86q131 0 199 -58.5t65 -154.5q-10 -156 -242 -252q-105 -46 -260 -69q-8 -54 -8 -95q-2 -34 -2 -62t1 -48.5t5 -36.5t7 -26.5t9.5 -17.5t11 -10.5t14 -5.5t14.5 -2h16h4q39 0 81 12t88 36.5t67.5 38t62.5 40.5l51 -77 q-64 -66 -165 -120t-193 -54q-133 0 -202 80t-63 239zM281 510q41 10 87.5 28.5t96 47t83 69t36.5 84.5q4 61 -14.5 78t-73.5 17q-54 0 -98.5 -48t-71.5 -117.5t-45 -158.5z" />
<glyph unicode="f" horiz-adv-x="559" d="M-190 -459q256 343 274 459l135 813l-115 10q0 14 -1 43t-1 45l138 11l10 59q21 121 57.5 208.5t83.5 135.5t97 70t106 22t113.5 -16t91.5 -33l-62 -217h-123l4 164q-20 4 -40 4q-53 0 -85.5 -83t-64.5 -284l-4 -32l192 2v-109q-35 0 -105 1t-105 1l-136 -819 q-16 -96 -102 -206t-279 -312z" />
<glyph unicode="g" horiz-adv-x="864" d="M-104 -268q4 59 37 108t84.5 82t100 54t103.5 36q-34 40 -18 101q9 53 63 110q-82 27 -123 95.5t-39 158.5q2 102 27 185.5t74 146.5t128 98t183 35q52 0 137 -22l246 2v-109q-27 0 -80 1t-80 1q33 -66 33 -141q-3 -192 -113.5 -323t-269.5 -140l-47 -102l309 -211 q94 -65 88 -138q-5 -62 -72.5 -127t-183 -110t-241.5 -45q-161 0 -256.5 73t-89.5 181zM80 -272q-3 -38 4 -65t20.5 -42.5t39 -23.5t50.5 -10.5t64 -2.5q105 0 192.5 60t112.5 123l-268 184q-84 -31 -128 -67q-80 -63 -87 -156zM279 426q3 -71 17.5 -94t72.5 -23 q57 0 101 38t66.5 89.5t36.5 115.5t17.5 104.5t3.5 68.5q-3 71 -17.5 94t-72.5 23q-57 0 -101 -38t-66.5 -90t-36.5 -116t-17.5 -104.5t-3.5 -67.5z" />
<glyph unicode="h" horiz-adv-x="989" d="M63 0l211 1272l-153 31v77l364 37l-106 -647q60 50 138 96.5t151 63.5q54 12 100 2q52 -10 72 -51t12 -97l-111 -671h127v-76q-122 -57 -198 -57q-138 0 -117 126l113 674q-22 3 -52 -6q-48 -7 -122 -46t-134 -83l-104 -645h-191z" />
<glyph unicode="i" horiz-adv-x="555" d="M104 825v82l351 35l-136 -829h125v-76q-122 -57 -196 -57q-140 0 -119 126l115 691zM287 1231q4 29 63 80t84 51q24 0 65.5 -50.5t37.5 -80.5q-4 -29 -63.5 -79t-84.5 -50q-24 0 -65 50.5t-37 78.5z" />
<glyph unicode="j" horiz-adv-x="526" d="M-168 -459q254 346 272 459l134 797l-142 28v82l353 35l-158 -946q-6 -35 -20 -70t-44 -79.5t-54 -77t-77.5 -91.5t-84 -92t-101.5 -108zM279 1231q4 29 63 80t84 51q24 0 65 -50.5t37 -80.5q-4 -29 -63 -79t-84 -50q-24 0 -65 50.5t-37 78.5z" />
<glyph unicode="k" horiz-adv-x="872" d="M86 0l211 1272l-154 31v77l365 37l-107 -641q65 57 156 111.5t156 54.5q74 0 104.5 -35t30.5 -98q0 -103 -82.5 -203t-204.5 -182l121 -311h141v-76q-122 -57 -192 -57q-82 0 -109 53l-135 346l10 55q48 31 92 68t84 82.5t63 98.5t21 103q-22 0 -49 -8q-82 -16 -225 -123 l-109 -655h-188z" />
<glyph unicode="l" horiz-adv-x="534" d="M102 106l193 1166l-154 31v77l365 37l-213 -1304h125v-76q-123 -57 -199 -57q-138 0 -117 126z" />
<glyph unicode="m" horiz-adv-x="1505" d="M104 825v82l351 35l-29 -172q77 65 169.5 118.5t172.5 53.5q71 0 104.5 -41t28.5 -102l-4 -29q210 172 340 172q76 0 109.5 -44.5t23.5 -113.5l-110 -671h124v-76q-122 -57 -196 -57q-137 0 -119 126l113 674q-22 3 -52 -6q-48 -7 -120.5 -46t-132.5 -85l-107 -643h-188 l131 780q-21 3 -51 -6q-48 -7 -122.5 -46.5t-133.5 -84.5l-105 -643h-190l133 797z" />
<glyph unicode="n" horiz-adv-x="1036" d="M104 825v82l351 35l-29 -172q77 65 169.5 118.5t172.5 53.5q75 0 108.5 -45t22.5 -113l-111 -671h127v-76q-122 -57 -198 -57q-138 0 -117 126l113 674q-21 3 -51 -6q-48 -7 -122.5 -46.5t-133.5 -84.5l-105 -643h-190l133 797z" />
<glyph unicode="o" horiz-adv-x="876" d="M63 299q5 194 56 335.5t155.5 224.5t255.5 83q144 0 217.5 -80t67.5 -239q-5 -194 -56 -335.5t-155.5 -224.5t-255.5 -83q-144 0 -217.5 80t-67.5 239zM254 246q1 -54 6.5 -86.5t20 -48t30.5 -19.5t45 -4q61 0 110.5 45.5t78.5 113.5t48.5 151.5t26 153.5t5.5 124 q-1 53 -7 85t-20.5 47t-30.5 19t-45 4q-61 0 -110.5 -45.5t-78.5 -113.5t-48 -150.5t-25.5 -152t-5.5 -123.5z" />
<glyph unicode="p" horiz-adv-x="931" d="M23 -502l215 1299l-140 28v82l351 35l-27 -160q66 66 140.5 113t129.5 47q85 0 133.5 -79t44.5 -230q-4 -104 -18 -192.5t-46 -176t-80.5 -148.5t-125.5 -98.5t-176 -37.5q-55 0 -127 28l-84 -510h-190zM315 127q2 -1 12.5 -7.5t19 -10.5t22 -9.5t30 -8.5t35.5 -3 q57 0 102.5 45.5t71.5 112.5t43 151t23 152t6 125q0 86 -18 133q-47 -15 -124 -61.5t-137 -96.5z" />
<glyph unicode="q" horiz-adv-x="874" d="M63 289q4 102 19 192t47.5 176.5t80.5 148t123.5 99t170.5 37.5q82 0 155 -55q26 29 46 55h126l-237 -1444h-188l104 635q-68 -65 -140.5 -109t-125.5 -44q-85 0 -134.5 78.5t-46.5 230.5zM258 303q-9 -127 14 -190q50 17 124.5 62.5t135.5 96.5l84 500q-5 10 -13 20.5 t-36.5 26t-66.5 15.5q-63 0 -111.5 -56.5t-74.5 -145t-39 -170t-17 -159.5z" />
<glyph unicode="r" horiz-adv-x="745" d="M104 825v82l351 35l-23 -133q163 133 240 133q57 0 88 -24l-74 -269h-131l2 127q-69 -27 -143 -82l-113 -694h-190l133 797z" />
<glyph unicode="s" horiz-adv-x="788" d="M53 106q-1 45 8 88.5t18 63.5l9 21h117l14 -183q40 -14 100 -14q151 0 168 106q7 56 -25 94t-124 99q-26 17 -42 28t-37 26t-34 26t-28.5 26t-24 28t-18 29t-14 32.5t-8 36.5t-3 42t3.5 47q12 104 102.5 172t227.5 68q68 0 135 -15t100 -31l33 -15l-59 -232h-133l8 172 q-57 19 -98 19q-66 0 -105.5 -36.5t-44.5 -90.5q-6 -55 30 -98t109 -87q61 -38 99 -67t75.5 -69t52.5 -86.5t9 -100.5q-14 -106 -106.5 -165.5t-262.5 -59.5q-49 0 -91.5 6t-79.5 20t-58.5 39.5t-22.5 60.5z" />
<glyph unicode="t" horiz-adv-x="638" d="M119 823v88l143 11l88 208h125l-37 -210l193 2v-109q-35 0 -104.5 1t-104.5 1l-115 -700q12 -2 47 -2q105 4 164 16l8 -84q-49 -25 -125 -45t-157 -20q-71 0 -102.5 37.5t-20.5 103.5l112 692z" />
<glyph unicode="u" d="M121 825v82l352 35l-133 -803q21 0 51 6q47 7 121 46.5t133 84.5l107 646h188l-135 -809h127v-76q-123 -57 -197 -57q-83 0 -86 63q-35 44 -24 107q-163 -131 -289 -158q-54 -12 -100 -2q-52 8 -72 48.5t-12 96.5l108 662z" />
<glyph unicode="v" horiz-adv-x="892" d="M37 823v84l338 35l8 -760q106 119 182.5 271.5t104.5 296.5l-138 124l48 68q57 -1 103 -11.5t85 -33t56 -64.5t7 -100q-29 -179 -158.5 -387t-305.5 -366h-158l-12 808z" />
<glyph unicode="w" horiz-adv-x="1314" d="M37 823v84l338 35l8 -760q151 181 238 406l-5 334h183l8 -740q105 118 181 270t106 298l-138 124l48 68q57 -1 103 -11.5t85 -33t56 -64.5t7 -100q-31 -181 -159.5 -388.5t-307.5 -364.5h-157l-6 339q-109 -191 -260 -339h-158l-12 808z" />
<glyph unicode="x" horiz-adv-x="874" d="M-4 113q14 44 91.5 121t213.5 199q26 23 39 34l-119 340h-141v76q125 59 199 59q87 0 106 -53l107 -309q131 117 190 211l-113 83l43 68q35 -1 73 -7t78 -19t66.5 -37t28.5 -56q3 -40 -89 -139.5t-237 -224.5l121 -346h140q0 -13 1 -38.5t1 -37.5q-125 -57 -201 -57 q-41 0 -69.5 14t-35.5 39l-106 315q-171 -163 -211 -221l107 -82l-43 -65q-78 1 -135 13t-89.5 43t-15.5 77z" />
<glyph unicode="y" horiz-adv-x="890" d="M-248 -311l78 55l129 -127q51 43 129.5 137t149.5 195q0 10 -1 31.5t-1 31.5l-50 776l-161 35v84l335 35l48 -776q12 16 32 53q155 248 236 531l-137 124l47 68q53 -1 99.5 -11.5t87.5 -34t60 -67t7 -102.5q-67 -313 -434 -795q-72 -95 -128 -164.5t-120 -140t-115 -109 t-86 -40.5q-84 -6 -142 54.5t-63 156.5z" />
<glyph unicode="z" horiz-adv-x="759" d="M-12 55l520 729h-379l23 138h538l43 -56l-522 -729h272l13 142h116q29 -46 29 -140q0 -58 -39.5 -98.5t-101.5 -40.5h-471z" />
<glyph unicode="{" horiz-adv-x="667" d="M63 -352l287 784l-217 131l14 80l263 131l-13 789l412 -27l-16 -96l-207 -25l6 -704l-252 -107l215 -108l-256 -703l199 -22l-17 -97z" />
<glyph unicode="|" horiz-adv-x="411" d="M0 -221l303 1712h168l-303 -1712h-168z" />
<glyph unicode="}" horiz-adv-x="667" d="M-141 -328l16 99l207 22l-8 705l254 108l-217 107l258 702l-199 25l16 96l418 27l-287 -787l215 -131l-14 -78l-260 -131l12 -788z" />
<glyph unicode="~" horiz-adv-x="1247" d="M268 596q39 94 102.5 148t139.5 53q19 0 61 -11l318 -90q72 -22 129 32q14 14 49 56l66 -30q-41 -95 -103.5 -149t-138.5 -54q-32 0 -121 24l-256 76q-21 7 -39.5 8t-35 -5.5t-29 -13t-28 -21.5t-24 -25t-24.5 -29z" />
<glyph unicode="&#xa1;" horiz-adv-x="540" d="M10 -518l226 1010l131 14l-136 -1000zM227 811q4 29 63.5 80t84.5 51q24 0 65 -50.5t37 -80.5q-4 -29 -63 -79t-84 -50q-24 0 -65.5 50.5t-37.5 78.5z" />
<glyph unicode="&#xa2;" horiz-adv-x="933" d="M201 479q-4 124 20 235.5t73 202t130.5 150.5t185.5 74l23 202h160l-50 -202q106 -15 193 -66l-57 -217h-127l2 162q-42 14 -90 14q-196 0 -258 -387q-16 -112 -11 -178q5 -91 33 -129.5t94 -38.5q65 0 136 24t118 52l39 -92q-108 -69 -235 -95l-21 -210h-160l47 206 q-235 29 -245 293z" />
<glyph unicode="&#xa3;" horiz-adv-x="1040" d="M57 121q112 80 163.5 187.5t86.5 299.5l-143 4l16 97q24 0 73 1t73 1l6 37q23 133 58.5 234.5t78 167.5t96.5 107.5t110.5 58.5t123.5 17q48 0 93.5 -7.5t76.5 -17.5t55 -20.5t36 -17.5l11 -8l-78 -256h-133l8 202q-44 11 -92 11q-99 0 -158 -105.5t-106 -372.5l-4 -26 l340 6l-21 -123l-338 6l-12 -65q-24 -144 -68.5 -233.5t-152.5 -172.5q0 -1 1 -2t1 -2q97 43 223 43q43 0 87.5 -5t66 -9t63.5 -14.5t43 -10.5l56 182h133q-1 -50 -5 -149.5t-5 -149.5q-76 -26 -156 -26q-55 0 -170 21.5t-166 21.5q-169 0 -317 -53z" />
<glyph unicode="&#xa4;" horiz-adv-x="1343" d="M154 236l206 163q-44 106 -18 263q26 154 109 262l-150 166l141 120l129 -180q109 66 248 66q136 0 223 -64l189 178l100 -120l-205 -164q38 -91 30.5 -192t-39.5 -187.5t-81 -149.5l148 -161l-140 -123l-129 178q-112 -64 -245 -64q-144 0 -226 66l-190 -180zM539 662 q-27 -154 10 -239t139 -85q99 0 168 87.5t94 236.5q27 154 -10 238.5t-139 84.5q-99 0 -168 -87t-94 -236z" />
<glyph unicode="&#xa5;" horiz-adv-x="1153" d="M190 1245l35 78h432l11 -78l-158 -53l160 -465l336 463l-150 55l37 78h399l13 -78l-150 -53l-371 -506q168 4 256 4l-20 -117l-303 5l-21 -115q184 4 275 4l-19 -117l-272 4l-37 -223l131 -53l-37 -78h-420l-12 78l148 53l36 227q-84 0 -256 4l17 95l256 4l18 106l-6 15 q-92 0 -276 4l18 94l223 2l-176 516z" />
<glyph unicode="&#xa6;" horiz-adv-x="411" d="M0 -221l133 749h168l-133 -749h-168zM170 741l133 750h168l-133 -750h-168z" />
<glyph unicode="&#xa7;" horiz-adv-x="925" d="M96 63l58 211h125l-3 -163q40 -23 111 -23q152 0 174 123q11 62 -15 99t-116 71q-146 55 -196.5 115t-30.5 168q10 63 57.5 113t118.5 81q-67 41 -89.5 94t-8.5 138q19 109 118 181t238 72q46 0 91 -9t75.5 -21.5t54.5 -25t36 -21.5l11 -9l-57 -210h-123l2 165 q-1 0 -12 4t-23.5 8t-33.5 7.5t-42 3.5q-69 0 -110 -36t-51 -93q-9 -51 18 -83t102 -67q31 -14 53.5 -25.5t46.5 -25t41 -25.5t33.5 -27t27 -30t19 -33t11.5 -38t3 -44t-5 -51q-21 -119 -154 -186q65 -41 90.5 -96.5t10.5 -141.5q-21 -113 -119.5 -183t-265.5 -70 q-74 0 -141.5 21t-98.5 41zM373 684q-9 -52 19 -79.5t114 -61.5l26 -13q40 18 67.5 47t33.5 62q3 17 2.5 31t-2.5 24t-9.5 20t-14 16.5t-21 16t-26 15.5t-33 18t-37.5 21q-52 -13 -83 -44.5t-36 -72.5z" />
<glyph unicode="&#xa8;" horiz-adv-x="991" d="M317 1231q4 29 63.5 80t84.5 51q24 0 65 -50.5t37 -80.5q-4 -29 -63 -79t-84 -50q-24 0 -65.5 50.5t-37.5 78.5zM674 1231q4 29 63 80t84 51q24 0 65.5 -50.5t37.5 -80.5q-4 -29 -63.5 -79t-84.5 -50q-24 0 -65 50.5t-37 78.5z" />
<glyph unicode="&#xa9;" horiz-adv-x="1728" d="M205 659q33 188 146.5 343.5t281 245t352.5 89.5q182 0 316.5 -89.5t194 -245t26.5 -343.5t-147 -342.5t-279.5 -242.5t-347.5 -88q-138 0 -252 52t-186 141.5t-101 214t-4 265.5zM342 662q-28 -156 18 -284t154.5 -201t257.5 -73q220 0 394.5 159.5t217.5 398.5 q20 117 -0.5 220.5t-75 178t-142.5 117.5t-197 43q-149 0 -283.5 -73t-225.5 -201.5t-118 -284.5zM553 651q12 73 39 135t71 113.5t111.5 81t151.5 29.5q104 0 202 -60l-45 -166h-92v115q-37 14 -82 14q-81 0 -125.5 -67t-68.5 -195q-13 -78 -10.5 -136t33 -91t89.5 -33 q95 0 185 31l8 -80q-108 -42 -217 -45q-86 0 -144.5 29t-83 77.5t-31.5 112.5t9 135z" />
<glyph unicode="&#xaa;" horiz-adv-x="604" d="M125 961q4 55 13.5 103.5t25.5 91.5t39.5 77t53.5 59t69.5 38t85.5 13q26 0 50 -9t34 -16t16 -13l43 38h96l-84 -491h76v-68l-8.5 -3.5t-20 -7.5t-27 -8.5t-31 -8t-31 -5t-27.5 0.5t-20.5 9t-10.5 19q-39 12 -47 54q-34 -34 -79 -61.5t-79 -27.5q-74 0 -109.5 60 t-27.5 156zM276 981q-8 -95 7 -121q28 6 69.5 29t77.5 51l45 268l-3.5 4.5t-7.5 7.5t-10.5 7.5t-17.5 7t-24 2.5q-32 0 -57.5 -23t-41.5 -61.5t-25 -81.5t-12 -90z" />
<glyph unicode="&#xab;" horiz-adv-x="1218" d="M150 426l12 68l534 413l74 -80l-403 -366l272 -369l-100 -78zM635 430l12 62l475 405l76 -76l-358 -360l229 -361l-100 -75z" />
<glyph unicode="&#xac;" horiz-adv-x="1210" d="M281 610l22 129h776l-61 -346h-148l37 217h-626z" />
<glyph unicode="&#xad;" horiz-adv-x="831" d="M104 389l21 123l627 18l-27 -159z" />
<glyph unicode="&#xae;" horiz-adv-x="1728" d="M201 659q33 188 146.5 343.5t281 245t352.5 89.5q182 0 316.5 -89.5t194 -245t26.5 -343.5q-25 -141 -98 -265.5t-176 -214t-234 -141.5t-267 -52q-138 0 -252 52t-185.5 141.5t-100.5 214t-4 265.5zM338 662q-28 -156 18 -284t154.5 -201t257.5 -73q220 0 394.5 159.5 t217.5 398.5q20 117 -0.5 220.5t-75 178t-142.5 117.5t-197 43q-149 0 -283.5 -73t-225.5 -201.5t-118 -284.5zM520 301v59l76 37l88 508l-66 35l25 59h258q112 0 171.5 -50.5t41.5 -151.5q-8 -46 -31 -81.5t-52.5 -55.5t-57 -30t-51.5 -12l98 -223l82 -35l-25 -59h-174 l-131 324l-41 -230l64 -35l-23 -59h-252zM772 625l25 53h32q120 0 142 121q11 59 -12 86.5t-87 27.5h-49z" />
<glyph unicode="&#xaf;" horiz-adv-x="1032" d="M313 1161l23 119h592l-21 -119h-594z" />
<glyph unicode="&#xb0;" horiz-adv-x="620" d="M129 1073q20 114 102.5 192t206.5 78q126 0 181.5 -78t35.5 -192q-22 -115 -103.5 -191.5t-207.5 -76.5q-125 0 -180.5 76.5t-34.5 191.5zM279 1073q-29 -164 83 -164q58 0 94.5 45.5t49.5 118.5q13 75 -6.5 120.5t-77.5 45.5q-59 0 -94.5 -45.5t-48.5 -120.5z" />
<glyph unicode="&#xb1;" horiz-adv-x="1202" d="M236 70l22 133h776l-22 -133h-776zM322 745l22 134h342l66 364h137l-64 -364h346l-24 -134h-346l-64 -368h-139l66 368h-342z" />
<glyph unicode="&#xb2;" horiz-adv-x="575" d="M123 752v86q193 137 244 184q75 69 86 133q16 94 -50 94q-12 0 -24 -1.5t-17 -3.5l-6 -1l-39 -115h-98l8 158q12 6 32.5 15t76.5 24.5t102 15.5q103 0 144 -47t28 -125q-9 -54 -52 -108t-80 -83.5t-116 -85.5q-12 -9 -18 -13l-31 -21h150l41 103h90l-23 -209h-448z" />
<glyph unicode="&#xb3;" horiz-adv-x="540" d="M123 760l33 88q46 -14 116 -14q101 0 117 75q8 39 -7 62.5t-50 23.5h-64l15 86h65q42 0 65 52q23 51 5 88q-13 26 -43 26l-33 -4l-33 -90h-88l6 150q72 36 170 36q68 0 113 -23.5t58.5 -60t9.5 -77t-29.5 -77.5t-63.5 -59q33 -15 51.5 -49.5t8.5 -85.5 q-16 -79 -87 -124.5t-196 -45.5q-38 0 -73 5.5t-51 11.5z" />
<glyph unicode="&#xb4;" horiz-adv-x="886" d="M346 1157l383 215l64 -151l-408 -144z" />
<glyph unicode="&#xb5;" d="M-145 -459q250 335 272 459l25 129v6l108 662l-139 28v82l352 35l-133 -803q21 0 51 6q47 7 121 46.5t133 84.5l107 646h188l-135 -809h127v-76q-123 -57 -197 -57q-83 0 -86 63q-35 44 -24 107q-192 -161 -324 -170q-9 -40 -33.5 -87t-49.5 -84.5t-81 -103t-89.5 -103 t-113.5 -124.5z" />
<glyph unicode="&#xb6;" horiz-adv-x="1134" d="M176 942q17 97 57.5 166t96 110.5t139.5 65t169 31.5t204 8h327l11 -82l-154 -51l-209 -1190h-139l211 1198h-90l-211 -1198h-146l103 573q-58 0 -111.5 9.5t-109 35t-92.5 65t-54 106.5t-2 153z" />
<glyph unicode="&#xb7;" horiz-adv-x="425" d="M106 473q4 29 63.5 79t84.5 50q24 0 65 -49.5t37 -79.5q-4 -29 -63 -79t-84 -50q-24 0 -65.5 49.5t-37.5 79.5z" />
<glyph unicode="&#xb8;" horiz-adv-x="903" d="M231 -479l39 82q54 -23 121 -23q115 0 135 96q7 43 -19 64.5t-83 21.5q-40 0 -72 -8l-20 27l131 260l98 -14l-67 -179q97 5 155.5 -40t42.5 -134q-16 -93 -103 -142.5t-202 -49.5q-94 0 -156 39z" />
<glyph unicode="&#xb9;" horiz-adv-x="479" d="M123 754v71l143 31l62 352l-115 -37l-23 76l197 96h107l-86 -489l112 -29l-22 -71h-375z" />
<glyph unicode="&#xba;" horiz-adv-x="595" d="M131 1040q22 131 98.5 216t202.5 85q122 0 171 -86t26 -215q-24 -134 -99 -216.5t-204 -82.5q-81 0 -132 41t-63.5 107.5t0.5 150.5zM285 1040q-13 -66 -6 -121.5t34 -64.5q12 -8 33 -8q54 0 84 52t47 142q32 197 -63 197q-99 0 -129 -197z" />
<glyph unicode="&#xbb;" horiz-adv-x="1218" d="M20 100l357 361l-230 360l101 76l334 -405l-11 -62l-477 -405zM449 92l403 369l-274 366l100 80l391 -413l-12 -68l-537 -412z" />
<glyph unicode="&#xbf;" horiz-adv-x="835" d="M51 -76q15 89 51.5 162.5t85.5 123t111.5 85t125.5 54t130 24.5l49 164h127l-18 -250l-37 -29q-50 6 -113 -2q-121 -15 -197.5 -101.5t-105.5 -226.5q-18 -106 -15 -176.5t17 -109.5q54 -33 150 -33q32 0 60.5 4t41.5 8l12 4l49 176h127l-10 -227q-5 -3 -14 -9t-40 -20.5 t-65 -25.5t-87.5 -20t-108.5 -9q-80 0 -145 24.5t-114.5 77t-66.5 135t0 197.5zM584 811q4 29 63 80t84 51q24 0 65.5 -50.5t37.5 -80.5q-4 -29 -63.5 -79t-84.5 -50q-24 0 -65 50.5t-37 78.5z" />
<glyph unicode="&#xc0;" horiz-adv-x="1249" d="M-33 80l166 51l586 1212h129l194 -1212l144 -51l-33 -80h-448l-13 80l148 49l-54 301h-364l-143 -299l147 -51l-35 -80h-411zM479 545h291l-72 463zM545 1638l106 138l328 -224l-53 -77z" />
<glyph unicode="&#xc1;" horiz-adv-x="1249" d="M-33 80l166 51l586 1212h129l194 -1212l144 -51l-33 -80h-448l-13 80l148 49l-54 301h-364l-143 -299l147 -51l-35 -80h-411zM479 545h291l-72 463zM625 1559l383 215l63 -152l-407 -143z" />
<glyph unicode="&#xc2;" horiz-adv-x="1249" d="M-33 80l166 51l586 1212h129l194 -1212l144 -51l-33 -80h-448l-13 80l148 49l-54 301h-364l-143 -299l147 -51l-35 -80h-411zM479 545h291l-72 463zM522 1522l279 252h102l193 -252l-76 -60l-195 156l-250 -156z" />
<glyph unicode="&#xc3;" horiz-adv-x="1259" d="M-23 80l166 51l584 1212h129l195 -1212l145 -51l-35 -80h-448l-11 80l148 49l-55 301h-363l-143 -299l147 -51l-35 -80h-411zM487 545h291l-69 463zM532 1536q34 77 81 127.5t107.5 68.5t125.5 -22l90 -55q44 -26 83 -3t83 79l65 -37q-52 -120 -137 -175t-178 1l-90 55 q-41 25 -81 2t-85 -78z" />
<glyph unicode="&#xc4;" horiz-adv-x="1249" d="M-33 80l166 51l586 1212h129l194 -1212l144 -51l-33 -80h-448l-13 80l148 49l-54 301h-364l-143 -299l147 -51l-35 -80h-411zM479 545h291l-72 463zM528 1645q4 29 63.5 79t84.5 50q24 0 65 -49.5t37 -79.5q-4 -29 -63 -79t-84 -50q-24 0 -65.5 49.5t-37.5 79.5z M866 1645q4 29 63.5 79t84.5 50q24 0 65 -49.5t37 -79.5q-4 -29 -63 -79t-84 -50q-24 0 -65.5 49.5t-37.5 79.5z" />
<glyph unicode="&#xc5;" horiz-adv-x="1249" d="M-33 80l166 51l586 1212h129l194 -1212l144 -51l-33 -80h-448l-13 80l148 49l-54 301h-364l-143 -299l147 -51l-35 -80h-411zM479 545h291l-72 463zM641 1616q6 40 97.5 119.5t127.5 79.5q37 0 100 -79t56 -120q-7 -40 -98 -118.5t-127 -78.5q-37 0 -100 78t-56 119z M760 1616q-2 -14 21.5 -45t35.5 -31q13 0 47.5 31t36.5 45q3 14 -20.5 44t-36.5 30q-12 0 -46.5 -30.5t-37.5 -43.5z" />
<glyph unicode="&#xc6;" horiz-adv-x="1675" d="M-14 80l176 51l860 1067l-117 47l35 78h840l-70 -279h-123q0 27 -2 83t-2 85h-356l-74 -467l-2 -2h254l74 146l75 -29l-59 -346l-84 -29l-25 146h-256l3 -2l-78 -475l-4 -43h366l60 168h122l-20 -279h-854l-14 78l151 53l47 299h-356l-240 -299l131 -51l-45 -80h-411z M647 545h283l69 436z" />
<glyph unicode="&#xc7;" horiz-adv-x="1007" d="M117 438q-3 98 16 224q60 335 235.5 508t422.5 173q84 0 157 -18.5t104 -36.5l31 -18l-73 -260h-136l9 207q-60 12 -113 12q-45 0 -86 -11t-83.5 -36t-80 -68.5t-71 -104.5t-60.5 -149.5t-45 -197.5q-25 -152 -12 -269q20 -299 268 -299q78 0 161 20t138 44l21 -99 q-57 -30 -151.5 -53t-195.5 -26l-51 -132q99 5 158 -40t43 -134q-16 -93 -103 -142.5t-202 -49.5q-96 0 -158 39l39 82q54 -23 123 -23q56 0 90.5 25.5t42.5 70.5q7 44 -18.5 65t-81.5 21q-40 0 -72 -8l-21 27l103 207q-165 25 -255 137.5t-93 312.5z" />
<glyph unicode="&#xc8;" horiz-adv-x="995" d="M25 78l151 53l172 1061l-131 53l37 78h838l-68 -279h-123l-6 168h-354l-76 -467v-2h254l74 146l73 -29l-57 -346l-84 -29l-25 146h-256l2 -2l-84 -518h369l57 168h125l-20 -279h-854zM477 1638l105 138l327 -224l-53 -77z" />
<glyph unicode="&#xc9;" horiz-adv-x="995" d="M25 78l151 53l172 1061l-131 53l37 78h838l-68 -279h-123l-6 168h-354l-76 -467v-2h254l74 146l73 -29l-57 -346l-84 -29l-25 146h-256l2 -2l-84 -518h369l57 168h125l-20 -279h-854zM557 1559l385 215l62 -152l-406 -143z" />
<glyph unicode="&#xca;" horiz-adv-x="995" d="M25 78l151 53l172 1061l-131 53l37 78h838l-68 -279h-123l-6 168h-354l-76 -467v-2h254l74 146l73 -29l-57 -346l-84 -29l-25 146h-256l2 -2l-84 -518h369l57 168h125l-20 -279h-854zM453 1522l278 252h103l192 -252l-76 -60l-194 156l-250 -156z" />
<glyph unicode="&#xcb;" horiz-adv-x="995" d="M25 78l151 53l172 1061l-131 53l37 78h838l-68 -279h-123l-6 168h-354l-76 -467v-2h254l74 146l73 -29l-57 -346l-84 -29l-25 146h-256l2 -2l-84 -518h369l57 168h125l-20 -279h-854zM451 1645q4 29 63 79t84 50q23 0 64.5 -50t37.5 -79q-6 -29 -65 -79t-82 -50 q-25 0 -66.5 50t-35.5 79zM791 1645q4 29 63 79t84 50q23 0 64.5 -50t37.5 -79q-6 -29 -65 -79t-82 -50q-25 0 -66.5 50t-35.5 79z" />
<glyph unicode="&#xcc;" horiz-adv-x="591" d="M25 78l149 53l172 1061l-129 53l37 78h420l12 -78l-149 -53l-172 -1061l131 -53l-37 -78h-420zM260 1638l105 138l327 -224l-53 -77z" />
<glyph unicode="&#xcd;" horiz-adv-x="591" d="M25 78l149 53l172 1061l-129 53l37 78h420l12 -78l-149 -53l-172 -1061l131 -53l-37 -78h-420zM289 1559l385 215l61 -152l-405 -143z" />
<glyph unicode="&#xce;" horiz-adv-x="591" d="M25 78l149 53l172 1061l-129 53l37 78h420l12 -78l-149 -53l-172 -1061l131 -53l-37 -78h-420zM211 1522l281 252h100l192 -252l-75 -60l-195 156l-250 -156z" />
<glyph unicode="&#xcf;" horiz-adv-x="591" d="M25 78l149 53l172 1061l-129 53l37 78h420l12 -78l-149 -53l-172 -1061l131 -53l-37 -78h-420zM213 1645q4 29 63 79t84 50q23 0 65 -50t38 -79q-6 -29 -65.5 -79t-82.5 -50q-25 0 -66.5 50t-35.5 79zM553 1645q4 29 63 79t84 50q23 0 65 -50t38 -79q-6 -29 -65.5 -79 t-82.5 -50q-25 0 -66.5 50t-35.5 79z" />
<glyph unicode="&#xd0;" horiz-adv-x="1191" d="M14 78l152 53l76 469l-152 4l21 123l151 4l76 461l-129 53l35 78h415q289 0 414.5 -117.5t116.5 -367.5q-17 -430 -197.5 -634t-548.5 -204h-415zM352 111q42 -7 109 -7q106 0 185.5 28.5t143 93t106 172t67.5 264.5q17 104 20 196q1 194 -83 277.5t-257 83.5l-111 -5 l-77 -479l282 10l-26 -159l-279 8z" />
<glyph unicode="&#xd1;" horiz-adv-x="1245" d="M25 78l149 53l172 1061l-129 53l37 78h336l350 -942l131 811l-129 51l37 80h381l10 -80l-147 -51l-197 -1212h-158l-395 1067l-147 -916l131 -53l-37 -78h-383zM573 1536q34 77 81 127.5t107.5 68.5t125.5 -22l90 -55q44 -26 83 -3t83 79l65 -37q-52 -120 -137 -175 t-178 1l-90 55q-41 25 -81 2t-85 -78z" />
<glyph unicode="&#xd2;" horiz-adv-x="1179" d="M115 434q-1 86 8 173.5t32 177.5t58 171t87.5 152.5t118 123t153.5 81.5t190 30q117 0 201.5 -35.5t132 -100t69.5 -143t23 -177.5q2 -89 -19 -225q-18 -109 -47 -202.5t-79.5 -184t-118 -154t-166 -102.5t-217.5 -39q-93 0 -166 23.5t-121 64t-79.5 99t-45 124 t-14.5 143.5zM324 436q-7 -346 235 -346q86 0 157 49t118.5 128.5t80.5 184.5t48.5 213t17.5 218q4 350 -238 350q-85 0 -156 -49.5t-118 -129.5t-80 -185.5t-48.5 -214t-16.5 -218.5zM555 1638l104 138l328 -224l-53 -77z" />
<glyph unicode="&#xd3;" horiz-adv-x="1179" d="M115 434q-1 86 8 173.5t32 177.5t58 171t87.5 152.5t118 123t153.5 81.5t190 30q117 0 201.5 -35.5t132 -100t69.5 -143t23 -177.5q2 -89 -19 -225q-18 -109 -47 -202.5t-79.5 -184t-118 -154t-166 -102.5t-217.5 -39q-93 0 -166 23.5t-121 64t-79.5 99t-45 124 t-14.5 143.5zM324 436q-7 -346 235 -346q86 0 157 49t118.5 128.5t80.5 184.5t48.5 213t17.5 218q4 350 -238 350q-85 0 -156 -49.5t-118 -129.5t-80 -185.5t-48.5 -214t-16.5 -218.5zM653 1559l385 215l62 -152l-406 -143z" />
<glyph unicode="&#xd4;" horiz-adv-x="1179" d="M115 434q-1 86 8 173.5t32 177.5t58 171t87.5 152.5t118 123t153.5 81.5t190 30q117 0 201.5 -35.5t132 -100t69.5 -143t23 -177.5q2 -89 -19 -225q-18 -109 -47 -202.5t-79.5 -184t-118 -154t-166 -102.5t-217.5 -39q-93 0 -166 23.5t-121 64t-79.5 99t-45 124 t-14.5 143.5zM324 436q-7 -346 235 -346q86 0 157 49t118.5 128.5t80.5 184.5t48.5 213t17.5 218q4 350 -238 350q-85 0 -156 -49.5t-118 -129.5t-80 -185.5t-48.5 -214t-16.5 -218.5zM559 1522l279 252h102l193 -252l-76 -60l-195 156l-250 -156z" />
<glyph unicode="&#xd5;" horiz-adv-x="1179" d="M115 434q-1 86 8 173.5t32 177.5t58 171t87.5 152.5t118 123t153.5 81.5t190 30q117 0 201.5 -35.5t132 -100t69.5 -143t23 -177.5q2 -89 -19 -225q-18 -109 -47 -202.5t-79.5 -184t-118 -154t-166 -102.5t-217.5 -39q-93 0 -166 23.5t-121 64t-79.5 99t-45 124 t-14.5 143.5zM324 436q-7 -346 235 -346q86 0 157 49t118.5 128.5t80.5 184.5t48.5 213t17.5 218q4 350 -238 350q-85 0 -156 -49.5t-118 -129.5t-80 -185.5t-48.5 -214t-16.5 -218.5zM532 1536q34 77 81 127.5t107.5 68.5t125.5 -22l90 -55q44 -26 83 -3t83 79l65 -37 q-52 -120 -137 -175t-178 1l-90 55q-41 25 -81 2t-85 -78z" />
<glyph unicode="&#xd6;" horiz-adv-x="1179" d="M115 434q-1 86 8 173.5t32 177.5t58 171t87.5 152.5t118 123t153.5 81.5t190 30q117 0 201.5 -35.5t132 -100t69.5 -143t23 -177.5q2 -89 -19 -225q-18 -109 -47 -202.5t-79.5 -184t-118 -154t-166 -102.5t-217.5 -39q-93 0 -166 23.5t-121 64t-79.5 99t-45 124 t-14.5 143.5zM324 436q-7 -346 235 -346q86 0 157 49t118.5 128.5t80.5 184.5t48.5 213t17.5 218q4 350 -238 350q-85 0 -156 -49.5t-118 -129.5t-80 -185.5t-48.5 -214t-16.5 -218.5zM528 1645q4 29 63.5 79t84.5 50q23 0 64.5 -50t37.5 -79q-6 -29 -65 -79t-82 -50 q-25 0 -67 50t-36 79zM868 1645q4 29 63.5 79t84.5 50q23 0 64.5 -50t37.5 -79q-6 -29 -65 -79t-82 -50q-25 0 -67 50t-36 79z" />
<glyph unicode="&#xd7;" horiz-adv-x="1159" d="M264 410l311 262l-206 250l114 94l205 -248l311 262l78 -94l-309 -262l207 -250l-115 -94l-207 248l-309 -263z" />
<glyph unicode="&#xd8;" horiz-adv-x="1216" d="M23 -121l180 258q-76 116 -76 305q0 87 10 173.5t33 176.5t58 169.5t87.5 150t117 121.5t152.5 80.5t189 29.5q142 0 238 -55l151 215l111 -61l-166 -236q92 -113 92 -338q0 -123 -20.5 -243t-69 -238t-120.5 -207t-185 -144.5t-252 -55.5q-162 0 -260 67l-162 -229z M336 416q0 -42 6 -82l580 825q-58 74 -166 74q-71 0 -130.5 -32t-102 -84.5t-76.5 -127.5t-55 -154.5t-36 -172.5q-20 -123 -20 -246zM389 182q60 -92 182 -92q71 0 131.5 32t103 84.5t76.5 128t55 155t36 172.5q33 219 4 360z" />
<glyph unicode="&#xd9;" horiz-adv-x="1247" d="M205 1245l37 78h426l12 -78l-150 -53l-94 -578q-33 -177 -26 -313q6 -106 48.5 -158.5t133.5 -52.5q165 0 252.5 121.5t132.5 402.5l94 578l-129 53l35 78h377l12 -78l-149 -53l-95 -578q-21 -126 -47.5 -218.5t-69 -174.5t-100.5 -132.5t-141 -79.5t-191 -29 q-99 0 -168.5 21t-111 63.5t-61 100.5t-21.5 138q-3 111 31 311l94 578zM575 1638l105 138l328 -224l-54 -77z" />
<glyph unicode="&#xda;" horiz-adv-x="1247" d="M205 1245l37 78h426l12 -78l-150 -53l-94 -578q-33 -177 -26 -313q6 -106 48.5 -158.5t133.5 -52.5q165 0 252.5 121.5t132.5 402.5l94 578l-129 53l35 78h377l12 -78l-149 -53l-95 -578q-21 -126 -47.5 -218.5t-69 -174.5t-100.5 -132.5t-141 -79.5t-191 -29 q-99 0 -168.5 21t-111 63.5t-61 100.5t-21.5 138q-3 111 31 311l94 578zM678 1559l385 215l61 -152l-405 -143z" />
<glyph unicode="&#xdb;" horiz-adv-x="1247" d="M205 1245l37 78h426l12 -78l-150 -53l-94 -578q-33 -177 -26 -313q6 -106 48.5 -158.5t133.5 -52.5q165 0 252.5 121.5t132.5 402.5l94 578l-129 53l35 78h377l12 -78l-149 -53l-95 -578q-21 -126 -47.5 -218.5t-69 -174.5t-100.5 -132.5t-141 -79.5t-191 -29 q-99 0 -168.5 21t-111 63.5t-61 100.5t-21.5 138q-3 111 31 311l94 578zM563 1522l279 252h102l193 -252l-76 -60l-195 156l-250 -156z" />
<glyph unicode="&#xdc;" horiz-adv-x="1247" d="M205 1245l37 78h426l12 -78l-150 -53l-94 -578q-33 -177 -26 -313q6 -106 48.5 -158.5t133.5 -52.5q165 0 252.5 121.5t132.5 402.5l94 578l-129 53l35 78h377l12 -78l-149 -53l-95 -578q-21 -126 -47.5 -218.5t-69 -174.5t-100.5 -132.5t-141 -79.5t-191 -29 q-99 0 -168.5 21t-111 63.5t-61 100.5t-21.5 138q-3 111 31 311l94 578zM578 1645q4 29 63 79t84 50q23 0 64.5 -50t37.5 -79q-6 -29 -65 -79t-82 -50q-25 0 -66.5 50t-35.5 79zM915 1645q4 29 63.5 79t84.5 50q23 0 64.5 -50t37.5 -79q-6 -29 -65 -79t-82 -50q-25 0 -67 50 t-36 79z" />
<glyph unicode="&#xdd;" horiz-adv-x="1146" d="M180 1245l35 78h432l10 -78l-157 -53l159 -465l336 463l-149 55l37 78h399l12 -78l-149 -53l-436 -594l-76 -467l131 -53l-37 -78h-420l-12 78l147 53l72 436l-217 631zM616 1559l385 215l62 -152l-406 -143z" />
<glyph unicode="&#xde;" horiz-adv-x="1021" d="M39 78l149 53l172 1061l-129 53l35 78h422l10 -78l-147 -53l-23 -143h97q220 0 329.5 -65.5t110.5 -215.5q4 -111 -33.5 -201t-106 -147.5t-160.5 -88t-200 -30.5q-57 0 -139 8l20 101q46 -7 136 -7q142 4 215.5 100t68.5 257q-3 94 -63.5 139t-198.5 45q-70 0 -94 -4 l-131 -809l131 -53l-37 -78h-420z" />
<glyph unicode="&#xdf;" horiz-adv-x="1077" d="M-190 -459q256 343 274 459l135 813l-115 10q0 14 -1 43t-1 45l138 11l10 59q21 116 57 199t74.5 128t91.5 70.5t95.5 32t99.5 6.5q50 0 101.5 -11.5t98.5 -35t81.5 -56t52 -77.5t10.5 -96q-3 -26 -11 -49t-24 -46t-27.5 -38.5t-37 -38.5t-37 -33t-42.5 -34.5t-40 -31.5 q-61 -56 -88 -92t-31 -76q-7 -50 13.5 -83.5t82.5 -79.5q59 -41 98 -74t71 -73.5t43.5 -85.5t4.5 -97q-33 -229 -342 -229q-48 0 -89.5 6.5t-77 21t-56 41t-21.5 62.5q0 42 10.5 86t21.5 67l11 23h109l14 -187q47 -14 90 -14q129 0 146 107q10 58 -17 98.5t-98 87.5 q-220 151 -188 319q9 52 43 102t77.5 90t87 78t77 82t40.5 87q13 85 -29.5 131.5t-133.5 46.5q-42 0 -72 -12t-62 -48t-57 -111.5t-43 -191.5l-158 -956q-6 -35 -20 -70t-44 -79.5t-54 -77t-77.5 -91.5t-84 -92t-101.5 -108z" />
<glyph unicode="&#xe0;" horiz-adv-x="921" d="M66 289q4 103 18.5 192.5t47.5 176t81 148t123 99t170 37.5q83 0 156 -55l45 55h124l-137 -829h127v-76q-122 -57 -198 -57q-58 0 -89.5 24t-25.5 82l4 49q-67 -65 -140 -110t-128 -45q-85 0 -133.5 78.5t-44.5 230.5zM258 303q-6 -129 16 -190q49 17 122.5 62.5 t135.5 96.5l84 500q-3 8 -11 19.5t-36.5 27t-66.5 15.5q-52 0 -94.5 -39t-68 -96.5t-44 -133t-26.5 -139t-11 -123.5zM311 1237l107 137l327 -223l-53 -78z" />
<glyph unicode="&#xe1;" horiz-adv-x="921" d="M66 289q4 103 18.5 192.5t47.5 176t81 148t123 99t170 37.5q83 0 156 -55l45 55h124l-137 -829h127v-76q-122 -57 -198 -57q-58 0 -89.5 24t-25.5 82l4 49q-67 -65 -140 -110t-128 -45q-85 0 -133.5 78.5t-44.5 230.5zM258 303q-6 -129 16 -190q49 17 122.5 62.5 t135.5 96.5l84 500q-3 8 -11 19.5t-36.5 27t-66.5 15.5q-52 0 -94.5 -39t-68 -96.5t-44 -133t-26.5 -139t-11 -123.5zM369 1157l383 215l63 -151l-407 -144z" />
<glyph unicode="&#xe2;" horiz-adv-x="921" d="M66 289q4 103 18.5 192.5t47.5 176t81 148t123 99t170 37.5q83 0 156 -55l45 55h124l-137 -829h127v-76q-122 -57 -198 -57q-58 0 -89.5 24t-25.5 82l4 49q-67 -65 -140 -110t-128 -45q-85 0 -133.5 78.5t-44.5 230.5zM258 303q-6 -129 16 -190q49 17 122.5 62.5 t135.5 96.5l84 500q-3 8 -11 19.5t-36.5 27t-66.5 15.5q-52 0 -94.5 -39t-68 -96.5t-44 -133t-26.5 -139t-11 -123.5zM268 1120l281 252h100l193 -252l-76 -59l-195 156l-249 -156z" />
<glyph unicode="&#xe3;" horiz-adv-x="946" d="M66 289q4 103 18.5 192.5t47.5 176t81 148t123 99t170 37.5q83 0 156 -55l45 55h124l-137 -829h127v-76q-122 -57 -198 -57q-58 0 -89.5 24t-25.5 82l4 49q-67 -65 -140 -110t-128 -45q-85 0 -133.5 78.5t-44.5 230.5zM258 303q-6 -129 16 -190q49 17 122.5 62.5 t135.5 96.5l84 500q-3 8 -11 19.5t-36.5 27t-66.5 15.5q-52 0 -94.5 -39t-68 -96.5t-44 -133t-26.5 -139t-11 -123.5zM260 1135q42 95 108 152t140 48q20 -2 67 -26l91 -56q18 -11 37 -12t34 4.5t33 20.5t30.5 28.5t30.5 34.5l66 -37q-25 -56 -58 -99t-74.5 -71.5t-86.5 -30 t-96 26.5l-93 56q-41 25 -80.5 1.5t-82.5 -77.5z" />
<glyph unicode="&#xe4;" horiz-adv-x="929" d="M66 289q4 103 18.5 192.5t47.5 176t81 148t123 99t170 37.5q83 0 156 -55l45 55h124l-137 -829h127v-76q-122 -57 -198 -57q-58 0 -89.5 24t-25.5 82l4 49q-67 -65 -140 -110t-128 -45q-85 0 -133.5 78.5t-44.5 230.5zM258 303q-6 -129 16 -190q49 17 122.5 62.5 t135.5 96.5l84 500q-3 8 -11 19.5t-36.5 27t-66.5 15.5q-52 0 -94.5 -39t-68 -96.5t-44 -133t-26.5 -139t-11 -123.5zM258 1243q4 29 63.5 79t84.5 50q24 0 65 -49.5t37 -79.5q-4 -29 -63.5 -79t-84.5 -50q-24 0 -65 49.5t-37 79.5zM614 1243q4 29 63.5 79t84.5 50 q24 0 65 -49.5t37 -79.5q-4 -29 -63 -79t-84 -50q-24 0 -65.5 49.5t-37.5 79.5z" />
<glyph unicode="&#xe5;" horiz-adv-x="921" d="M66 289q4 103 18.5 192.5t47.5 176t81 148t123 99t170 37.5q83 0 156 -55l45 55h124l-137 -829h127v-76q-122 -57 -198 -57q-58 0 -89.5 24t-25.5 82l4 49q-67 -65 -140 -110t-128 -45q-85 0 -133.5 78.5t-44.5 230.5zM258 303q-6 -129 16 -190q49 17 122.5 62.5 t135.5 96.5l84 500q-3 8 -11 19.5t-36.5 27t-66.5 15.5q-52 0 -94.5 -39t-68 -96.5t-44 -133t-26.5 -139t-11 -123.5zM379 1214q5 26 51 74.5t99 86.5t77 38q36 0 98.5 -79.5t55.5 -119.5q-6 -40 -96.5 -118t-128.5 -78q-36 0 -99.5 78t-56.5 118zM500 1214 q-3 -14 20.5 -44.5t36.5 -30.5q12 0 46.5 31t37.5 44q2 14 -21.5 44t-35.5 30q-14 0 -48.5 -30.5t-35.5 -43.5z" />
<glyph unicode="&#xe6;" horiz-adv-x="1290" d="M68 289q4 103 18.5 192.5t47.5 176t81 148t123 99t170 37.5q88 0 156 -55l38 55h107l-18 -115q87 115 225 115q114 0 174.5 -58.5t58.5 -154.5q-3 -53 -29.5 -97t-72 -76t-81 -50t-83.5 -37q-43 -18 -125 -38t-113 -25q-2 -10 -2 -29q-6 -55 -6 -115q0 -59 4.5 -93 t18 -47.5t23 -15.5t34.5 -2q48 0 109.5 23.5t91.5 41t87 54.5q9 5 13 8l49 -77q-62 -65 -163.5 -119.5t-192.5 -54.5q-208 0 -254 190q-206 -190 -311 -190q-85 0 -133.5 78.5t-44.5 230.5zM260 303q-6 -129 16 -190q50 17 124 62.5t135 96.5l86 500l-2 3q-2 3 -3.5 5.5 t-5 7.5t-7.5 8.5t-10 8.5t-12 9t-14.5 8t-17.5 6.5t-21 4t-24 1.5q-52 0 -94.5 -39t-68 -96.5t-44 -133t-26.5 -139t-11 -123.5zM764 508q43 12 87.5 30.5t95 47t83.5 68.5t37 85q4 59 -15 77t-65 18q-72 0 -141.5 -101t-81.5 -225z" />
<glyph unicode="&#xe7;" horiz-adv-x="792" d="M47 -489l39 81q51 -22 121 -22q88 0 115 68q19 28 16 57q-3 57 -98 57q-40 0 -72 -8l-21 27l111 221q-181 48 -172 307q8 295 120.5 469t323.5 174q48 0 91.5 -6.5t71.5 -15t49 -17.5t30 -15l10 -7l-63 -232h-131l4 172q-26 13 -68 13q-55 0 -99.5 -43.5t-71.5 -108 t-45 -145t-25 -149.5t-7 -126q0 -46 4 -77t9.5 -47t18 -24t21.5 -9t29 -1q111 0 267 107l55 -82q-56 -53 -146.5 -99t-171.5 -50l-53 -142q98 5 156.5 -40t42.5 -134q-16 -93 -103 -142.5t-202 -49.5q-94 0 -156 39z" />
<glyph unicode="&#xe8;" horiz-adv-x="804" d="M63 299q4 140 32.5 255t81.5 203t136.5 136.5t190.5 48.5q131 0 198.5 -58.5t65.5 -154.5q-9 -155 -244 -252q-107 -47 -260 -69q-6 -81 -6 -95q-2 -35 -2 -63.5t0.5 -49.5t5 -37t7 -26t10.5 -16.5t11.5 -10t14.5 -5t14.5 -1.5h16.5q48 0 109.5 23.5t91.5 41t87 54.5 q9 5 13 8l49 -77q-62 -65 -163.5 -119.5t-192.5 -54.5q-133 0 -202 80t-65 239zM254 1237l106 137l328 -223l-53 -78zM281 510q42 10 88.5 28.5t96 47t83 69t37.5 84.5q4 61 -15.5 78t-74.5 17q-78 0 -131.5 -91.5t-83.5 -232.5z" />
<glyph unicode="&#xe9;" horiz-adv-x="804" d="M63 299q4 140 32.5 255t81.5 203t136.5 136.5t190.5 48.5q131 0 198.5 -58.5t65.5 -154.5q-9 -155 -244 -252q-107 -47 -260 -69q-6 -81 -6 -95q-2 -35 -2 -63.5t0.5 -49.5t5 -37t7 -26t10.5 -16.5t11.5 -10t14.5 -5t14.5 -1.5h16.5q48 0 109.5 23.5t91.5 41t87 54.5 q9 5 13 8l49 -77q-62 -65 -163.5 -119.5t-192.5 -54.5q-133 0 -202 80t-65 239zM281 510q42 10 88.5 28.5t96 47t83 69t37.5 84.5q4 61 -15.5 78t-74.5 17q-78 0 -131.5 -91.5t-83.5 -232.5zM311 1157l383 215l64 -151l-408 -144z" />
<glyph unicode="&#xea;" horiz-adv-x="806" d="M63 299q4 140 32.5 255t81.5 203t136.5 136.5t190.5 48.5q131 0 198.5 -58.5t65.5 -154.5q-9 -155 -244 -252q-107 -47 -260 -69q-6 -81 -6 -95q-2 -35 -2 -63.5t0.5 -49.5t5 -37t7 -26t10.5 -16.5t11.5 -10t14.5 -5t14.5 -1.5h16.5q48 0 109.5 23.5t91.5 41t87 54.5 q9 5 13 8l49 -77q-62 -65 -163.5 -119.5t-192.5 -54.5q-133 0 -202 80t-65 239zM213 1120l281 252h100l192 -252l-75 -59l-195 156l-250 -156zM281 510q42 10 88.5 28.5t96 47t83 69t37.5 84.5q4 61 -15.5 78t-74.5 17q-78 0 -131.5 -91.5t-83.5 -232.5z" />
<glyph unicode="&#xeb;" horiz-adv-x="837" d="M63 299q4 140 32.5 255t81.5 203t136.5 136.5t190.5 48.5q131 0 198.5 -58.5t65.5 -154.5q-9 -155 -244 -252q-107 -47 -260 -69q-6 -81 -6 -95q-2 -35 -2 -63.5t0.5 -49.5t5 -37t7 -26t10.5 -16.5t11.5 -10t14.5 -5t14.5 -1.5h16.5q48 0 109.5 23.5t91.5 41t87 54.5 q9 5 13 8l49 -77q-62 -65 -163.5 -119.5t-192.5 -54.5q-133 0 -202 80t-65 239zM242 1243q4 29 63 79t84 50q24 0 65.5 -49.5t37.5 -79.5q-4 -29 -63.5 -79t-84.5 -50q-24 0 -65 49.5t-37 79.5zM281 510q42 10 88.5 28.5t96 47t83 69t37.5 84.5q4 61 -15.5 78t-74.5 17 q-78 0 -131.5 -91.5t-83.5 -232.5zM598 1243q4 29 63 79t84 50q24 0 65.5 -49.5t37.5 -79.5q-4 -29 -63.5 -79t-84.5 -50q-24 0 -65 49.5t-37 79.5z" />
<glyph unicode="&#xec;" horiz-adv-x="555" d="M104 825v82l351 35l-136 -829h125v-76q-122 -57 -196 -57q-140 0 -119 126l115 691zM115 1237l106 137l328 -223l-53 -78z" />
<glyph unicode="&#xed;" horiz-adv-x="555" d="M104 825v82l351 35l-136 -829h125v-76q-122 -57 -196 -57q-140 0 -119 126l115 691zM193 1157l382 215l64 -151l-408 -144z" />
<glyph unicode="&#xee;" horiz-adv-x="555" d="M84 1120l281 252h100l192 -252l-75 -59l-195 156l-250 -156zM104 825v82l351 35l-136 -829h125v-76q-122 -57 -196 -57q-140 0 -119 126l115 691z" />
<glyph unicode="&#xef;" horiz-adv-x="555" d="M104 825v82l351 35l-136 -829h125v-76q-122 -57 -196 -57q-140 0 -119 126l115 691zM123 1243q4 29 63 79t84 50q24 0 65.5 -49.5t37.5 -79.5q-4 -29 -63.5 -79t-84.5 -50q-24 0 -65 49.5t-37 79.5zM479 1243q4 29 63.5 79t84.5 50q24 0 65 -49.5t37 -79.5 q-4 -29 -63 -79t-84 -50q-24 0 -65.5 49.5t-37.5 79.5z" />
<glyph unicode="&#xf0;" horiz-adv-x="878" d="M68 322q8 137 38.5 247.5t84.5 195t139 131t194 46.5q52 0 86 -12q-25 121 -90 215l-131 -109l-65 64l118 129q-44 42 -147 102l55 86q93 -34 187 -94l141 150l102 -99l-151 -133q112 -117 152.5 -272t27.5 -373q-8 -135 -38.5 -244.5t-85.5 -194t-140.5 -131 t-196.5 -46.5q-144 0 -217 84t-63 258zM258 352q-12 -148 8.5 -206t89.5 -58q50 0 93 31.5t72 81t50.5 114t33.5 127.5t16 125q11 104 1 163t-33 80t-67 21q-63 0 -113 -46.5t-80.5 -121t-47.5 -153t-23 -158.5z" />
<glyph unicode="&#xf1;" horiz-adv-x="974" d="M104 825v82l353 35l-29 -172q77 65 169.5 118.5t170.5 53.5q76 0 109.5 -44.5t23.5 -113.5l-110 -671h124v-76q-122 -57 -196 -57q-137 0 -119 126l113 674q-21 3 -51 -6q-48 -7 -121.5 -46.5t-132.5 -84.5l-107 -643h-188l133 797zM322 1135q42 96 108 152.5t139 47.5 q21 -2 68 -26l90 -56q42 -26 80.5 -3t85.5 79l65 -37q-35 -76 -81.5 -126.5t-107.5 -69.5t-126 22l-92 56q-41 25 -81 1.5t-83 -77.5z" />
<glyph unicode="&#xf2;" horiz-adv-x="878" d="M63 299q9 296 127 469.5t340 173.5q296 0 287 -319q-5 -144 -35 -260.5t-86.5 -202.5t-144.5 -133t-201 -47q-296 0 -287 319zM256 246q1 -54 6.5 -86.5t20 -48t30 -19.5t43.5 -4q62 0 111.5 45.5t78.5 113.5t48 151.5t25.5 153t5.5 124.5q-1 70 -13.5 104.5t-31 42.5 t-56.5 8q-62 0 -111.5 -45.5t-78.5 -113.5t-48 -150.5t-25.5 -152.5t-4.5 -123zM291 1237l106 137l328 -223l-53 -78z" />
<glyph unicode="&#xf3;" horiz-adv-x="888" d="M63 299q9 296 127 469.5t340 173.5q296 0 287 -319q-5 -144 -35 -260.5t-86.5 -202.5t-144.5 -133t-201 -47q-296 0 -287 319zM256 246q1 -54 6.5 -86.5t20 -48t30 -19.5t43.5 -4q62 0 111.5 45.5t78.5 113.5t48 151.5t25.5 153t5.5 124.5q-1 70 -13.5 104.5t-31 42.5 t-56.5 8q-62 0 -111.5 -45.5t-78.5 -113.5t-48 -150.5t-25.5 -152.5t-4.5 -123zM389 1157l383 215l64 -151l-408 -144z" />
<glyph unicode="&#xf4;" horiz-adv-x="882" d="M63 299q9 296 127 469.5t340 173.5q296 0 287 -319q-5 -144 -35 -260.5t-86.5 -202.5t-144.5 -133t-201 -47q-296 0 -287 319zM256 246q1 -54 6.5 -86.5t20 -48t30 -19.5t43.5 -4q62 0 111.5 45.5t78.5 113.5t48 151.5t25.5 153t5.5 124.5q-1 70 -13.5 104.5t-31 42.5 t-56.5 8q-62 0 -111.5 -45.5t-78.5 -113.5t-48 -150.5t-25.5 -152.5t-4.5 -123zM268 1120l281 252h100l193 -252l-76 -59l-195 156l-249 -156z" />
<glyph unicode="&#xf5;" horiz-adv-x="899" d="M63 299q9 296 127 469.5t340 173.5q296 0 287 -319q-5 -144 -35 -260.5t-86.5 -202.5t-144.5 -133t-201 -47q-296 0 -287 319zM240 1135q42 96 108 152.5t139 47.5q21 -2 68 -26l90 -56q42 -26 80.5 -3t85.5 79l66 -37q-54 -119 -138.5 -174.5t-177.5 0.5l-92 56 q-41 25 -81 1.5t-83 -77.5zM256 246q1 -54 6.5 -86.5t20 -48t30 -19.5t43.5 -4q62 0 111.5 45.5t78.5 113.5t48 151.5t25.5 153t5.5 124.5q-1 70 -13.5 104.5t-31 42.5t-56.5 8q-62 0 -111.5 -45.5t-78.5 -113.5t-48 -150.5t-25.5 -152.5t-4.5 -123z" />
<glyph unicode="&#xf6;" horiz-adv-x="903" d="M63 299q9 296 127 469.5t340 173.5q296 0 287 -319q-5 -144 -35 -260.5t-86.5 -202.5t-144.5 -133t-201 -47q-296 0 -287 319zM256 246q1 -54 6.5 -86.5t20 -48t30 -19.5t43.5 -4q62 0 111.5 45.5t78.5 113.5t48 151.5t25.5 153t5.5 124.5q-1 70 -13.5 104.5t-31 42.5 t-56.5 8q-62 0 -111.5 -45.5t-78.5 -113.5t-48 -150.5t-25.5 -152.5t-4.5 -123zM279 1243q4 29 63 79t84 50q24 0 65 -49.5t37 -79.5q-4 -29 -63 -79t-84 -50q-24 0 -65 49.5t-37 79.5zM635 1243q4 29 63 79t84 50q24 0 65.5 -49.5t37.5 -79.5q-4 -29 -63.5 -79t-84.5 -50 q-24 0 -65 49.5t-37 79.5z" />
<glyph unicode="&#xf7;" horiz-adv-x="1169" d="M430 850q13 0 19 2q0 8 2 12q22 5 96 21t117.5 25t107 17.5t109.5 8.5l20 -29h2v-2q25 -48 25 -78q11 -36 8 -59q-3 0 -195 -28.5t-280 -28.5q-2 7 -12 35.5t-16.5 56t-2.5 47.5zM481 375q4 29 63.5 80t84.5 51q23 0 64.5 -51t37.5 -80q-6 -29 -65 -79t-82 -50 q-24 0 -66.5 50.5t-36.5 78.5z" />
<glyph unicode="&#xf8;" horiz-adv-x="903" d="M12 -76l111 162q-50 73 -47 213q9 296 127 469.5t340 173.5q90 0 155 -35l101 146l96 -58l-113 -161q50 -77 47 -211q-5 -144 -35 -260.5t-86.5 -202.5t-144.5 -133t-201 -47q-98 0 -159 34l-103 -145zM266 281l355 512q-15 38 -84 38q-59 0 -106.5 -41t-76 -100.5 t-48.5 -139t-28 -143t-12 -126.5zM283 131q8 -26 29 -34.5t57 -8.5q64 0 115.5 50t81.5 130t47 160.5t22 159.5q-4 15 -17 28q-183 -267 -335 -485z" />
<glyph unicode="&#xf9;" d="M121 825v82l352 35l-133 -803q21 0 51 6q47 7 121 46.5t133 84.5l107 646h188l-135 -809h127v-76q-123 -57 -197 -57q-83 0 -86 63q-35 44 -24 107q-163 -131 -289 -158q-54 -12 -100 -2q-52 8 -72 48.5t-12 96.5l108 662zM369 1237l106 137l328 -223l-53 -78z" />
<glyph unicode="&#xfa;" d="M121 825v82l352 35l-133 -803q21 0 51 6q47 7 121 46.5t133 84.5l107 646h188l-135 -809h127v-76q-123 -57 -197 -57q-83 0 -86 63q-35 44 -24 107q-163 -131 -289 -158q-54 -12 -100 -2q-52 8 -72 48.5t-12 96.5l108 662zM446 1157l383 215l64 -151l-408 -144z" />
<glyph unicode="&#xfb;" d="M121 825v82l352 35l-133 -803q21 0 51 6q47 7 121 46.5t133 84.5l107 646h188l-135 -809h127v-76q-123 -57 -197 -57q-83 0 -86 63q-35 44 -24 107q-163 -131 -289 -158q-54 -12 -100 -2q-52 8 -72 48.5t-12 96.5l108 662zM348 1120l281 252h100l193 -252l-76 -59 l-195 156l-250 -156z" />
<glyph unicode="&#xfc;" d="M121 825v82l352 35l-133 -803q21 0 51 6q47 7 121 46.5t133 84.5l107 646h188l-135 -809h127v-76q-123 -57 -197 -57q-83 0 -86 63q-35 44 -24 107q-163 -131 -289 -158q-54 -12 -100 -2q-52 8 -72 48.5t-12 96.5l108 662zM342 1243q4 29 63 79t84 50q24 0 65.5 -49.5 t37.5 -79.5q-4 -29 -63.5 -79t-84.5 -50q-24 0 -65 49.5t-37 79.5zM698 1243q4 29 63.5 79t84.5 50q24 0 65 -49.5t37 -79.5q-4 -29 -63 -79t-84 -50q-24 0 -65.5 49.5t-37.5 79.5z" />
<glyph unicode="&#xfd;" horiz-adv-x="890" d="M-248 -311l78 55l129 -127q51 43 129.5 137t149.5 195q0 10 -1 31.5t-1 31.5l-50 776l-161 35v84l335 35l48 -776q12 16 32 53q155 248 236 531l-137 124l47 68q53 -1 99.5 -11.5t87.5 -34t60 -67t7 -102.5q-67 -313 -434 -795q-72 -95 -128 -164.5t-120 -140t-115 -109 t-86 -40.5q-84 -6 -142 54.5t-63 156.5zM332 1157l383 215l63 -151l-407 -144z" />
<glyph unicode="&#xfe;" horiz-adv-x="931" d="M20 -502l299 1774l-153 31v77l364 37l-108 -633q66 66 139.5 112t128.5 46q85 0 133.5 -79t44.5 -230q-4 -104 -18 -193t-46 -176t-80.5 -148t-125.5 -98.5t-176 -37.5q-54 0 -129 30l-84 -512h-189zM313 129l9 -6q8 -6 11.5 -8t13 -7t17 -7.5t18.5 -6t23.5 -5t26.5 -1.5 q70 0 122 66.5t77 167t36 189.5t11 163q0 84 -19 133q-47 -15 -122.5 -61t-137.5 -97z" />
<glyph unicode="&#xff;" horiz-adv-x="890" d="M-248 -311l78 55l129 -127q51 43 129.5 137t149.5 195q0 10 -1 31.5t-1 31.5l-50 776l-161 35v84l335 35l48 -776q12 16 32 53q155 248 236 531l-137 124l47 68q53 -1 99.5 -11.5t87.5 -34t60 -67t7 -102.5q-67 -313 -434 -795q-72 -95 -128 -164.5t-120 -140t-115 -109 t-86 -40.5q-84 -6 -142 54.5t-63 156.5zM221 1243q4 29 63.5 79t84.5 50q24 0 65 -49.5t37 -79.5q-4 -29 -63 -79t-84 -50q-24 0 -65.5 49.5t-37.5 79.5zM578 1243q4 29 63 79t84 50q24 0 65 -49.5t37 -79.5q-4 -29 -63 -79t-84 -50q-24 0 -65 49.5t-37 79.5z" />
<glyph unicode="&#x152;" horiz-adv-x="1648" d="M117 485q4 87 16 170t36 169t58.5 161t85.5 142t114.5 114t148 74.5t182.5 27.5q81 0 153 -20h836l-70 -279h-123q0 27 -2 83t-2 85h-469q99 -121 99 -344q0 -33 -9 -125h203l72 146l76 -29l-58 -346l-86 -29l-24 146h-199q-66 -358 -252 -520h481l60 168h123l-21 -279 h-848q-82 -20 -161 -20q-99 0 -174.5 27t-122.5 72.5t-76.5 111t-39.5 137.5t-7 157zM324 436q0 -346 231 -346q85 0 155 49t117 128.5t80 184.5t48 213t16 218q1 77 -11 138.5t-38 110t-72.5 75t-110.5 26.5q-70 0 -128.5 -32t-100.5 -84.5t-75.5 -127.5t-54.5 -154.5 t-36 -172.5q-20 -130 -20 -226z" />
<glyph unicode="&#x153;" horiz-adv-x="1329" d="M63 299q5 194 56 335.5t155.5 224.5t255.5 83q172 0 234 -125q106 125 264 125q131 0 199 -58.5t65 -154.5q-2 -43 -22 -81t-45.5 -64t-64.5 -50t-68 -37t-66 -28q-104 -43 -233 -61q-13 -104 -11 -160q2 -96 25 -135l-2 -2q28 -7 57 -7q39 0 81 12t88 36.5t67.5 38 t62.5 40.5l51 -77q-64 -66 -165 -120t-193 -54q-160 0 -217 126q-111 -126 -289 -126q-144 0 -217.5 80t-67.5 239zM254 246q1 -54 6.5 -86.5t20 -48t30.5 -19.5t45 -4q61 0 110.5 45.5t78.5 113.5t48.5 151.5t26 153.5t5.5 124q-1 53 -7 85t-20.5 47t-30.5 19t-45 4 q-61 0 -110.5 -45.5t-78.5 -113.5t-48 -150.5t-25.5 -152t-5.5 -123.5zM807 510q43 11 88.5 29t95.5 46.5t83 68.5t36 85q4 61 -15 78t-73 17q-74 0 -138.5 -99.5t-76.5 -224.5z" />
<glyph unicode="&#x178;" horiz-adv-x="1146" d="M180 1245l35 78h432l10 -78l-157 -53l159 -465l336 463l-149 55l37 78h399l12 -78l-149 -53l-436 -594l-76 -467l131 -53l-37 -78h-420l-12 78l147 53l72 436l-217 631zM502 1645q4 29 63 79t84 50q23 0 65 -50t38 -79q-6 -29 -65.5 -79t-82.5 -50q-25 0 -66.5 50 t-35.5 79zM840 1645q4 29 63 79t84 50q23 0 65 -50t38 -79q-6 -29 -65.5 -79t-82.5 -50q-25 0 -66.5 50t-35.5 79z" />
<glyph unicode="&#x2c6;" horiz-adv-x="1003" d="M303 1120l281 252h100l193 -252l-76 -59l-195 156l-250 -156z" />
<glyph unicode="&#x2dc;" horiz-adv-x="1114" d="M330 1135q42 95 108 152t140 48q20 -2 67 -26l90 -56q42 -26 80.5 -3t85.5 79l66 -37q-54 -119 -138.5 -174.5t-177.5 0.5l-92 56q-41 25 -81 1.5t-83 -77.5z" />
<glyph unicode="&#x2000;" horiz-adv-x="907" />
<glyph unicode="&#x2001;" horiz-adv-x="1815" />
<glyph unicode="&#x2002;" horiz-adv-x="907" />
<glyph unicode="&#x2003;" horiz-adv-x="1815" />
<glyph unicode="&#x2004;" horiz-adv-x="605" />
<glyph unicode="&#x2005;" horiz-adv-x="453" />
<glyph unicode="&#x2006;" horiz-adv-x="302" />
<glyph unicode="&#x2007;" horiz-adv-x="302" />
<glyph unicode="&#x2008;" horiz-adv-x="226" />
<glyph unicode="&#x2009;" horiz-adv-x="363" />
<glyph unicode="&#x200a;" horiz-adv-x="100" />
<glyph unicode="&#x2010;" horiz-adv-x="831" d="M104 389l21 123l627 18l-27 -159z" />
<glyph unicode="&#x2011;" horiz-adv-x="831" d="M104 389l21 123l627 18l-27 -159z" />
<glyph unicode="&#x2012;" horiz-adv-x="831" d="M104 389l21 123l627 18l-27 -159z" />
<glyph unicode="&#x2013;" horiz-adv-x="1271" d="M104 389l21 123l1067 18l-29 -159z" />
<glyph unicode="&#x2014;" horiz-adv-x="1857" d="M104 389l19 123l1655 18l-27 -159z" />
<glyph unicode="&#x2018;" horiz-adv-x="419" d="M162 1159q11 66 67 143t170 150l43 -51q-93 -84 -100 -146q-1 -9 34 -52.5t32 -63.5q-4 -28 -64.5 -79.5t-83.5 -51.5q-25 0 -65.5 53t-32.5 98z" />
<glyph unicode="&#x2019;" horiz-adv-x="419" d="M180 1049q95 86 101 145q0 9 -34.5 52.5t-31.5 64.5q4 28 63.5 79.5t83.5 51.5q25 0 66 -53.5t33 -98.5q-11 -66 -67.5 -143t-170.5 -150z" />
<glyph unicode="&#x201a;" horiz-adv-x="440" d="M39 -156q94 88 100 146q0 9 -34 53.5t-31 65.5q4 28 63.5 78.5t83.5 50.5q25 0 65.5 -53.5t32.5 -98.5q-11 -66 -67 -143t-170 -148z" />
<glyph unicode="&#x201c;" horiz-adv-x="716" d="M162 1159q11 66 67 143t170 150l43 -51q-93 -84 -100 -146q-1 -9 34 -52.5t32 -63.5q-4 -28 -64.5 -79.5t-83.5 -51.5q-25 0 -65.5 53t-32.5 98zM459 1159q11 66 67 143t170 150l43 -51q-93 -84 -100 -146q-1 -9 34 -52.5t32 -63.5q-4 -28 -64.5 -79.5t-83.5 -51.5 q-25 0 -65.5 53t-32.5 98z" />
<glyph unicode="&#x201d;" horiz-adv-x="716" d="M180 1049q95 86 101 145q0 9 -34.5 52.5t-31.5 64.5q4 28 63.5 79.5t83.5 51.5q25 0 66 -53.5t33 -98.5q-11 -66 -67.5 -143t-170.5 -150zM477 1049q95 86 101 145q0 9 -34.5 52.5t-31.5 64.5q4 28 63.5 79.5t83.5 51.5q25 0 66 -53.5t33 -98.5q-11 -66 -67.5 -143 t-170.5 -150z" />
<glyph unicode="&#x201e;" horiz-adv-x="743" d="M39 -156q94 88 100 146q0 9 -34 53.5t-31 65.5q4 28 63.5 78.5t83.5 50.5q25 0 65.5 -53.5t32.5 -98.5q-11 -66 -67 -143t-170 -148zM344 -156q91 86 98 146q1 9 -33.5 54t-31.5 65q4 28 64 78.5t83 50.5q26 0 66.5 -53.5t32.5 -98.5q-11 -66 -67 -143t-169 -148z" />
<glyph unicode="&#x2022;" horiz-adv-x="630" d="M150 688q7 38 65 99.5t124 107t95 45.5q27 0 76.5 -45.5t87.5 -107t33 -99.5q-7 -37 -66 -98t-124.5 -105.5t-92.5 -44.5q-29 0 -79 45t-87.5 105.5t-31.5 97.5z" />
<glyph unicode="&#x2026;" horiz-adv-x="1282" d="M78 109q4 29 63 79t84 50q23 0 65 -50t38 -79q-6 -29 -65.5 -79t-82.5 -50q-25 0 -66.5 50t-35.5 79zM492 109q4 29 63 79t84 50q23 0 64.5 -50t37.5 -79q-6 -29 -65 -79t-82 -50q-25 0 -66.5 50t-35.5 79zM905 109q4 29 63.5 79t84.5 50q23 0 64.5 -50t37.5 -79 q-6 -29 -65 -79t-82 -50q-25 0 -67 50t-36 79z" />
<glyph unicode="&#x202f;" horiz-adv-x="363" />
<glyph unicode="&#x2039;" horiz-adv-x="739" d="M129 428l10 64l502 411l78 -78l-377 -364l248 -365l-105 -78z" />
<glyph unicode="&#x203a;" horiz-adv-x="739" d="M20 96l375 365l-245 364l102 78l358 -411l-12 -64l-502 -410z" />
<glyph unicode="&#x205f;" horiz-adv-x="453" />
<glyph unicode="&#x20ac;" horiz-adv-x="1169" d="M100 481l19 103q23 0 68 1t67 1q16 115 20 131l-129 4l19 102q24 0 70.5 1t68.5 1q81 260 247 389t390 129q86 0 160.5 -18.5t106.5 -36.5l32 -18l-80 -264h-133l8 206q-65 13 -116 13q-60 0 -114.5 -19.5t-108.5 -63t-101 -123t-80 -190.5l371 7l-21 -129l-379 6 q-2 -14 -6 -40t-7 -46.5t-5 -36.5l371 6l-21 -127l-360 6q-4 -200 70.5 -288.5t205.5 -88.5q49 0 127 13l62 204h133q-1 -44 -11 -264q-6 -3 -16 -7.5t-44 -17t-70.5 -22t-92 -17t-110.5 -7.5q-222 0 -345 124t-120 375q-24 0 -73 1t-73 1z" />
<glyph unicode="&#x2122;" horiz-adv-x="1155" d="M143 1243l15 168h436l-41 -168h-70v94h-65l-60 -338l62 -20l-21 -57h-223q0 9 1 28.5t1 28.5l66 18l61 340h-63l-31 -94h-68zM510 922v57l70 18l92 342l-60 19l21 53h176l43 -229l123 229h170v-55l-62 -17l-16 -342l57 -18l-18 -57h-215q0 9 1 28.5t1 28.5l55 18l15 230 l-121 -234h-70l-45 246l-63 -242l55 -18l-21 -57h-188z" />
<glyph unicode="&#xe000;" horiz-adv-x="942" d="M0 0v942h942v-942h-942z" />
</font>
</defs>
</svg>
