<?xml version="1.0" encoding="utf-8"?>
<!-- Generator: Adobe Illustrator 18.0.0, SVG Export Plug-In . SVG Version: 6.00 Build 0)  -->
<!DOCTYPE svg PUBLIC "-//W3C//DTD SVG 1.1//EN" "http://www.w3.org/Graphics/SVG/1.1/DTD/svg11.dtd">
<svg version="1.1" id="Layer_1" xmlns="http://www.w3.org/2000/svg" xmlns:xlink="http://www.w3.org/1999/xlink" x="0px" y="0px"
	 viewBox="354.6 0 250.9 560" style="enable-background:new 354.6 0 250.9 560;" xml:space="preserve">
<style type="text/css">
	.st0{fill:#FFFFFF;}
</style>
<g>
	<path class="st0" d="M522.4,173.1c-67.1-23-107.8-79.5-91.9-123.7c15.9-44.2,83-61.8,150.2-38.9"/>
	<polygon class="st0" points="605.4,33.6 556,171.4 522.4,173.1 578.9,10.6 	"/>
	<path class="st0" d="M522.4,388.6c-67.1,23-107.8,79.5-91.9,123.7c15.9,44.2,83,61.8,150.2,37.1"/>
	<polygon class="st0" points="605.4,528.2 556,388.6 522.4,388.6 578.9,549.4 	"/>
	<path class="st0" d="M354.6,279.1c0,97.2,31.8,159,74.2,233.2l35.3-42.4c-19.4-77.7-26.5-76-26.5-190.8
		c0-116.6,26.5-190.8,26.5-190.8l-35.3-42.4C386.4,120.1,354.6,173.1,354.6,279.1z"/>
</g>
</svg>
