<?xml version="1.0" encoding="utf-8"?>
<!-- Generator: Adobe Illustrator 18.0.0, SVG Export Plug-In . SVG Version: 6.00 Build 0)  -->
<!DOCTYPE svg PUBLIC "-//W3C//DTD SVG 1.1//EN" "http://www.w3.org/Graphics/SVG/1.1/DTD/svg11.dtd">
<svg version="1.1" id="Layer_1" xmlns="http://www.w3.org/2000/svg" xmlns:xlink="http://www.w3.org/1999/xlink" x="0px" y="0px"
	 viewBox="0 0 909.3 423.3" style="enable-background:new 0 0 909.3 423.3;" xml:space="preserve">
<style type="text/css">
	.st0{fill:#FFFFFF;}
</style>
<path class="st0" d="M789.3,63c38,0,67.7,35.1,58.7,74.6c-5,21.8-22.7,39.5-44.5,44.4c-39.5,9-74.5-20.7-74.5-58.7
	C729,90,756,63,789.3,63 M565.9,63c37.9,0,67.8,35.1,58.7,74.6c-5.2,22.6-24.2,40.7-47,44.9c-38.4,7.2-72-22.1-72-59.2
	C505.6,90,532.6,63,565.9,63 M342.5,183.6c-37.9,0-67.7-35-58.7-74.5c5-21.8,22.7-39.5,44.5-44.5c39.5-9,74.5,20.8,74.5,58.7
	C402.9,156.6,375.9,183.6,342.5,183.6 M863.6,217.4c29.6-23.4,47.9-60.4,45.5-101.5c-3.5-57.5-49.7-106-107-112
	c-56.3-5.8-105.6,27.3-124.5,75.6C660.1,34.9,616.7,3.3,565.9,3.3c-50.8,0-94.2,31.6-111.7,76.3C436.7,34.9,393.4,3.3,342.5,3.3
	c-50.8,0-94.2,31.6-111.7,76.3c-3.9-9.7-9-18.7-15.2-27c-2.6-3.4-5.2-6.7-8.1-9.9c0,0-0.4-0.3-1-0.9c-1.9-1.8-6.9-5.6-13.1-7.3
	c-6.7-1.8-15.6-2-25,6.9c-11.1,10.5-12.6,21.4-11.1,29.2c0.6,5,4.4,10.9,7.3,13.7c0.7,0.8,1.3,1.8,2,2.6c0.1,0,0.1,0.1,0.1,0.1
	c1.7,2.1,3.2,4.4,4.6,6.7c0.1,0.1,0.1,0.3,0.2,0.4c1.2,2,2.2,4,3.2,6.2c0.4,0.9,0.8,1.8,1.2,2.8c0.5,1.3,1,2.5,1.3,3.8
	c0.6,1.8,1.1,3.7,1.4,5.6c0.1,0.6,0.2,1.1,0.3,1.7c0.4,2.3,0.7,4.7,0.8,7.1c0.1,0.4,0.1,0.7,0.1,1.1c0.2,6.2-0.4,12.5-2.1,18.6
	c0,0,0,0.1,0,0.1c-0.6,2-1.3,4.1-2.1,6.1c-2.7,6.6-6.4,12.5-10.9,17.5c-0.1,0.1-0.2,0.3-0.4,0.4c-2.2,2.4-4.5,4.6-7,6.6
	c-0.1,0.1-0.3,0.1-0.3,0.2c-7.8,6.1-17.1,10.2-26.8,12c-2.2,0.4-4.5,0.5-6.7,0.6c-1.1,0.1-2.2,0.3-3.2,0.3c-2.5,0-5-0.2-7.5-0.4
	c-0.1,0-0.2,0-0.3,0c-1.7-0.2-3.4-0.6-5-0.9c-1.7-0.4-3.4-0.8-5.1-1.3c-1.1-0.3-2.2-0.7-3.4-1.1c-2.7-1-5.3-2.1-7.8-3.5
	c0,0-0.1,0-0.1,0c-2.8-1.5-5.5-3.3-8.1-5.3c-0.2-0.1-0.3-0.2-0.4-0.3c-2.5-2-4.8-4.2-7-6.5c-0.2-0.2-0.3-0.3-0.4-0.4
	c-4.5-5.1-8.3-11-11-17.6c-0.8-2-1.5-4-2.1-6.1c0,0,0,0,0-0.1c-1.7-6.2-2.4-12.5-2.1-18.6c0-0.4,0-0.7,0-1.1
	c0.1-2.4,0.4-4.8,0.8-7.1c0.1-0.5,0.2-1.1,0.3-1.7c0.4-1.9,0.9-3.7,1.4-5.6c0.4-1.3,0.9-2.6,1.3-3.8c0.3-1,0.7-1.9,1.1-2.8
	c0.9-2.1,2-4.2,3.1-6.2c0.1-0.1,0.1-0.2,0.2-0.4c1.4-2.3,2.9-4.6,4.6-6.7c0,0,0.1,0,0.1-0.1c0.7-0.9,1.3-1.8,2.1-2.6
	c2.9-2.8,6.7-8.7,7.3-13.7c1.5-7.7,0-18.6-11.1-29.2c-9.3-8.9-18.3-8.6-25-6.9c-6.3,1.7-11.1,5.5-13.1,7.3c-0.7,0.6-1,0.9-1,0.9
	c-2.9,3.2-5.6,6.5-8.2,9.9C10.5,70.5,2,92.3,0.3,115.9c-0.1,1-0.2,1.9-0.2,2.9c-0.1,1.4-0.1,2.7-0.1,4.1c0,1.6-0.1,3.2,0,4.8
	c0,0.3,0,0.5,0,0.8c0.1,0.6,0.1,1.2,0.1,1.9c0.2,2.5,0.3,4.8,0.6,7.3c0.2,1.1,0.3,2.3,0.4,3.5c0.3,1.9,0.6,3.9,1,5.8
	c0.3,1.4,0.6,2.8,0.8,4.2c0.4,1.5,0.8,3,1.2,4.5c0.4,1.7,0.9,3.4,1.4,5.2c0.1,0.2,0.2,0.5,0.3,0.8c0.8,2.6,1.7,5.1,2.8,7.6
	c0.5,1.4,1.2,2.7,1.8,4.1c0.5,1.1,1,2.2,1.5,3.3c1.9,4,3.9,7.8,6.2,11.4c0.4,0.6,0.8,1.1,1.2,1.7c1.5,2.2,2.9,4.5,4.5,6.6
	c1,1.3,2,2.5,3,3.8c1.1,1.3,2.2,2.7,3.3,4c1.2,1.3,2.5,2.6,3.8,3.9c1,1.1,2.1,2.2,3.2,3.3c1.2,1.2,2.5,2.3,3.8,3.4
	c1.3,1.1,2.5,2.3,3.9,3.4c1.1,0.8,2.2,1.6,3.3,2.5c1.7,1.2,3.3,2.5,5.1,3.6c0.7,0.5,1.5,1,2.4,1.5c2.1,1.3,4.2,2.7,6.5,3.9
	c0.4,0.2,0.8,0.4,1.2,0.6c2.6,1.4,5.3,2.7,8,3.9c0,0,0.1,0,0.1,0c3.8,1.7,7.7,3,11.6,4.3c1.5,0.4,3,0.9,4.5,1.3
	c2.9,0.8,5.9,1.5,8.8,2.1c1,0.2,1.9,0.5,2.9,0.7c3.6,0.7,7.3,1.1,10.9,1.3c0.8,0.1,1.7,0.1,2.5,0.1c2.5,0.1,4.9,0.3,7.3,0.3
	c0.1,0,0.2,0,0.3,0c0.8,0.1,1.6,0.2,2.3,0.3c28.2,6,47.5,30.8,47.7,58.6h-0.1c0.1,27.9-19.3,53.1-47.7,59.1
	c-23.3,5-47-4.9-59.9-21.8c-2.3-3.4-7.4-8.1-12.2-9.5c-7.4-2.8-18.4-3.2-30.7,5.9c-10.4,7.6-11.7,16.5-11.1,23.4
	c0.7,8.5,5.7,15.3,5.7,15.3c27.2,36,73.6,55.1,120.6,45.1c56.5-12,95.2-62,95-117.5c-0.1-32.4-13.5-62.9-35.8-84.9
	c0.1-0.1,0.3-0.2,0.4-0.3c1.3-1,2.5-2.2,3.7-3.3c1.3-1.1,2.6-2.2,3.9-3.5c1.1-1,2.1-2.1,3.1-3.1c1.3-1.3,2.6-2.7,3.9-4.1
	c1.1-1.2,2.1-2.5,3.2-3.8c1-1.3,2.1-2.6,3.1-3.9c1.4-1.9,2.8-3.9,4.1-5.9c0.5-0.7,1.1-1.5,1.5-2.2c2.2-3.6,4.3-7.4,6.1-11.3
	c0.5-1,0.9-2,1.4-3c0.6-1.5,1.4-2.8,1.9-4.3c0.1-0.3,0.2-0.7,0.4-1c17.8,44,60.8,75,111.2,75c50.8,0,94.2-31.6,111.7-76.3
	c6.3,16.1,15.9,30.5,28.1,42.3c-8,6.3-15.2,13.5-21.3,21.7c0,0-5,6.8-5.7,15.3c-0.6,6.9,0.7,15.7,11.1,23.4
	c12.3,9.1,23.3,8.7,30.7,5.9c4.8-1.5,9.9-6.2,12.2-9.5c12.9-16.8,36.7-26.7,59.9-21.8c28.2,6,47.6,30.8,47.7,58.5l0,0
	c0.1,27.9-19.3,53.1-47.7,59.1c-23.2,4.9-47-4.9-59.9-21.8c-2.3-3.3-7.4-8.1-12.2-9.5c-7.4-2.8-18.4-3.2-30.7,5.9
	c-10.4,7.7-11.7,16.5-11.1,23.4c0.7,8.5,5.7,15.4,5.7,15.4c27.2,36,73.6,55.1,120.6,45.1c56.6-12,95.2-61.9,95-117.5
	c-0.1-32.7-13.7-63.4-36.4-85.5c16.5-13.1,29.5-30.4,37.3-50.4c6.3,16.1,16,30.5,28.1,42.3c-8,6.3-15.2,13.5-21.3,21.7
	c0,0-5,6.8-5.7,15.3c-0.6,6.9,0.7,15.7,11.1,23.4c12.4,9.1,23.3,8.7,30.7,5.9c4.7-1.5,9.9-6.2,12.2-9.5
	c12.9-16.8,36.6-26.7,59.9-21.8c28.2,6,47.5,30.8,47.7,58.5l0,0c0.1,27.9-19.3,53.1-47.7,59.1c-23.3,4.9-47-4.9-59.9-21.8
	c-2.3-3.3-7.4-8.1-12.2-9.5c-7.4-2.8-18.4-3.2-30.7,5.9c-10.4,7.7-11.7,16.5-11.1,23.4c0.7,8.5,5.7,15.4,5.7,15.4
	c27.2,36,73.5,55.1,120.6,45.1c56.5-12,95.1-61.9,95-117.5C899.9,270.2,886.3,239.5,863.6,217.4"/>
</svg>
