<?xml version="1.0" standalone="no"?>
<!DOCTYPE svg PUBLIC "-//W3C//DTD SVG 1.1//EN" "http://www.w3.org/Graphics/SVG/1.1/DTD/svg11.dtd" >
<svg xmlns="http://www.w3.org/2000/svg">
<metadata></metadata>
<defs>
<font id="quiroga_serif_prodemibold" horiz-adv-x="1314" >
<font-face units-per-em="2048" ascent="1536" descent="-512" />
<missing-glyph horiz-adv-x="573" />
<glyph unicode="&#x30;&#x2f;&#x30;" horiz-adv-x="1337" d="M102 1012q0 129 67 215t198 86q88 0 149.5 -42.5t88 -109t26.5 -149.5q0 -132 -66.5 -215.5t-197.5 -83.5t-198 84t-67 215zM178 31l854 1263h148l-858 -1263h-144zM258 1012q0 -85 26.5 -138t82.5 -53q108 0 108 191q0 192 -108 192q-109 0 -109 -192zM707 299 q0 83 26.5 149.5t88 109t149.5 42.5t149.5 -42.5t88 -109t26.5 -149.5q0 -132 -66.5 -215.5t-197.5 -83.5t-197.5 83.5t-66.5 215.5zM862 299q0 -85 26 -137.5t83 -52.5q108 0 108 190q0 193 -108 193q-58 0 -83.5 -53.5t-25.5 -139.5z" />
<glyph unicode="&#x31;&#x2f;&#x34;" horiz-adv-x="1228" d="M102 1214l181 97h106v-490l119 -28l-10 -72h-377l-10 72l137 30v353l-109 -37zM125 31l856 1263h145l-856 -1263h-145zM645 203l232 397l137 -14v-348h82v-99h-82v-129h-133v129h-211zM782 238h99v176z" />
<glyph unicode="&#x31;&#x2f;&#x32;" horiz-adv-x="1269" d="M102 1214l181 97h106v-490l119 -28l-10 -72h-377l-10 72l137 30v353l-109 -37zM125 31l856 1263h145l-856 -1263h-145zM702 96q165 133 220 192.5t55 125.5q0 50 -16.5 71t-59.5 21l-35 -4l-18 -115h-98l-23 158q11 6 30.5 15t73 24.5t99.5 15.5q103 0 153 -47.5 t50 -124.5q0 -33 -12.5 -66t-27 -56t-47.5 -56t-50 -48t-60 -50l-18 -15l-27 -20h149l23 102h90l14 -209h-448z" />
<glyph unicode="&#x33;&#x2f;&#x34;" horiz-adv-x="1241" d="M102 735l19 88q49 -14 117 -14q101 0 104 76q0 39 -19 62.5t-53 23.5h-63v86h65q30 0 45 25.5t15 60.5q-1 38 -18.5 59t-45.5 21l-30 -4l-19 -91h-88l-20 150q65 37 165 37q102 0 154.5 -48.5t52.5 -117.5q0 -87 -67 -131q35 -16 59 -50t23 -85q-2 -79 -64.5 -124.5 t-187.5 -45.5q-38 0 -74 5.5t-53 11.5zM137 31l854 1263h148l-858 -1263h-144zM657 203l230 397l137 -14v-348h84v-99h-84v-129h-133v129h-209zM793 238h98v176q-7 -13 -98 -176z" />
<glyph unicode="&#xfb01;" horiz-adv-x="1148" d="M68 80l153 55v676l-119 10v90l119 11q0 14 1 42t1 42q1 202 110 306.5t283 104.5q77 0 150 -15.5t106.5 -29t51.5 -24.5l-25 -201h-121l-20 143q-44 25 -137 25q-104 0 -158.5 -73t-54.5 -245v-82l530 7v-787l154 -55l-25 -80h-430l-27 80l142 55v678q-58 0 -172.5 1 t-171.5 1v-680l141 -55l-27 -80h-430z" />
<glyph unicode="&#xfb02;" horiz-adv-x="1159" d="M68 80l153 55v676l-119 10v90l119 11q0 261 95 378t296 117q72 0 144 -22q66 6 192 22v-1282l154 -55l-25 -80h-430l-26 80l141 55v1141q-80 39 -152 39q-106 0 -154 -71.5t-48 -246.5v-82l184 7v-111l-184 4v-680l137 -55l-25 -80h-428z" />
<glyph unicode="&#xfb03;" horiz-adv-x="1710" d="M68 80l153 55v676l-119 10v90l119 11q0 249 72.5 372t226.5 123q72 0 131 -21.5t78 -37.5l-24 -201h-121l-21 152q-18 6 -39 6q-58 0 -87 -72.5t-29 -234.5v-93l374 7q0 14 1 42t1 42q1 136 54 230.5t140 137.5t200 43q77 0 149.5 -15.5t106 -29t51.5 -24.5l-25 -201 h-121l-20 143q-44 25 -137 25q-104 0 -158.5 -73t-54.5 -245v-82l530 7v-787l154 -55l-25 -80h-430l-27 80l142 55v678q-57 0 -172 1t-172 1v-680l141 -55l-27 -80h-430l-24 80l153 55v676q-120 0 -374 4v-680l149 -55l-27 -80h-438z" />
<glyph unicode="&#xfb04;" horiz-adv-x="1722" d="M68 80l153 55v676l-119 10v90l119 11q0 249 72.5 372t226.5 123q72 0 131 -21.5t78 -37.5l-24 -201h-121l-21 152q-18 6 -39 6q-58 0 -87 -72.5t-29 -234.5v-93l335 7h41q0 261 94.5 378t295.5 117q70 0 145 -22q49 5 192 22v-1282l154 -55l-27 -80h-430l-24 80l139 55 v1141q-76 39 -149 39q-106 0 -154.5 -71.5t-48.5 -246.5v-82l184 7v-111l-184 4v-680l137 -55l-27 -80h-426l-26 80l153 55v676q-124 0 -374 4v-680l149 -55l-27 -80h-438z" />
<glyph horiz-adv-x="2048" />
<glyph horiz-adv-x="2048" />
<glyph unicode="&#xd;" horiz-adv-x="2048" />
<glyph unicode=" "  horiz-adv-x="573" />
<glyph unicode="&#x09;" horiz-adv-x="573" />
<glyph unicode="&#xa0;" horiz-adv-x="573" />
<glyph unicode="!" horiz-adv-x="516" d="M133 109q0 29 50 79t75 50q23 0 74 -50t51 -79t-51 -79t-74 -50q-25 0 -75 50t-50 79zM150 1393l217 24l-48 -999l-129 -15z" />
<glyph unicode="&#x22;" horiz-adv-x="630" d="M90 1421h189l-37 -387h-119zM352 1421h189l-37 -387h-119z" />
<glyph unicode="#" d="M72 387l26 141h244l49 273h-244l25 141h244l67 381h160l-68 -381h234l68 381h159l-67 -381h243l-24 -141h-244l-49 -273h244l-27 -141h-242l-67 -387h-160l68 387h-234l-67 -387h-160l67 387h-245zM502 528h233l49 273h-233z" />
<glyph unicode="$" horiz-adv-x="997" d="M133 156l29 225h125l20 -158q69 -24 156 -24q199 0 199 157q0 44 -14.5 77t-48 59t-68 43.5t-95.5 42.5q-158 63 -226.5 143t-68.5 225q0 111 79 191.5t210 97.5l-14 231h164l-15 -231q64 -7 125.5 -25.5t91.5 -33.5l29 -15l-29 -225h-125l-20 160q-59 22 -143 22 q-85 0 -132 -46.5t-47 -117.5q0 -72 47.5 -117t145.5 -85q74 -30 123 -55t94 -58t69.5 -70t39 -88t14.5 -116q0 -116 -71.5 -189.5t-217.5 -91.5l14 -227h-163l14 223q-75 4 -147.5 23t-108.5 36z" />
<glyph unicode="&#x26;" horiz-adv-x="1353" d="M102 326q0 119 69.5 206t170.5 136q-72 80 -114 165t-42 189q0 150 102.5 235.5t280.5 85.5q88 0 176.5 -22.5t133.5 -44.5l45 -23l-33 -247h-137l-25 194l-9 4q-9 3 -17 5.5t-23 6.5t-30.5 6.5t-37 4.5t-43.5 2q-95 0 -146.5 -53t-51.5 -144q0 -23 4 -45.5t15.5 -46.5 t19 -39.5t27.5 -41.5t27.5 -35.5t32.5 -38t29 -33.5l363 -422q49 107 49 229q1 30 0 59t-2 42l-2 14l-141 41l24 80h365l26 -82l-155 -39q4 -46 4 -107q0 -193 -80 -329l100 -103l174 -51l-24 -84h-291l-84 88q-50 -43 -130 -75.5t-173 -32.5q-207 0 -327 91.5t-120 254.5z M297 332q0 -107 66 -174.5t188 -67.5q134 0 223 80l-375 428q-102 -102 -102 -266z" />
<glyph unicode="'" horiz-adv-x="368" d="M90 1421h189l-37 -387h-119z" />
<glyph unicode="(" horiz-adv-x="643" d="M102 598q0 147 28.5 284t72.5 240.5t103.5 194.5t116.5 151.5t116 104.5l63 -66q-289 -342 -289 -895q0 -569 289 -911l-63 -66q-59 45 -115.5 103.5t-116.5 148t-104 191.5t-72.5 237.5t-28.5 282.5z" />
<glyph unicode=")" horiz-adv-x="643" d="M41 -299q289 339 289 895q0 569 -289 911l63 66q59 -45 115.5 -104t116.5 -148.5t104 -191.5t72.5 -237.5t28.5 -281.5q0 -147 -28.5 -284t-72.5 -241t-103.5 -195t-116.5 -151t-116 -104z" />
<glyph unicode="*" horiz-adv-x="817" d="M102 954v133l230 -22l-142 186l119 78l99 -217l92 219l131 -78l-146 -188l230 25v-136l-230 25l140 -178l-131 -78l-86 207l-84 -211l-131 78l141 182z" />
<glyph unicode="+" horiz-adv-x="1234" d="M205 608v133h342v365h139v-365h344v-133h-344v-368h-139v368h-342z" />
<glyph unicode="," horiz-adv-x="423" d="M72 109q0 28 51 78.5t74 50.5q25 0 75 -53.5t50 -98.5q0 -66 -43 -143t-144 -148l-51 49q77 86 74 146q-1 9 -43.5 53.5t-42.5 65.5z" />
<glyph unicode="-" horiz-adv-x="819" d="M102 393v121l615 21v-162z" />
<glyph unicode="." horiz-adv-x="468" d="M109 109q0 29 50.5 79t73.5 50q25 0 75 -50t50 -79t-50 -79t-75 -50q-23 0 -73.5 50t-50.5 79z" />
<glyph unicode="/" horiz-adv-x="1056" d="M102 -61l729 1527h175l-732 -1527h-172z" />
<glyph unicode="0" horiz-adv-x="1153" d="M123 662q0 109 12 202t43.5 184t81 154t130 102t185.5 39q106 0 187 -39t131 -102t81.5 -154t43.5 -184t12 -202t-12 -202t-43.5 -184t-81.5 -154.5t-131 -102.5t-187 -39q-105 0 -185.5 39t-130 102.5t-81 154.5t-43.5 184t-12 202zM332 662q0 -568 243 -568 q246 0 246 568q0 567 -246 567q-243 0 -243 -567z" />
<glyph unicode="1" horiz-adv-x="886" d="M143 1165l297 158h140v-1188l184 -53l-27 -82h-555l-26 82l227 53v995l-199 -51z" />
<glyph unicode="2" horiz-adv-x="1030" d="M82 80l205 231q200 228 279 374.5t79 295.5q0 126 -53 185t-172 59q-24 0 -52 -4.5t-44 -9.5l-15 -5l-26 -200h-131l-33 258q16 9 44.5 22t113 35t165.5 22q215 0 318.5 -95t103.5 -267q0 -55 -11.5 -108t-39 -109.5t-55.5 -102.5t-80 -111.5t-91.5 -112t-108.5 -126.5 q-5 -6 -7.5 -8.5t-6.5 -7t-7 -8.5l-119 -133h395l31 168h125l29 -322h-814z" />
<glyph unicode="3" horiz-adv-x="962" d="M82 31l31 104q110 -37 243 -37q145 0 211 65t66 191q0 122 -55 191t-154 69h-125v119h127q65 0 106 35.5t56.5 89.5t15.5 127q0 115 -51.5 177.5t-140.5 62.5q-35 0 -67.5 -4.5t-48.5 -9.5l-15 -5l-25 -200h-131l-35 258q16 9 44.5 22t115.5 35t174 22q98 0 175.5 -30.5 t123.5 -81.5t70 -113.5t24 -132.5q0 -102 -51 -183t-123 -126q40 -16 73.5 -40t65.5 -62t50 -95t18 -127q0 -169 -122 -270.5t-376 -101.5q-69 0 -136.5 12.5t-100.5 25.5z" />
<glyph unicode="4" horiz-adv-x="1077" d="M82 418l520 925l182 -20v-844h181v-143h-181v-201l164 -53l-26 -82h-471l-27 82l166 53v201h-486zM281 479h309v551z" />
<glyph unicode="5" horiz-adv-x="917" d="M72 31l30 104q111 -37 244 -37q139 0 199.5 64t60.5 207q0 145 -57.5 218t-177.5 77q-93 3 -246 -25l-29 29l21 655h665l-37 -319h-124l-25 167h-326l-6 -393q60 10 111 10q220 0 335 -114.5t115 -300.5q0 -184 -117.5 -288.5t-365.5 -104.5q-69 0 -136.5 12.5 t-100.5 25.5z" />
<glyph unicode="6" horiz-adv-x="1064" d="M123 539q0 159 49.5 298t137.5 241t209.5 171t264.5 94l31 -98q-463 -129 -475 -678q-18 -468 207 -473q100 -2 154.5 56.5t54.5 199.5q0 132 -52 203.5t-153 71.5q-55 0 -104 -11.5t-72 -21.5l-6 108q13 7 37 16t71 19t88 10q190 0 299 -103t109 -290 q0 -167 -110.5 -269.5t-319.5 -102.5q-214 0 -317 139.5t-103 419.5z" />
<glyph unicode="7" horiz-adv-x="987" d="M123 1323h764l18 -31l-463 -1292h-211l488 1171h-410l-30 -167h-125z" />
<glyph unicode="8" horiz-adv-x="958" d="M82 340q0 123 69 205.5t173 124.5q-32 19 -56 36.5t-52 46.5t-45.5 61.5t-29.5 79.5t-12 103q0 154 95 250t278 96q182 0 282.5 -101t100.5 -257q0 -203 -183 -307q32 -16 57 -32.5t56.5 -46.5t52.5 -65t35.5 -87t14.5 -113q0 -158 -111.5 -256t-302.5 -98 q-196 0 -309 94.5t-113 265.5zM279 350q0 -134 62.5 -195t162.5 -61q97 0 158 58.5t61 181.5q0 52 -20.5 93.5t-59.5 72t-73.5 49t-84.5 39.5l-43 20q-163 -92 -163 -258zM305 1014q0 -37 8.5 -67.5t28 -56t40.5 -45t57.5 -40.5t66.5 -35.5t80 -36.5q51 41 79.5 98t28.5 154 q0 104 -48.5 174t-143.5 70q-94 0 -145.5 -58t-51.5 -157z" />
<glyph unicode="9" horiz-adv-x="1075" d="M113 971q0 166 110.5 269t319.5 103q214 0 317 -140t103 -421q0 -158 -49.5 -297t-137.5 -241t-210 -170.5t-265 -93.5l-31 96q238 68 353.5 237t121.5 441q18 470 -206 473q-100 2 -154.5 -55.5t-54.5 -198.5q0 -133 52 -205t153 -72q97 0 176 35l6 -108 q-96 -48 -197 -48q-190 0 -298.5 103.5t-108.5 292.5z" />
<glyph unicode=":" horiz-adv-x="468" d="M109 109q0 29 50.5 79t73.5 50q25 0 75 -50t50 -79t-50 -79t-75 -50q-23 0 -73.5 50t-50.5 79zM109 811q0 29 50.5 80t73.5 51q24 0 74.5 -50.5t50.5 -80.5q0 -29 -50 -79t-75 -50q-23 0 -73.5 50.5t-50.5 78.5z" />
<glyph unicode=";" horiz-adv-x="473" d="M111 109q0 28 51 78.5t74 50.5q26 0 76 -53.5t50 -98.5q0 -66 -43 -143t-143 -148l-53 49q77 86 74 146q-1 9 -43.5 53.5t-42.5 65.5zM113 811q0 30 50.5 80.5t74.5 50.5q23 0 73.5 -51t50.5 -80t-50.5 -79t-73.5 -50q-24 0 -74.5 50.5t-50.5 78.5z" />
<glyph unicode="&#x3c;" horiz-adv-x="1103" d="M154 629v65l669 443l76 -117l-549 -358l549 -359l-76 -117z" />
<glyph unicode="=" horiz-adv-x="1185" d="M205 471v123h776v-123h-776zM205 754v123h776v-123h-776z" />
<glyph unicode="&#x3e;" horiz-adv-x="1103" d="M205 303l549 359l-549 358l76 117l669 -443v-65l-669 -443z" />
<glyph unicode="?" horiz-adv-x="866" d="M41 1333q4 3 12.5 9t37 20.5t60.5 25.5t84 20t107 9q82 0 155.5 -24.5t134 -74t96.5 -134t36 -193.5t-39.5 -194.5t-104.5 -135.5t-142.5 -75t-160.5 -23l-18 -170l-127 -6l-27 262l31 31q39 -8 105 -8q126 0 200 88.5t74 224.5q0 135 -61 224t-166 89q-32 0 -59 -4 t-39 -8l-11 -4l-22 -197h-127zM119 109q0 29 50 79t75 50q23 0 74 -50t51 -79t-51 -79t-74 -50q-25 0 -75 50t-50 79z" />
<glyph unicode="@" horiz-adv-x="1978" d="M154 299q0 310 115 540t332.5 355t512.5 125q158 0 292 -50.5t225.5 -137.5t142.5 -207.5t51 -257.5q0 -138 -34 -251t-88.5 -186t-129 -125.5t-148.5 -78.5t-155 -35q-123 -18 -154 47q-26 9 -45.5 36.5t-23.5 67.5q-61 -65 -136 -113t-123 -48q-69 0 -116 63.5 t-54 187.5q-10 107 7 222q15 105 46 190t80.5 154t126 107t173.5 38q38 0 73 -14t50 -28l16 -13l53 55h115l-148 -862q187 15 305.5 179t118.5 409q0 84 -20.5 162t-63.5 146t-104 119t-146.5 80t-185.5 29q-360 0 -564 -236.5t-204 -662.5q0 -129 30.5 -230t82.5 -166.5 t126 -108.5t155 -61t175 -18q275 0 521 123l37 -75q-240 -167 -574 -172q-125 -1 -234.5 23.5t-204 79t-162 135.5t-106 199.5t-38.5 264.5zM799 356q-14 -158 14 -237q45 14 116.5 61.5t129.5 98.5l86 495q-5 9 -12 18.5t-34 23t-63 13.5q-55 0 -99 -45t-71 -119.5 t-43.5 -151t-23.5 -157.5z" />
<glyph unicode="A" d="M20 84l164 51l408 1208h129l412 -1208l161 -51l-24 -84h-465l-25 84l144 49l-105 297h-385l-100 -295l164 -51l-25 -84h-428zM473 547h307l-155 467z" />
<glyph unicode="B" horiz-adv-x="1122" d="M76 82l147 53v1053l-145 53l24 82h439q222 0 336 -91.5t114 -242.5q0 -60 -18.5 -110t-49 -81.5t-60.5 -51.5t-62 -31q51 -13 97.5 -40.5t86.5 -68.5t64 -101.5t24 -131.5q0 -170 -104.5 -271.5t-325.5 -101.5h-541zM418 113l50 -2q50 -2 91 -2q174 0 242.5 59.5 t68.5 191.5q0 131 -82 207t-229 76h-141v-530zM418 760h143q104 0 171 54t67 169q0 122 -71 176.5t-189 54.5l-121 -4v-450z" />
<glyph unicode="C" horiz-adv-x="1067" d="M80 662q0 174 41.5 305.5t118 213t179.5 122t232 40.5q88 0 168 -18.5t116 -36.5l36 -18l-35 -264h-137l-27 206q-78 13 -123 13q-57 0 -106 -15.5t-95.5 -55t-79 -101.5t-52 -161.5t-19.5 -229.5q0 -290 98 -427t271 -137q83 0 165 19t134 43l39 -101 q-55 -30 -151.5 -54.5t-201.5 -24.5q-270 0 -420.5 170t-150.5 512z" />
<glyph unicode="D" horiz-adv-x="1259" d="M68 82l147 53v1053l-145 53l24 82h434q177 0 301 -39.5t201.5 -122.5t112.5 -205t35 -294t-35 -294t-112.5 -205.5t-201.5 -123t-301 -39.5h-434zM412 115q36 -6 116 -6q151 0 244 51t142 173.5t49 328.5q0 155 -27 262t-83.5 171t-135 91.5t-189.5 27.5l-116 -4v-1095z " />
<glyph unicode="E" horiz-adv-x="1046" d="M68 82l147 53v1053l-145 53l24 82h877l-25 -283h-125l-33 168h-376v-463h270l51 144l80 -27v-350l-80 -27l-51 144h-270v-514h391l33 166h125l26 -281h-893z" />
<glyph unicode="F" horiz-adv-x="1036" d="M68 82l147 53v1053l-145 53l24 82h912l-27 -283h-125l-33 168h-409v-463h270l51 144l80 -27v-350l-80 -27l-51 144h-270v-494l145 -51l-25 -84h-438z" />
<glyph unicode="G" horiz-adv-x="1241" d="M80 662q0 344 156.5 512.5t437.5 168.5q65 0 130 -7.5t111 -18.5t82.5 -22.5t54.5 -18.5l19 -8l-35 -262h-137l-27 198q-105 21 -202 21q-373 0 -373 -563q0 -291 96.5 -427.5t268.5 -136.5q129 0 212 43v342l-143 52l27 79h418l26 -79l-133 -52v-397 q-51 -37 -162.5 -71.5t-249.5 -34.5q-274 0 -425.5 169.5t-151.5 512.5z" />
<glyph unicode="H" horiz-adv-x="1361" d="M68 82l147 53v1053l-145 53l24 82h438l25 -82l-145 -53v-443h538v443l-145 53l24 82h439l24 -82l-145 -53v-1053l147 -53l-26 -82h-439l-26 82l147 53v494h-538v-494l147 -53l-27 -82h-438z" />
<glyph unicode="I" horiz-adv-x="626" d="M68 82l147 53v1053l-145 53l24 82h438l25 -82l-145 -53v-1053l147 -53l-27 -82h-438z" />
<glyph unicode="J" horiz-adv-x="579" d="M-37 -252q100 75 162.5 187t62.5 227v1026l-145 53l25 82h438l24 -82l-145 -53v-1026q0 -83 -31.5 -161t-86.5 -140t-114 -109.5t-128 -87.5z" />
<glyph unicode="K" horiz-adv-x="1198" d="M68 82l149 51v1059l-147 51l26 80h436l27 -80l-151 -51v-1059l151 -51l-27 -82h-438zM422 684l420 514l-117 45l27 80h362l27 -80l-144 -49l-381 -467l383 -590l172 -55l-26 -82h-275z" />
<glyph unicode="L" horiz-adv-x="1038" d="M68 82l147 53v1053l-145 53l24 82h438l25 -82l-145 -53v-1073h411l33 166h125l27 -281h-914z" />
<glyph unicode="M" horiz-adv-x="1589" d="M47 82l148 53l45 1053l-146 53l25 82h358l320 -889l311 889h354l25 -84l-146 -51l43 -1053l150 -53l-27 -82h-446l-27 82l148 53l-37 891l-311 -881h-138l-317 895l-39 -905l152 -53l-27 -82h-391z" />
<glyph unicode="N" horiz-adv-x="1333" d="M72 82l147 53v1053l-147 53l26 82h348l535 -948v813l-147 51l26 84h395l27 -84l-147 -51v-1208h-162l-600 1073v-918l149 -53l-26 -82h-398z" />
<glyph unicode="O" horiz-adv-x="1243" d="M80 662q0 108 15 202t53 184t97.5 153.5t156 102.5t221.5 39q124 0 220 -39t155.5 -102.5t97.5 -153.5t52.5 -184t14.5 -202t-14.5 -202t-52.5 -184.5t-97.5 -154t-155.5 -102.5t-220 -39q-125 0 -221.5 39t-156 102.5t-97.5 154t-53 184.5t-15 202zM297 662 q0 -568 326 -568q75 0 132.5 31.5t93.5 84t58.5 127.5t31.5 153.5t9 171.5q0 117 -15 212.5t-50 178.5t-101 129.5t-159 46.5q-326 0 -326 -567z" />
<glyph unicode="P" horiz-adv-x="1060" d="M68 82l147 53v1055l-143 51l22 82h412q264 0 390 -88.5t126 -292.5q0 -177 -118.5 -273t-323.5 -96q-76 0 -148 11l4 104q71 -11 146 -8q126 6 182.5 71t56.5 191q0 93 -27.5 150.5t-98 89.5t-191.5 32l-94 -4v-1075l147 -53l-27 -82h-436z" />
<glyph unicode="Q" horiz-adv-x="1245" d="M80 662q0 108 15 202t53 184t97.5 153.5t156 102.5t221.5 39q124 0 220 -39t155.5 -102.5t97.5 -153.5t52.5 -184t14.5 -202q0 -88 -10 -167t-34 -157t-61.5 -140t-97 -111.5t-135.5 -76.5q12 -9 68 -57l149 -146q34 -34 74 -34q41 0 125 63l57 -74q-49 -63 -121 -99.5 t-143 -27.5q-78 7 -131 60l-164 166q-80 84 -129 119q-121 2 -215 41.5t-152.5 103t-96 153t-52 183t-14.5 201.5zM297 662q0 -568 326 -568q75 0 132.5 31.5t93.5 84t58.5 127.5t31.5 153.5t9 171.5q0 117 -15 212.5t-50 178.5t-101 129.5t-159 46.5q-326 0 -326 -567z" />
<glyph unicode="R" horiz-adv-x="1183" d="M66 82l147 53v1055l-143 51l22 82h412q258 0 388 -89t130 -280q0 -90 -29 -158.5t-77.5 -108.5t-98.5 -61.5t-106 -29.5l270 -459l174 -53l-25 -84h-280l-371 637l17 57h55q61 0 106 11.5t82.5 39t56.5 80t19 129.5q0 60 -16 105.5t-43.5 74.5t-68.5 47.5t-85.5 25.5 t-99.5 7l-94 -4v-1075l147 -53l-27 -82h-436z" />
<glyph unicode="S" horiz-adv-x="999" d="M84 68l33 247h137l22 -192q77 -29 191 -29q250 0 250 207q0 46 -13.5 82.5t-34 62.5t-60 50.5t-75.5 41t-96 40.5q-122 48 -193.5 100.5t-110 131.5t-38.5 191q0 146 113 244t295 98q95 0 187.5 -22.5t137.5 -44.5l45 -23l-32 -247h-137l-25 194l-13 4q-13 5 -26 8.5 t-33.5 7.5t-47.5 6.5t-56 2.5q-105 0 -164 -61.5t-59 -155.5q0 -92 58 -149t179 -105q109 -43 176.5 -80t121 -88.5t76.5 -118.5t23 -160q0 -155 -110 -243t-338 -88q-99 0 -195 22t-142 44z" />
<glyph unicode="T" horiz-adv-x="1110" d="M43 1323h1024l-35 -287h-123l-26 176l-230 -4v-1075l146 -51l-25 -84h-438l-27 84l148 51v1075l-230 4l-26 -176h-123z" />
<glyph unicode="U" d="M51 1241l25 82h438l25 -82l-146 -53v-574q0 -105 6.5 -182.5t24 -143.5t46.5 -107t74 -64t107 -23q179 0 248.5 116.5t69.5 403.5v574l-146 53l25 82h391l25 -82l-146 -53v-574q0 -125 -12 -218.5t-43.5 -174.5t-83.5 -132t-134 -80t-194 -29q-84 0 -150 15t-113.5 41 t-81.5 69.5t-55 92.5t-33 118t-16.5 138t-4.5 160v574z" />
<glyph unicode="V" horiz-adv-x="1294" d="M20 1241l25 82h457l24 -82l-155 -53l305 -907l305 907l-162 53l27 82h405l23 -82l-146 -53l-407 -1208h-154l-407 1212z" />
<glyph unicode="W" horiz-adv-x="1976" d="M20 1241l25 82h455l26 -82l-157 -53l266 -907l278 813l-57 188l211 41q22 -9 38 -32.5t24 -70t-15 -112.5q39 -123 84 -259t104 -309.5t87 -258.5l274 907l-162 53l25 82h405l25 -82l-148 -53l-370 -1208h-168l-283 878l-297 -878h-170l-360 1212z" />
<glyph unicode="X" horiz-adv-x="1255" d="M31 82l147 53l340 524l-325 533l-152 51l27 80h479l26 -82l-157 -53l233 -375l248 375l-162 53l27 82h414l24 -80l-153 -55l-326 -500l356 -553l148 -53l-27 -82h-469l-27 82l148 53l-258 404l-258 -404l147 -53l-26 -82h-398z" />
<glyph unicode="Y" horiz-adv-x="1206" d="M20 1241l25 82h449l24 -82l-156 -53l250 -469l279 467l-166 55l27 82h409l25 -82l-146 -53l-356 -590v-463l147 -53l-26 -82h-438l-27 82l147 53v432l-335 627z" />
<glyph unicode="Z" horiz-adv-x="1058" d="M82 84l680 1120l-440 6l-29 -174h-123l-33 287h828l22 -104l-668 -1102l482 -4l28 174h123l33 -287h-881z" />
<glyph unicode="[" horiz-adv-x="536" d="M102 -352v1915l383 -25v-100l-202 -25v-1608l202 -32v-99z" />
<glyph unicode="\" horiz-adv-x="1056" d="M51 1466h172l731 -1527h-174z" />
<glyph unicode="]" horiz-adv-x="536" d="M51 -227l203 22v1610l-203 33v98l383 27v-1915l-383 22v103z" />
<glyph unicode="^" horiz-adv-x="733" d="M102 993l215 418h99l215 -418l-84 -51l-180 256l-183 -256z" />
<glyph unicode="_" horiz-adv-x="1103" d="M102 -51l899 18v-157l-899 18v121z" />
<glyph unicode="`" horiz-adv-x="649" d="M100 1229l88 143l359 -231l-51 -78z" />
<glyph unicode="a" horiz-adv-x="907" d="M61 238q0 61 21 107t53 73.5t80.5 45t94 24.5t102.5 10l131 4v178q0 79 -41 112t-101 33q-29 0 -59 -4.5t-46 -8.5l-15 -5l-25 -154h-121l-22 207l17 8.5t45.5 20t70 25t87.5 19.5t101 9q134 0 214.5 -58t80.5 -188v-573l107 -41l-25 -82h-98q-106 0 -146 61 q-56 -30 -130.5 -55.5t-131.5 -25.5q-37 0 -77.5 15t-78.5 44t-63 81t-25 118zM250 252q0 -72 39 -107.5t100 -35.5q66 0 154 34v260l-115 -6q-178 -9 -178 -145z" />
<glyph unicode="b" horiz-adv-x="980" d="M0 1294v86l330 37v-540l12 7q12 6 24 12.5t33 15t41 15t46 11t51 4.5q169 0 265.5 -117.5t96.5 -367.5q0 -108 -25.5 -193t-67 -137.5t-98.5 -86.5t-114.5 -47t-120.5 -13q-97 0 -188.5 20t-143.5 43v1227zM330 106q56 -18 141 -18q42 0 80 18.5t73 59t55.5 115.5 t20.5 176q0 360 -204 360q-81 0 -166 -53v-658z" />
<glyph unicode="c" horiz-adv-x="866" d="M82 457q0 80 11.5 148.5t40 132t73 107.5t115 70.5t161.5 26.5q89 0 166 -25.5t123 -56.5l-22 -209h-121l-25 156q-61 18 -121 18q-111 0 -156.5 -93.5t-45.5 -274.5q0 -175 51.5 -270t171.5 -95q115 0 241 41l31 -94q-138 -59 -282 -59q-412 0 -412 477z" />
<glyph unicode="d" horiz-adv-x="1007" d="M82 453q0 248 100.5 365.5t268.5 117.5q49 0 99 -17t69.5 -28.5t31.5 -20.5v400l-141 24v86l330 37v-1294l106 -41l-24 -82h-101q-104 0 -145 61q-132 -81 -238 -81q-50 0 -96.5 12.5t-95 46t-84 85t-58 136t-22.5 193.5zM281 453q0 -81 13 -144t33 -100.5t47 -61.5 t52.5 -32.5t52.5 -8.5q70 0 172 44v602q-6 6 -25 17.5t-60.5 25.5t-82.5 14q-202 0 -202 -356z" />
<glyph unicode="e" horiz-adv-x="903" d="M82 457q0 79 11 146.5t38.5 131t71 108t113 71.5t159.5 28q337 0 344 -383q2 -43 -2 -104l-16 -19h-520q3 -344 237 -344q122 0 242 41l33 -94q-138 -59 -285 -59q-100 0 -176 26t-123 68.5t-76 105.5t-40 129.5t-11 147.5zM287 539h331q0 5 1.5 26.5t1.5 34.5 q-8 227 -150 227q-88 0 -131 -74.5t-53 -213.5z" />
<glyph unicode="f" horiz-adv-x="667" d="M68 80l153 55v676l-119 10v90l119 11q0 495 303 495q74 0 135 -21.5t80 -37.5l-24 -201h-121l-21 150q-32 8 -45 8q-60 0 -90 -72.5t-30 -245.5v-82l194 7v-111l-194 4v-680l153 -55l-24 -80h-445z" />
<glyph unicode="g" horiz-adv-x="956" d="M39 -365l117 242l112 -29l-28 -190q116 -66 258 -59q119 3 170 38.5t51 104.5q0 62 -49 97.5t-154 58.5l-387 84l-14 24q51 115 137 242q-158 82 -158 323q0 371 344 371q65 0 239 -9.5t218 -10.5v-97l-168 -18q57 -84 57 -236q0 -362 -346 -362q-58 0 -94 8 q-23 -64 -33 -111l262 -55q161 -34 236.5 -103t75.5 -184q0 -74 -35 -130.5t-94.5 -89.5t-132 -49.5t-154.5 -16.5q-83 0 -158 16t-122.5 39t-83 46.5t-51.5 39.5zM279 571q0 -262 159 -262q160 0 160 262q0 131 -37 201t-123 70q-85 0 -122 -70t-37 -201z" />
<glyph unicode="h" horiz-adv-x="1124" d="M47 80l154 55v1135l-144 24v86l330 37v-559q45 33 113.5 58.5t136.5 25.5q287 0 287 -272v-535l153 -55l-24 -80h-432l-25 80l139 55v496q0 90 -35.5 137t-119.5 47q-52 0 -108 -23t-85 -49v-608l139 -55l-24 -80h-430z" />
<glyph unicode="i" horiz-adv-x="618" d="M68 80l153 55v653l-143 25v88l330 35v-801l153 -55l-24 -80h-445zM186 1229q0 30 50.5 80.5t74.5 50.5q23 0 74 -51t51 -80t-51 -79t-74 -50q-24 0 -74.5 50.5t-50.5 78.5z" />
<glyph unicode="j" horiz-adv-x="561" d="M-37 -440q232 171 232 422v806l-142 25v88l330 35v-954q0 -79 -22.5 -149t-55 -119t-84 -96.5t-94.5 -76.5t-102 -63zM164 1229q0 30 50.5 80.5t74.5 50.5q23 0 74 -51t51 -80t-51 -79t-74 -50q-24 0 -74.5 50.5t-50.5 78.5z" />
<glyph unicode="k" horiz-adv-x="1067" d="M47 80l154 55v1135l-144 24v86l330 37v-1282l133 -55l-24 -80h-424zM393 502l320 301l-127 41l22 78h371l25 -78l-138 -47l-280 -265l274 -393l176 -55l-26 -84h-265z" />
<glyph unicode="l" horiz-adv-x="598" d="M47 80l154 55v1135l-144 24v86l330 37v-1282l154 -55l-25 -80h-444z" />
<glyph unicode="m" horiz-adv-x="1673" d="M68 80l153 55v653l-143 25v88l319 35v-86q44 34 114 63t142 29q174 0 246 -104q149 104 287 104q287 0 287 -272v-535l153 -55l-24 -80h-431l-24 80l139 55v496q0 90 -34.5 137t-118.5 47q-49 0 -113 -41q-23 -7 -46.5 -26t-33.5 -35v-578l139 -55l-24 -80h-416l-25 80 l140 55v496q0 89 -37 136.5t-121 47.5q-52 0 -105 -23t-83 -49v-608l139 -55l-25 -80h-430z" />
<glyph unicode="n" horiz-adv-x="1144" d="M68 80l153 55v653l-143 25v88l319 35v-86q43 34 115.5 63t144.5 29q287 0 287 -272v-535l154 -55l-25 -80h-432l-25 80l140 55v496q0 90 -36 137t-120 47q-52 0 -107.5 -23t-84.5 -49v-608l139 -55l-25 -80h-430z" />
<glyph unicode="o" horiz-adv-x="987" d="M82 461q0 481 412 481q93 0 165 -26t118 -70t75 -106.5t41 -130.5t12 -148q0 -102 -19.5 -183.5t-64.5 -151t-128 -108t-199 -38.5q-94 0 -166.5 26t-118 69.5t-75 106.5t-41 131t-11.5 148zM281 461q0 -184 48 -277.5t165 -93.5q211 0 211 371q0 183 -47.5 276.5 t-163.5 93.5q-113 0 -163 -95.5t-50 -274.5z" />
<glyph unicode="p" horiz-adv-x="989" d="M14 -426l154 53v1159l-141 25v86q74 14 217 29.5t221 15.5q100 0 177 -26.5t126.5 -71t81 -107.5t44.5 -131.5t13 -148.5q0 -101 -18.5 -183t-60 -150t-116 -106t-177.5 -38q-47 0 -94.5 8t-59.5 14l6 109q51 -19 133 -19q56 0 94 27t58.5 79t28.5 113.5t8 145.5 q0 81 -12.5 143.5t-40.5 113.5t-78.5 78t-122.5 27q-37 0 -101 -8v-1184l154 -53l-25 -76h-444z" />
<glyph unicode="q" horiz-adv-x="1007" d="M82 463q0 109 25.5 194t66.5 138t98.5 87t116 47t123.5 13q30 0 60.5 -2t60.5 -6.5t52 -8t51 -10t40.5 -9.5t37.5 -10l26 -7v-1262l151 -53l-24 -76h-443l-24 76l151 53v418q-14 -10 -36 -21.5t-73 -27.5t-98 -16q-169 0 -265.5 116.5t-96.5 366.5zM281 463 q0 -359 204 -359q19 0 39 3.5t35.5 8t32.5 11.5t26.5 12t20.5 11t12 6v649q-58 20 -137 20q-46 0 -85 -17t-74 -56t-54.5 -113t-19.5 -176z" />
<glyph unicode="r" horiz-adv-x="802" d="M68 80l153 55v653l-143 25v88l319 35v-111q53 47 126 82t149 35q62 0 90 -14l-29 -277h-123l-22 150q-55 -8 -103 -31.5t-77 -50.5v-584l153 -55l-24 -80h-445z" />
<glyph unicode="s" horiz-adv-x="833" d="M88 63l21 211h122l27 -165q57 -23 119 -23q160 0 160 127q0 64 -34 101t-132 71q-163 59 -222 122t-59 183q0 107 88 179.5t230 72.5q48 0 94.5 -9t79 -21.5t58 -25t38.5 -21.5l12 -9l-20 -211h-123l-27 166q-50 25 -112 25q-73 0 -111.5 -39t-38.5 -97t31 -86t127 -65 q82 -31 131.5 -56t92.5 -61t62 -83t19 -111q0 -114 -88 -186t-256 -72q-75 0 -147 21t-107 41z" />
<glyph unicode="t" horiz-adv-x="708" d="M61 821v90l125 11l58 219h121v-226l237 7v-111l-235 4v-567q0 -40 6 -69t18 -45.5t26 -25t34 -10.5q37 -4 90 4t80 17l26 -92q-35 -19 -96 -33t-121 -14q-252 0 -252 247v584z" />
<glyph unicode="u" horiz-adv-x="1093" d="M31 811v86l329 37v-643q0 -90 36 -137.5t120 -47.5q52 0 107.5 22.5t85.5 47.5v608l-144 25v88l330 35v-809l106 -41l-24 -82h-109q-105 0 -149 70q-44 -33 -116.5 -61.5t-143.5 -28.5q-287 0 -287 270v536z" />
<glyph unicode="v" horiz-adv-x="999" d="M0 844l25 78h407l25 -78l-133 -56l192 -575l203 584l-137 47l24 78h348l25 -78l-125 -51l-287 -813h-159l-279 813z" />
<glyph unicode="w" horiz-adv-x="1527" d="M0 844l25 78h403l25 -78l-131 -56l190 -575l203 580l-140 51l25 78h363l24 -78l-135 -56l192 -575l203 584l-137 47l25 78h348l24 -78l-125 -51l-286 -813h-160l-184 542l-187 -542h-159l-277 813z" />
<glyph unicode="x" horiz-adv-x="1097" d="M41 78l166 57l231 330l-198 319l-170 60l24 78h266l209 -340l152 206l-139 54l24 80h377l25 -78l-146 -60l-221 -305l217 -342l178 -59l-24 -78h-277l-223 360l-158 -227l140 -55l-25 -78h-403z" />
<glyph unicode="y" horiz-adv-x="1007" d="M0 844l25 78h405l25 -78l-131 -56l190 -577l213 586l-137 47l24 78h349l24 -78l-123 -51l-389 -1076q-86 -239 -295 -239q-46 0 -90 12t-65 24l-21 11l37 244h111l28 -170q17 -6 43 0q70 10 119 151l72 203l-283 840z" />
<glyph unicode="z" horiz-adv-x="892" d="M82 74l512 743l-297 2q-5 -33 -18 -96.5t-15 -77.5h-121l-26 277h661l21 -82l-498 -731l320 -3l30 164h123l27 -270h-699z" />
<glyph unicode="{" horiz-adv-x="657" d="M102 563v80l238 131l-152 789l418 -27v-96l-203 -25l132 -704l-236 -107l236 -108l-132 -703l203 -22v-97l-413 -26l147 784z" />
<glyph unicode="|" horiz-adv-x="372" d="M102 -221v1712h168v-1712h-168z" />
<glyph unicode="}" horiz-adv-x="657" d="M76 -229l203 22l-132 705l236 108l-236 107l132 702l-203 25v96l413 27l-147 -787l238 -131v-78l-238 -131l152 -788l-418 24v99z" />
<glyph unicode="~" horiz-adv-x="1247" d="M205 596q24 94 76.5 148t128.5 53q26 0 63 -11l336 -90q22 -7 40.5 -8t34.5 6.5t25.5 12.5t23 23t18 24.5t18.5 29.5l73 -30q-26 -95 -78 -149t-128 -54q-31 0 -125 24l-269 76q-22 7 -41 8t-34.5 -5.5t-27 -13t-24 -21.5t-19.5 -24.5t-20 -29.5z" />
<glyph unicode="&#xa1;" horiz-adv-x="516" d="M133 811q0 30 50.5 80.5t74.5 50.5q23 0 74 -51t51 -80t-51 -79t-74 -50q-24 0 -74.5 50.5t-50.5 78.5zM150 -522l47 1007l129 15l41 -998z" />
<glyph unicode="&#xa2;" horiz-adv-x="995" d="M154 659q0 430 317 478l-12 206h164l-15 -202q127 -12 236 -78l-23 -209h-121l-24 156q-61 18 -121 18q-111 0 -157 -94t-46 -275q0 -175 51.5 -269.5t171.5 -94.5q116 0 242 41l31 -94q-117 -50 -240 -60l15 -202h-164l12 208q-317 50 -317 471z" />
<glyph unicode="&#xa3;" horiz-adv-x="1044" d="M82 121q100 80 133.5 187t36.5 300l-148 4v97q24 0 74 1t76 1v37q0 133 18.5 234.5t50.5 167.5t80 107.5t103 58.5t123 17q49 0 96.5 -7.5t81 -17.5t59.5 -20.5t39 -17.5l13 -8l-33 -256h-137l-25 202q-44 11 -98 11q-68 0 -108 -45t-59.5 -149.5t-19.5 -283.5v-26l348 6 v-123l-348 6v-65q0 -143 -30 -233t-125 -173q0 -2 2 -4q91 43 221 43q44 0 91.5 -5t70 -9t68 -14.5t46.5 -10.5l23 182h137l41 -299q-72 -26 -156 -26q-55 0 -175 21.5t-175 21.5q-176 0 -315 -53z" />
<glyph unicode="&#xa4;" horiz-adv-x="1384" d="M164 236l182 163q-63 108 -63 263q0 158 63 262l-182 166l123 120l164 -180q98 66 243 66q140 0 240 -64l164 178l123 -120l-183 -164q68 -110 68 -264q0 -158 -68 -265l183 -161l-123 -123l-164 178q-100 -64 -240 -64q-145 0 -243 66l-164 -180zM481 662 q0 -154 53.5 -239t159.5 -85q102 0 156.5 87t54.5 237q0 154 -53 238.5t-158 84.5q-102 0 -157.5 -87t-55.5 -236z" />
<glyph unicode="&#xa5;" horiz-adv-x="1206" d="M20 1241l25 82h449l24 -82l-156 -53l250 -469l279 467l-166 55l27 82h409l25 -82l-146 -53l-303 -502q172 4 256 4v-117l-309 5v-115q184 4 279 4v-117l-279 4v-219l147 -53l-26 -82h-438l-27 82l147 53v223q-86 0 -262 4v95l262 4v106l-8 15q-96 0 -284 4v94l231 2 l-274 512z" />
<glyph unicode="&#xa6;" horiz-adv-x="372" d="M102 -221v749h168v-749h-168zM102 741v750h168v-750h-168z" />
<glyph unicode="&#xa7;" horiz-adv-x="935" d="M156 63l20 211h125l27 -163q46 -23 114 -23q154 0 154 123q0 63 -33 100.5t-129 69.5q-156 55 -216 115t-60 168q0 64 38 114t103 80q-75 41 -107 94t-32 138q0 109 86 181t225 72q75 0 146 -21.5t105 -43.5l34 -21l-21 -210h-125l-26 165q-69 23 -113 23q-69 0 -104 -36 t-35 -93q0 -51 32 -83t113 -67q78 -33 122.5 -57.5t85.5 -59t58 -78.5t17 -104q0 -119 -121 -186q73 -42 108 -97t35 -141q0 -112 -87 -182.5t-253 -70.5q-75 0 -146.5 21t-105.5 41zM324 684q0 -52 32.5 -79.5t124.5 -61.5l29 -13q38 17 60 46t22 63q0 28 -5 45.5 t-21.5 32.5t-31 23.5t-50 26.5t-62.5 34q-49 -13 -73.5 -44t-24.5 -73z" />
<glyph unicode="&#xa8;" horiz-adv-x="825" d="M109 1225q0 29 50.5 79t73.5 50q25 0 75 -50t50 -79t-50 -79t-75 -50q-23 0 -73.5 50t-50.5 79zM465 1225q0 29 51 79t74 50q25 0 75 -50t50 -79t-50 -79t-75 -50q-23 0 -74 50t-51 79z" />
<glyph unicode="&#xa9;" horiz-adv-x="1726" d="M205 659q0 188 86.5 343.5t237.5 245t335 89.5q183 0 334 -89.5t237.5 -245t86.5 -343.5q0 -141 -51 -265.5t-138.5 -214t-209.5 -141.5t-259 -52q-138 0 -260 52t-209.5 141.5t-138.5 214t-51 265.5zM342 662q0 -238 150.5 -398t375.5 -160q145 0 263.5 73t185.5 201 t67 284t-67 284.5t-185.5 201.5t-263.5 73q-225 0 -375.5 -160.5t-150.5 -398.5zM553 651q0 73 16 135t50.5 113.5t96.5 81t146 29.5q102 0 215 -60l-16 -166h-92l-21 115q-42 14 -86 14q-81 0 -113 -67t-32 -195q0 -126 35 -193t122 -67q95 0 179 31l24 -80 q-104 -42 -211 -45q-86 0 -148.5 28t-97.5 79t-51 112t-16 135z" />
<glyph unicode="&#xaa;" horiz-adv-x="614" d="M49 905q0 44 16.5 75t42 47.5t62.5 26t71.5 13t77.5 5.5q17 0 25 1v84q0 84 -78 84q-15 0 -29.5 -2t-22.5 -4l-7 -2l-14 -92h-99l-20 149q11 6 30.5 14.5t76.5 22.5t110 14q91 0 148 -36.5t57 -118.5v-338q4 -2 28.5 -12.5t36.5 -14.5l-16 -69h-72q-84 0 -115 36 q-72 -47 -139 -47q-68 0 -119 40.5t-51 123.5zM211 911q0 -34 15.5 -52.5t39.5 -18.5q38 0 76 22v129q-67 0 -99 -18.5t-32 -61.5z" />
<glyph unicode="&#xab;" horiz-adv-x="1181" d="M102 426v68l463 413l86 -80l-338 -366l338 -369l-86 -78zM588 430v62l405 405l86 -76l-293 -360l293 -361l-86 -75z" />
<glyph unicode="&#xac;" horiz-adv-x="1185" d="M205 610v129h776v-346h-150v217h-626z" />
<glyph unicode="&#xad;" horiz-adv-x="819" d="M102 393v121l615 21v-162z" />
<glyph unicode="&#xae;" horiz-adv-x="1726" d="M205 659q0 188 86.5 343.5t237.5 245t335 89.5q183 0 334 -89.5t237.5 -245t86.5 -343.5q0 -141 -51 -265.5t-138.5 -214t-209.5 -141.5t-259 -52q-138 0 -260 52t-209.5 141.5t-138.5 214t-51 265.5zM342 662q0 -238 150.5 -398t375.5 -160q145 0 263.5 73t185.5 201 t67 284t-67 284.5t-185.5 201.5t-263.5 73q-225 0 -375.5 -160.5t-150.5 -398.5zM573 940l13 59h258q112 0 181 -50.5t69 -151.5q0 -46 -17 -81.5t-43 -55.5t-52 -30t-50 -12l139 -223l86 -35l-12 -59h-174l-191 328v-234l72 -35l-12 -59h-252l-10 59l67 37v508zM780 629 l23 49h26q121 0 121 121q0 59 -28 86.5t-91 27.5h-51v-284z" />
<glyph unicode="&#xaf;" horiz-adv-x="786" d="M100 1149v119h586v-119h-586z" />
<glyph unicode="&#xb0;" horiz-adv-x="628" d="M51 1073q0 114 68.5 192t193.5 78q126 0 195.5 -78t69.5 -192q0 -115 -69.5 -191.5t-195.5 -76.5q-125 0 -193.5 76.5t-68.5 191.5zM201 1073q0 -73 27 -118.5t85 -45.5q59 0 87 45.5t28 118.5q0 75 -28 120.5t-87 45.5q-58 0 -85 -45.5t-27 -120.5z" />
<glyph unicode="&#xb1;" horiz-adv-x="1247" d="M205 745v134h342v364h139v-364h344v-134h-344v-368h-139v368h-342zM246 70v133h776v-133h-776z" />
<glyph unicode="&#xb2;" horiz-adv-x="579" d="M66 838q162 133 204 176q70 74 70 141q0 49 -17 70.5t-59 21.5l-37 -4l-18 -115h-98l-21 158q11 6 30.5 15t73 24.5t99.5 15.5q102 0 151.5 -47.5t49.5 -124.5q0 -54 -34.5 -109t-65.5 -84t-102 -86q-9 -7 -13 -11l-25 -21h149l21 103h90l14 -209h-448z" />
<glyph unicode="&#xb3;" horiz-adv-x="495" d="M47 760l19 88q48 -14 116 -14q102 0 105 75q0 39 -19 62.5t-53 23.5h-63v86h65q30 0 44.5 25.5t14.5 60.5q-1 38 -18 59t-45 21l-31 -4l-18 -90h-88l-21 150q66 36 166 36q102 0 154.5 -48t52.5 -117q0 -87 -68 -132q35 -16 59 -50t23 -85q-2 -79 -64.5 -124.5 t-187.5 -45.5q-38 0 -74 5.5t-52 11.5z" />
<glyph unicode="&#xb4;" horiz-adv-x="649" d="M100 1141l359 231l88 -143l-393 -166z" />
<glyph unicode="&#xb5;" horiz-adv-x="1093" d="M-59 -440q231 170 231 422v804l-143 25v86l329 37v-655q3 -173 158 -173q52 0 107.5 23t83.5 47v608l-142 25v88l330 35v-809l106 -41l-24 -82h-111q-105 0 -149 70q-42 -33 -114 -61.5t-144 -28.5q-57 0 -101 12q0 -82 -21.5 -153t-54 -121.5t-83.5 -98t-95 -77.5 t-104 -64z" />
<glyph unicode="&#xb6;" horiz-adv-x="1097" d="M43 942q0 80 18 141t55.5 102t85.5 68.5t117 42.5t140.5 21t165.5 6h346l22 -82l-143 -51v-1055l147 -53l-26 -82h-260v1198h-90v-1198h-265l-26 82l147 53v438q-58 0 -113.5 9.5t-115 35t-104 65t-73 106.5t-28.5 153z" />
<glyph unicode="&#xb7;" horiz-adv-x="468" d="M109 459q0 29 50.5 79t73.5 50q25 0 75 -50t50 -79t-50 -79t-75 -50q-23 0 -73.5 50t-50.5 79z" />
<glyph unicode="&#xb8;" horiz-adv-x="651" d="M104 -485l25 82q80 -23 125 -23q57 0 87 26.5t30 71.5q0 86 -115 86q-46 0 -70 -8l-26 27l86 264l100 -14l-37 -185q96 6 163 -39t67 -133q0 -94 -77.5 -143t-193.5 -49q-81 0 -164 37z" />
<glyph unicode="&#xb9;" horiz-adv-x="505" d="M51 1247l180 96h107v-489l119 -29l-11 -71h-376l-11 71l138 31v352l-109 -37z" />
<glyph unicode="&#xba;" horiz-adv-x="622" d="M49 1040q0 129 66.5 215t193.5 86q129 0 194.5 -85.5t65.5 -215.5q0 -132 -65 -215.5t-195 -83.5q-127 0 -193.5 84t-66.5 215zM207 1040q0 -190 102 -190q55 0 80 52.5t25 137.5q0 86 -25 139.5t-80 53.5q-53 0 -77.5 -53.5t-24.5 -139.5z" />
<glyph unicode="&#xbb;" horiz-adv-x="1181" d="M102 100l293 361l-293 360l86 76l406 -405v-62l-406 -405zM530 92l338 369l-338 366l86 80l463 -413v-68l-463 -412z" />
<glyph unicode="&#xbf;" horiz-adv-x="866" d="M102 -92q0 110 39.5 197t104.5 138t142.5 77t160.5 24l18 170l127 6l27 -262l-31 -31q-38 9 -104 9q-125 0 -200 -92t-75 -230q0 -137 61 -227t167 -90q32 0 59 4t38 8l11 4l23 197h127l28 -250q-4 -3 -12.5 -8.5t-37 -20t-60.5 -25t-84 -19.5t-107 -9q-82 0 -155.5 24.5 t-134 74.5t-96.5 135t-36 196zM498 811q0 29 51 80t74 51q24 0 74.5 -50.5t50.5 -80.5q0 -29 -50 -79t-75 -50q-23 0 -74 50.5t-51 78.5z" />
<glyph unicode="&#xc0;" d="M20 84l164 51l408 1208h129l412 -1208l161 -51l-24 -84h-465l-25 84l144 49l-105 297h-385l-100 -295l164 -51l-25 -84h-428zM422 1630l88 144l358 -232l-51 -78zM473 547h307l-155 467z" />
<glyph unicode="&#xc1;" d="M20 84l164 51l408 1208h129l412 -1208l161 -51l-24 -84h-465l-25 84l144 49l-105 297h-385l-100 -295l164 -51l-25 -84h-428zM449 1542l358 232l88 -144l-395 -166zM473 547h307l-155 467z" />
<glyph unicode="&#xc2;" d="M20 84l164 51l408 1208h129l412 -1208l161 -51l-24 -84h-465l-25 84l144 49l-105 297h-385l-100 -295l164 -51l-25 -84h-428zM369 1522l235 252h101l237 -252l-65 -60l-222 156l-223 -156zM473 547h307l-155 467z" />
<glyph unicode="&#xc3;" d="M20 84l164 51l408 1208h129l412 -1208l161 -51l-24 -84h-465l-25 84l144 49l-105 297h-385l-100 -295l164 -51l-25 -84h-428zM340 1536q26 96 81 152t130 49q32 -4 51 -13l143 -71q48 -25 82.5 -1.5t69.5 79.5l72 -37q-24 -95 -80 -151.5t-131 -49.5q-36 2 -96 35l-99 49 q-21 11 -40 11.5t-33 -5.5t-29.5 -21t-24.5 -28t-24 -35zM473 547h307l-155 467z" />
<glyph unicode="&#xc4;" d="M20 84l164 51l408 1208h129l412 -1208l161 -51l-24 -84h-465l-25 84l144 49l-105 297h-385l-100 -295l164 -51l-25 -84h-428zM346 1614q0 29 50 79t75 50q23 0 74 -50t51 -79t-51 -79t-74 -50q-25 0 -75 50t-50 79zM473 547h307l-155 467zM723 1614q0 29 50 79t75 50 q23 0 74 -50t51 -79t-51 -79t-74 -50q-25 0 -75 50t-50 79z" />
<glyph unicode="&#xc5;" d="M20 84l164 51l408 1208h129l412 -1208l161 -51l-24 -84h-465l-25 84l144 49l-105 297h-385l-100 -295l164 -51l-25 -84h-428zM463 1616q0 40 77 119.5t113 79.5q37 0 114 -79t77 -120t-77 -119t-114 -78q-36 0 -113 78.5t-77 118.5zM473 547h307l-155 467zM584 1616 q0 -13 28.5 -44.5t40.5 -31.5q13 0 42.5 31t29.5 45t-29.5 44t-42.5 30q-12 0 -40.5 -30.5t-28.5 -43.5z" />
<glyph unicode="&#xc6;" horiz-adv-x="1753" d="M20 84l175 51l718 1055l-139 51l25 82h876l-24 -283h-125l-33 168h-377v-463h270l52 144l80 -27v-350l-80 -27l-52 144h-270v-514h391l33 166h125l27 -281h-891l-25 84l144 49v299h-369l-203 -297l156 -51l-37 -84h-432q-7 49 -15 84zM633 549h287v422z" />
<glyph unicode="&#xc7;" horiz-adv-x="1067" d="M80 662q0 174 41.5 305.5t118 213t179.5 122t232 40.5q88 0 168 -18.5t116 -36.5l36 -18l-35 -264h-137l-27 206q-78 13 -123 13q-57 0 -106 -15.5t-95.5 -55t-79 -101.5t-52 -161.5t-19.5 -229.5q0 -290 98 -427t271 -137q83 0 165 19t134 43l39 -101 q-55 -30 -151.5 -54.5t-201.5 -24.5q-25 0 -33 2l-28 -140q96 6 162.5 -39t66.5 -133q0 -94 -77 -143t-193 -49q-81 0 -164 37l25 82q80 -23 125 -23q67 0 67 57q49 17 43 68q-15 59 -108 59q-46 0 -70 -8l-27 27l70 217q-205 39 -317.5 206t-112.5 462z" />
<glyph unicode="&#xc8;" horiz-adv-x="1046" d="M68 82l147 53v1053l-145 53l24 82h877l-25 -283h-125l-33 168h-376v-463h270l51 144l80 -27v-350l-80 -27l-51 144h-270v-514h391l33 166h125l26 -281h-893zM291 1630l88 144l358 -232l-51 -78z" />
<glyph unicode="&#xc9;" horiz-adv-x="1046" d="M68 82l147 53v1053l-145 53l24 82h877l-25 -283h-125l-33 168h-376v-463h270l51 144l80 -27v-350l-80 -27l-51 144h-270v-514h391l33 166h125l26 -281h-893zM311 1542l359 232l88 -144l-393 -166z" />
<glyph unicode="&#xca;" horiz-adv-x="1046" d="M68 82l147 53v1053l-145 53l24 82h877l-25 -283h-125l-33 168h-376v-463h270l51 144l80 -27v-350l-80 -27l-51 144h-270v-514h391l33 166h125l26 -281h-893zM268 1522l236 252h102l236 -252l-64 -60l-223 156l-221 -156z" />
<glyph unicode="&#xcb;" horiz-adv-x="1046" d="M68 82l147 53v1053l-145 53l24 82h877l-25 -283h-125l-33 168h-376v-463h270l51 144l80 -27v-350l-80 -27l-51 144h-270v-514h391l33 166h125l26 -281h-893zM240 1645q0 29 50 79t75 50q23 0 73.5 -50t50.5 -79t-50.5 -79t-73.5 -50q-25 0 -75 50t-50 79zM616 1645 q0 29 50 79t75 50q23 0 74 -50t51 -79t-51 -79t-74 -50q-25 0 -75 50t-50 79z" />
<glyph unicode="&#xcc;" horiz-adv-x="626" d="M68 82l147 53v1053l-145 53l24 82h438l25 -82l-145 -53v-1053l147 -53l-27 -82h-438zM90 1630l88 144l359 -232l-52 -78z" />
<glyph unicode="&#xcd;" horiz-adv-x="626" d="M68 82l147 53v1053l-145 53l24 82h438l25 -82l-145 -53v-1053l147 -53l-27 -82h-438zM90 1542l359 232l88 -144l-394 -166z" />
<glyph unicode="&#xce;" horiz-adv-x="626" d="M27 1522l235 252h103l235 -252l-63 -60l-224 156l-221 -156zM68 82l147 53v1053l-145 53l24 82h438l25 -82l-145 -53v-1053l147 -53l-27 -82h-438z" />
<glyph unicode="&#xcf;" horiz-adv-x="626" d="M10 1645q0 29 51 79t74 50q25 0 75 -50t50 -79t-50 -79t-75 -50q-23 0 -74 50t-51 79zM68 82l147 53v1053l-145 53l24 82h438l25 -82l-145 -53v-1053l147 -53l-27 -82h-438zM367 1645q0 29 51 79t74 50q24 0 74 -50t50 -79t-50 -79t-74 -50q-23 0 -74 50t-51 79z" />
<glyph unicode="&#xd0;" horiz-adv-x="1259" d="M39 600v121l176 6v461l-145 53l24 82h434q177 0 301 -39.5t201.5 -122.5t112.5 -205t35 -294t-35 -294t-112.5 -205.5t-201.5 -123t-301 -39.5h-434l-26 82l147 53v459zM412 115q36 -6 116 -6q151 0 244 51t142 173.5t49 328.5q0 155 -27 262t-83.5 171t-135 91.5 t-189.5 27.5l-116 -4v-477l243 8v-161l-243 6v-471z" />
<glyph unicode="&#xd1;" horiz-adv-x="1333" d="M72 82l147 53v1053l-147 53l26 82h348l535 -948v813l-147 51l26 84h395l27 -84l-147 -51v-1208h-162l-600 1073v-918l149 -53l-26 -82h-398zM348 1536q26 96 81 152t130 49q32 -4 51 -13l144 -71q48 -25 82 -1.5t69 79.5l72 -37q-24 -95 -80 -151.5t-131 -49.5 q-36 2 -96 35l-99 49q-21 11 -40 11.5t-33 -5.5t-29.5 -21t-24.5 -28t-24 -35z" />
<glyph unicode="&#xd2;" horiz-adv-x="1243" d="M80 662q0 108 15 202t53 184t97.5 153.5t156 102.5t221.5 39q124 0 220 -39t155.5 -102.5t97.5 -153.5t52.5 -184t14.5 -202t-14.5 -202t-52.5 -184.5t-97.5 -154t-155.5 -102.5t-220 -39q-125 0 -221.5 39t-156 102.5t-97.5 154t-53 184.5t-15 202zM297 662 q0 -568 326 -568q75 0 132.5 31.5t93.5 84t58.5 127.5t31.5 153.5t9 171.5q0 117 -15 212.5t-50 178.5t-101 129.5t-159 46.5q-326 0 -326 -567zM387 1630l88 144l359 -232l-52 -78z" />
<glyph unicode="&#xd3;" horiz-adv-x="1243" d="M80 662q0 108 15 202t53 184t97.5 153.5t156 102.5t221.5 39q124 0 220 -39t155.5 -102.5t97.5 -153.5t52.5 -184t14.5 -202t-14.5 -202t-52.5 -184.5t-97.5 -154t-155.5 -102.5t-220 -39q-125 0 -221.5 39t-156 102.5t-97.5 154t-53 184.5t-15 202zM297 662 q0 -568 326 -568q75 0 132.5 31.5t93.5 84t58.5 127.5t31.5 153.5t9 171.5q0 117 -15 212.5t-50 178.5t-101 129.5t-159 46.5q-326 0 -326 -567zM418 1542l358 232l88 -144l-393 -166z" />
<glyph unicode="&#xd4;" horiz-adv-x="1243" d="M80 662q0 108 15 202t53 184t97.5 153.5t156 102.5t221.5 39q124 0 220 -39t155.5 -102.5t97.5 -153.5t52.5 -184t14.5 -202t-14.5 -202t-52.5 -184.5t-97.5 -154t-155.5 -102.5t-220 -39q-125 0 -221.5 39t-156 102.5t-97.5 154t-53 184.5t-15 202zM297 662 q0 -568 326 -568q75 0 132.5 31.5t93.5 84t58.5 127.5t31.5 153.5t9 171.5q0 117 -15 212.5t-50 178.5t-101 129.5t-159 46.5q-326 0 -326 -567zM334 1522l235 252h103l235 -252l-63 -60l-223 156l-222 -156z" />
<glyph unicode="&#xd5;" horiz-adv-x="1243" d="M80 662q0 108 15 202t53 184t97.5 153.5t156 102.5t221.5 39q124 0 220 -39t155.5 -102.5t97.5 -153.5t52.5 -184t14.5 -202t-14.5 -202t-52.5 -184.5t-97.5 -154t-155.5 -102.5t-220 -39q-125 0 -221.5 39t-156 102.5t-97.5 154t-53 184.5t-15 202zM297 662 q0 -568 326 -568q75 0 132.5 31.5t93.5 84t58.5 127.5t31.5 153.5t9 171.5q0 117 -15 212.5t-50 178.5t-101 129.5t-159 46.5q-326 0 -326 -567zM307 1536q18 70 54.5 121t89.5 73.5t118 -6.5l144 -71q21 -11 40 -11.5t33 5.5t29.5 21t24.5 28t24 35l72 -37 q-26 -96 -81 -152t-130 -49q-40 2 -96 35l-99 49q-48 25 -82 1.5t-69 -79.5z" />
<glyph unicode="&#xd6;" horiz-adv-x="1243" d="M80 662q0 108 15 202t53 184t97.5 153.5t156 102.5t221.5 39q124 0 220 -39t155.5 -102.5t97.5 -153.5t52.5 -184t14.5 -202t-14.5 -202t-52.5 -184.5t-97.5 -154t-155.5 -102.5t-220 -39q-125 0 -221.5 39t-156 102.5t-97.5 154t-53 184.5t-15 202zM297 662 q0 -568 326 -568q75 0 132.5 31.5t93.5 84t58.5 127.5t31.5 153.5t9 171.5q0 117 -15 212.5t-50 178.5t-101 129.5t-159 46.5q-326 0 -326 -567zM307 1626q0 29 51 79t74 50q25 0 75 -50t50 -79t-50 -79t-75 -50q-23 0 -74 50t-51 79zM684 1626q0 29 51 79t74 50 q25 0 75 -50t50 -79t-50 -79t-75 -50q-23 0 -74 50t-51 79z" />
<glyph unicode="&#xd7;" horiz-adv-x="1130" d="M205 410l264 262l-250 250l98 94l248 -248l264 262l97 -94l-264 -262l251 -250l-98 -94l-250 248l-264 -263z" />
<glyph unicode="&#xd8;" horiz-adv-x="1243" d="M80 662q0 108 15 202t53 184t97.5 153.5t156 102.5t221.5 39q147 0 262 -59l119 219l120 -61l-131 -240q170 -175 170 -540q0 -108 -14.5 -202t-52.5 -184.5t-97.5 -154t-155.5 -102.5t-220 -39q-156 0 -267 57l-118 -219l-119 61l129 240q-168 173 -168 543zM297 662 q0 -232 53 -359l463 850q-76 76 -190 76q-326 0 -326 -567zM428 168q77 -74 195 -74q75 0 132.5 31.5t93.5 84t58.5 127.5t31.5 153.5t9 171.5q0 224 -55 358z" />
<glyph unicode="&#xd9;" d="M51 1241l25 82h438l25 -82l-146 -53v-574q0 -105 6.5 -182.5t24 -143.5t46.5 -107t74 -64t107 -23q179 0 248.5 116.5t69.5 403.5v574l-146 53l25 82h391l25 -82l-146 -53v-574q0 -125 -12 -218.5t-43.5 -174.5t-83.5 -132t-134 -80t-194 -29q-84 0 -150 15t-113.5 41 t-81.5 69.5t-55 92.5t-33 118t-16.5 138t-4.5 160v574zM414 1630l86 144l360 -232l-53 -78z" />
<glyph unicode="&#xda;" d="M51 1241l25 82h438l25 -82l-146 -53v-574q0 -105 6.5 -182.5t24 -143.5t46.5 -107t74 -64t107 -23q179 0 248.5 116.5t69.5 403.5v574l-146 53l25 82h391l25 -82l-146 -53v-574q0 -125 -12 -218.5t-43.5 -174.5t-83.5 -132t-134 -80t-194 -29q-84 0 -150 15t-113.5 41 t-81.5 69.5t-55 92.5t-33 118t-16.5 138t-4.5 160v574zM475 1542l359 232l88 -144l-396 -166z" />
<glyph unicode="&#xdb;" d="M51 1241l25 82h438l25 -82l-146 -53v-574q0 -105 6.5 -182.5t24 -143.5t46.5 -107t74 -64t107 -23q179 0 248.5 116.5t69.5 403.5v574l-146 53l25 82h391l25 -82l-146 -53v-574q0 -125 -12 -218.5t-43.5 -174.5t-83.5 -132t-134 -80t-194 -29q-84 0 -150 15t-113.5 41 t-81.5 69.5t-55 92.5t-33 118t-16.5 138t-4.5 160v574zM387 1522l236 252h100l238 -252l-66 -60l-221 156l-223 -156z" />
<glyph unicode="&#xdc;" d="M51 1241l25 82h438l25 -82l-146 -53v-574q0 -105 6.5 -182.5t24 -143.5t46.5 -107t74 -64t107 -23q179 0 248.5 116.5t69.5 403.5v574l-146 53l25 82h391l25 -82l-146 -53v-574q0 -125 -12 -218.5t-43.5 -174.5t-83.5 -132t-134 -80t-194 -29q-84 0 -150 15t-113.5 41 t-81.5 69.5t-55 92.5t-33 118t-16.5 138t-4.5 160v574zM354 1626q0 29 50 79t75 50q23 0 74 -50t51 -79t-51 -79t-74 -50q-25 0 -75 50t-50 79zM741 1626q0 29 50 79t75 50q23 0 74 -50t51 -79t-51 -79t-74 -50q-25 0 -75 50t-50 79z" />
<glyph unicode="&#xdd;" horiz-adv-x="1206" d="M20 1241l25 82h449l24 -82l-156 -53l250 -469l279 467l-166 55l27 82h409l25 -82l-146 -53l-356 -590v-463l147 -53l-26 -82h-438l-27 82l147 53v432l-335 627zM399 1542l359 232l88 -144l-393 -166z" />
<glyph unicode="&#xde;" horiz-adv-x="1064" d="M68 82l147 53v1053l-145 53l24 82h438l25 -82l-145 -53v-137h96q263 0 389.5 -88.5t126.5 -290.5q0 -178 -118.5 -274.5t-323.5 -96.5q-76 0 -146 8l4 105q58 -9 133 -6q131 3 190.5 68.5t59.5 195.5q0 140 -69.5 205t-247.5 65q-23 0 -58 -2t-36 -2v-803l147 -53 l-27 -82h-438z" />
<glyph unicode="&#xdf;" horiz-adv-x="1118" d="M20 80l154 55q0 145 1 435t1 436q1 203 109.5 307t289.5 104q183 0 283 -79.5t100 -194.5q0 -54 -22.5 -102t-57 -80.5t-74 -65.5t-74 -58t-57 -55t-22.5 -59q0 -48 31.5 -77.5t120.5 -72.5q51 -26 86.5 -48t71.5 -52.5t57.5 -63t35 -76.5t13.5 -95q0 -112 -81.5 -185 t-235.5 -73q-69 0 -140.5 20t-107.5 40l-37 19l20 211h123l27 -164q50 -20 117 -20q63 0 97 36.5t34 96.5q0 67 -32 108t-126 87q-136 64 -191 125.5t-55 165.5q0 47 21.5 90t53 73.5t69 64.5t69 63t53 69.5t21.5 83.5q0 75 -50 120.5t-136 45.5q-90 0 -155 -76.5 t-65 -241.5v-997h-315z" />
<glyph unicode="&#xe0;" horiz-adv-x="907" d="M61 238q0 61 21 107t53 73.5t80.5 45t94 24.5t102.5 10l131 4v178q0 79 -41 112t-101 33q-29 0 -59 -4.5t-46 -8.5l-15 -5l-25 -154h-121l-22 207l17 8.5t45.5 20t70 25t87.5 19.5t101 9q134 0 214.5 -58t80.5 -188v-573l107 -41l-25 -82h-98q-106 0 -146 61 q-56 -30 -130.5 -55.5t-131.5 -25.5q-37 0 -77.5 15t-78.5 44t-63 81t-25 118zM184 1229l86 143l361 -231l-53 -78zM250 252q0 -72 39 -107.5t100 -35.5q66 0 154 34v260l-115 -6q-178 -9 -178 -145z" />
<glyph unicode="&#xe1;" horiz-adv-x="907" d="M61 238q0 61 21 107t53 73.5t80.5 45t94 24.5t102.5 10l131 4v178q0 79 -41 112t-101 33q-29 0 -59 -4.5t-46 -8.5l-15 -5l-25 -154h-121l-22 207l17 8.5t45.5 20t70 25t87.5 19.5t101 9q134 0 214.5 -58t80.5 -188v-573l107 -41l-25 -82h-98q-106 0 -146 61 q-56 -30 -130.5 -55.5t-131.5 -25.5q-37 0 -77.5 15t-78.5 44t-63 81t-25 118zM236 1141l358 231l88 -143l-395 -166zM250 252q0 -72 39 -107.5t100 -35.5q66 0 154 34v260l-115 -6q-178 -9 -178 -145z" />
<glyph unicode="&#xe2;" horiz-adv-x="907" d="M61 238q0 61 21 107t53 73.5t80.5 45t94 24.5t102.5 10l131 4v178q0 79 -41 112t-101 33q-29 0 -59 -4.5t-46 -8.5l-15 -5l-25 -154h-121l-22 207l17 8.5t45.5 20t70 25t87.5 19.5t101 9q134 0 214.5 -58t80.5 -188v-573l107 -41l-25 -82h-98q-106 0 -146 61 q-56 -30 -130.5 -55.5t-131.5 -25.5q-37 0 -77.5 15t-78.5 44t-63 81t-25 118zM141 1120l236 252h100l238 -252l-66 -59l-221 156l-223 -156zM250 252q0 -72 39 -107.5t100 -35.5q66 0 154 34v260l-115 -6q-178 -9 -178 -145z" />
<glyph unicode="&#xe3;" horiz-adv-x="907" d="M61 238q0 61 21 107t53 73.5t80.5 45t94 24.5t102.5 10l131 4v178q0 79 -41 112t-101 33q-29 0 -59 -4.5t-46 -8.5l-15 -5l-25 -154h-121l-22 207l17 8.5t45.5 20t70 25t87.5 19.5t101 9q134 0 214.5 -58t80.5 -188v-573l107 -41l-25 -82h-98q-106 0 -146 61 q-56 -30 -130.5 -55.5t-131.5 -25.5q-37 0 -77.5 15t-78.5 44t-63 81t-25 118zM115 1135q24 95 80 151t131 49q33 -4 51 -12l143 -72q21 -11 40 -11.5t33 5.5t29.5 21t25.5 28t24 35l71 -37q-26 -96 -81 -151.5t-130 -48.5q-42 3 -96 34l-98 50q-48 25 -82.5 1.5 t-69.5 -79.5zM250 252q0 -72 39 -107.5t100 -35.5q66 0 154 34v260l-115 -6q-178 -9 -178 -145z" />
<glyph unicode="&#xe4;" horiz-adv-x="907" d="M61 238q0 61 21 107t53 73.5t80.5 45t94 24.5t102.5 10l131 4v178q0 79 -41 112t-101 33q-29 0 -59 -4.5t-46 -8.5l-15 -5l-25 -154h-121l-22 207l17 8.5t45.5 20t70 25t87.5 19.5t101 9q134 0 214.5 -58t80.5 -188v-573l107 -41l-25 -82h-98q-106 0 -146 61 q-56 -30 -130.5 -55.5t-131.5 -25.5q-37 0 -77.5 15t-78.5 44t-63 81t-25 118zM117 1229q0 29 51 80t74 51q24 0 74.5 -50.5t50.5 -80.5q0 -29 -50 -79t-75 -50q-23 0 -74 50.5t-51 78.5zM250 252q0 -72 39 -107.5t100 -35.5q66 0 154 34v260l-115 -6q-178 -9 -178 -145z M473 1229q0 29 51 80t74 51q24 0 74.5 -50.5t50.5 -80.5q0 -29 -50 -79t-75 -50q-23 0 -74 50.5t-51 78.5z" />
<glyph unicode="&#xe5;" horiz-adv-x="907" d="M61 238q0 61 21 107t53 73.5t80.5 45t94 24.5t102.5 10l131 4v178q0 79 -41 112t-101 33q-29 0 -59 -4.5t-46 -8.5l-15 -5l-25 -154h-121l-22 207l17 8.5t45.5 20t70 25t87.5 19.5t101 9q134 0 214.5 -58t80.5 -188v-573l107 -41l-25 -82h-98q-106 0 -146 61 q-56 -30 -130.5 -55.5t-131.5 -25.5q-37 0 -77.5 15t-78.5 44t-63 81t-25 118zM233 1219q0 40 77.5 119t113.5 79q37 0 113.5 -78.5t76.5 -119.5t-76.5 -119t-113.5 -78q-36 0 -113.5 79t-77.5 118zM250 252q0 -72 39 -107.5t100 -35.5q66 0 154 34v260l-115 -6 q-178 -9 -178 -145zM354 1219q0 -13 29 -43.5t41 -30.5q13 0 42.5 30t29.5 44t-29.5 44.5t-42.5 30.5q-12 0 -41 -31t-29 -44z" />
<glyph unicode="&#xe6;" horiz-adv-x="1341" d="M61 238q0 61 21 107.5t54.5 75t82 47t95 26t102.5 10.5l137 8v168q0 78 -43 111.5t-104 33.5q-28 0 -59 -4.5t-49 -8.5l-17 -5l-25 -154h-121l-22 207l17 8.5t46.5 20t72 25t89 19.5t102.5 9q164 0 238 -111q101 108 246 111q336 0 336 -397q0 -31 -5 -88l-16 -19 l-500 -18q0 -328 228 -328q118 0 231 41l33 -94q-134 -59 -275 -59q-208 0 -303 100q-111 -57 -184.5 -78.5t-159.5 -21.5q-37 0 -78 15t-80 44t-64.5 81t-25.5 118zM250 252q0 -72 41 -107.5t104 -35.5q70 0 158 34v267l-121 -9q-182 -12 -182 -149zM741 520l316 19 q0 51 -1.5 84.5t-9 76t-21.5 67.5t-40.5 42.5t-64.5 17.5q-166 0 -179 -307z" />
<glyph unicode="&#xe7;" horiz-adv-x="866" d="M82 457q0 80 11.5 148.5t40 132t73 107.5t115 70.5t161.5 26.5q89 0 166 -25.5t123 -56.5l-22 -209h-121l-25 156q-61 18 -121 18q-111 0 -156.5 -93.5t-45.5 -274.5q0 -175 51.5 -270t171.5 -95q115 0 241 41l31 -94q-128 -56 -274 -59q-5 -7 -14.5 -17.5t-12.5 -13.5 q-15 -64 -22 -107q96 6 162.5 -39t66.5 -133q0 -94 -77 -143t-193 -49q-90 0 -164 37l24 82q81 -23 125 -23q68 0 68 57q49 17 43 68q-15 59 -109 59q-45 0 -69 -8l-27 27l68 215q-289 64 -289 465z" />
<glyph unicode="&#xe8;" horiz-adv-x="905" d="M82 457q0 79 11 146.5t38.5 131t71 108t113 71.5t159.5 28q337 0 344 -383q2 -43 -2 -104l-16 -19h-520q3 -344 237 -344q122 0 242 41l33 -94q-138 -59 -285 -59q-100 0 -176 26t-123 68.5t-76 105.5t-40 129.5t-11 147.5zM240 1229l88 143l358 -231l-51 -78zM287 539 h331q0 5 1.5 26.5t1.5 34.5q-8 227 -150 227q-88 0 -131 -74.5t-53 -213.5z" />
<glyph unicode="&#xe9;" horiz-adv-x="905" d="M82 457q0 79 11 146.5t38.5 131t71 108t113 71.5t159.5 28q337 0 344 -383q2 -43 -2 -104l-16 -19h-520q3 -344 237 -344q122 0 242 41l33 -94q-138 -59 -285 -59q-100 0 -176 26t-123 68.5t-76 105.5t-40 129.5t-11 147.5zM246 1141l358 231l88 -143l-395 -166zM287 539 h331q0 5 1.5 26.5t1.5 34.5q-8 227 -150 227q-88 0 -131 -74.5t-53 -213.5z" />
<glyph unicode="&#xea;" horiz-adv-x="905" d="M82 457q0 79 11 146.5t38.5 131t71 108t113 71.5t159.5 28q337 0 344 -383q2 -43 -2 -104l-16 -19h-520q3 -344 237 -344q122 0 242 41l33 -94q-138 -59 -285 -59q-100 0 -176 26t-123 68.5t-76 105.5t-40 129.5t-11 147.5zM186 1120l236 252h102l236 -252l-64 -59 l-223 156l-221 -156zM287 539h331q0 5 1.5 26.5t1.5 34.5q-8 227 -150 227q-88 0 -131 -74.5t-53 -213.5z" />
<glyph unicode="&#xeb;" horiz-adv-x="905" d="M82 457q0 79 11 146.5t38.5 131t71 108t113 71.5t159.5 28q337 0 344 -383q2 -43 -2 -104l-16 -19h-520q3 -344 237 -344q122 0 242 41l33 -94q-138 -59 -285 -59q-100 0 -176 26t-123 68.5t-76 105.5t-40 129.5t-11 147.5zM168 1219q0 29 51 80t74 51q24 0 74.5 -50.5 t50.5 -80.5q0 -29 -50 -79t-75 -50q-23 0 -74 50.5t-51 78.5zM287 539h331q0 5 1.5 26.5t1.5 34.5q-8 227 -150 227q-88 0 -131 -74.5t-53 -213.5zM524 1219q0 29 51 80t74 51q24 0 74.5 -50.5t50.5 -80.5q0 -29 -50 -79t-75 -50q-23 0 -74 50.5t-51 78.5z" />
<glyph unicode="&#xec;" horiz-adv-x="653" d="M88 80l154 55v653l-142 25v88l330 35v-801l154 -55l-27 -80h-442zM98 1229l88 143l359 -231l-51 -78z" />
<glyph unicode="&#xed;" horiz-adv-x="653" d="M88 80l154 55v653l-142 25v88l330 35v-801l154 -55l-27 -80h-442zM109 1141l358 231l88 -143l-393 -166z" />
<glyph unicode="&#xee;" horiz-adv-x="653" d="M45 1120l236 252h102l235 -252l-63 -59l-223 156l-221 -156zM88 80l154 55v653l-142 25v88l330 35v-801l154 -55l-27 -80h-442z" />
<glyph unicode="&#xef;" horiz-adv-x="653" d="M29 1219q0 29 51 80t74 51q24 0 74.5 -50.5t50.5 -80.5q0 -29 -50 -79t-75 -50q-23 0 -74 50.5t-51 78.5zM88 80l154 55v653l-142 25v88l330 35v-801l154 -55l-27 -80h-442zM385 1219q0 29 51 80t74 51q24 0 74.5 -50.5t50.5 -80.5q0 -29 -50 -79t-75 -50q-23 0 -74 50.5 t-51 78.5z" />
<glyph unicode="&#xf0;" horiz-adv-x="987" d="M82 461q0 481 412 481q94 0 168 -45q-55 155 -148 244l-108 -107l-82 66l94 127q-97 65 -209 94l31 96q146 -22 264 -88l112 144l119 -99l-117 -123q148 -129 217.5 -334.5t69.5 -455.5q0 -102 -19.5 -183.5t-64.5 -151t-128 -108t-199 -38.5q-94 0 -166.5 26t-118 69.5 t-75 106.5t-41 131t-11.5 148zM281 461q0 -184 48 -277.5t165 -93.5q211 0 211 371q0 183 -47.5 276.5t-163.5 93.5q-113 0 -163 -95.5t-50 -274.5z" />
<glyph unicode="&#xf1;" horiz-adv-x="1144" d="M68 80l153 55v653l-143 25v88l319 35v-86q43 34 115.5 63t144.5 29q287 0 287 -272v-535l154 -55l-25 -80h-432l-25 80l140 55v496q0 90 -36 137t-120 47q-52 0 -107.5 -23t-84.5 -49v-608l139 -55l-25 -80h-430zM258 1135q26 96 81 151.5t130 48.5q35 -4 51 -12l144 -72 q48 -25 82 -1.5t69 79.5l72 -37q-24 -95 -80 -151t-131 -49q-38 2 -96 34l-99 50q-21 11 -40 11.5t-33 -5.5t-29.5 -21t-24.5 -28t-24 -35z" />
<glyph unicode="&#xf2;" horiz-adv-x="987" d="M82 461q0 481 412 481q93 0 165 -26t118 -70t75 -106.5t41 -130.5t12 -148q0 -102 -19.5 -183.5t-64.5 -151t-128 -108t-199 -38.5q-94 0 -166.5 26t-118 69.5t-75 106.5t-41 131t-11.5 148zM260 1229l88 143l359 -231l-52 -78zM281 461q0 -184 48 -277.5t165 -93.5 q211 0 211 371q0 183 -47.5 276.5t-163.5 93.5q-113 0 -163 -95.5t-50 -274.5z" />
<glyph unicode="&#xf3;" horiz-adv-x="987" d="M82 461q0 481 412 481q93 0 165 -26t118 -70t75 -106.5t41 -130.5t12 -148q0 -102 -19.5 -183.5t-64.5 -151t-128 -108t-199 -38.5q-94 0 -166.5 26t-118 69.5t-75 106.5t-41 131t-11.5 148zM270 1141l359 231l88 -143l-393 -166zM281 461q0 -184 48 -277.5t165 -93.5 q211 0 211 371q0 183 -47.5 276.5t-163.5 93.5q-113 0 -163 -95.5t-50 -274.5z" />
<glyph unicode="&#xf4;" horiz-adv-x="987" d="M82 461q0 481 412 481q93 0 165 -26t118 -70t75 -106.5t41 -130.5t12 -148q0 -102 -19.5 -183.5t-64.5 -151t-128 -108t-199 -38.5q-94 0 -166.5 26t-118 69.5t-75 106.5t-41 131t-11.5 148zM207 1120l235 252h103l235 -252l-63 -59l-223 156l-222 -156zM281 461 q0 -184 48 -277.5t165 -93.5q211 0 211 371q0 183 -47.5 276.5t-163.5 93.5q-113 0 -163 -95.5t-50 -274.5z" />
<glyph unicode="&#xf5;" horiz-adv-x="987" d="M82 461q0 481 412 481q93 0 165 -26t118 -70t75 -106.5t41 -130.5t12 -148q0 -102 -19.5 -183.5t-64.5 -151t-128 -108t-199 -38.5q-94 0 -166.5 26t-118 69.5t-75 106.5t-41 131t-11.5 148zM180 1135q26 96 81 151.5t130 48.5q35 -4 51 -12l144 -72q48 -25 82 -1.5 t69 79.5l72 -37q-24 -95 -80 -151t-131 -49q-38 2 -96 34l-99 50q-21 11 -40 11.5t-33 -5.5t-29.5 -21t-24.5 -28t-24 -35zM281 461q0 -184 48 -277.5t165 -93.5q211 0 211 371q0 183 -47.5 276.5t-163.5 93.5q-113 0 -163 -95.5t-50 -274.5z" />
<glyph unicode="&#xf6;" horiz-adv-x="987" d="M82 461q0 481 412 481q93 0 165 -26t118 -70t75 -106.5t41 -130.5t12 -148q0 -102 -19.5 -183.5t-64.5 -151t-128 -108t-199 -38.5q-94 0 -166.5 26t-118 69.5t-75 106.5t-41 131t-11.5 148zM190 1229q0 29 51 80t74 51q24 0 74.5 -50.5t50.5 -80.5q0 -29 -50 -79 t-75 -50q-23 0 -74 50.5t-51 78.5zM281 461q0 -184 48 -277.5t165 -93.5q211 0 211 371q0 183 -47.5 276.5t-163.5 93.5q-113 0 -163 -95.5t-50 -274.5zM547 1229q0 29 51 80t74 51q24 0 74.5 -50.5t50.5 -80.5q0 -29 -50 -79t-75 -50q-23 0 -74 50.5t-51 78.5z" />
<glyph unicode="&#xf7;" horiz-adv-x="1144" d="M205 608v131h735v-131h-735zM446 381q0 29 51 80t74 51q24 0 74.5 -50.5t50.5 -80.5q0 -29 -50 -79t-75 -50q-23 0 -74 50.5t-51 78.5zM446 969q0 29 51 80t74 51q24 0 74.5 -50.5t50.5 -80.5q0 -29 -50 -79t-75 -50q-23 0 -74 50.5t-51 78.5z" />
<glyph unicode="&#xf8;" horiz-adv-x="987" d="M82 -96l113 186q-113 121 -113 371q0 481 412 481q116 0 198 -45l107 176l106 -57l-114 -189q114 -122 114 -366q0 -102 -19.5 -183.5t-64.5 -151t-128 -108t-199 -38.5q-122 0 -201 43l-105 -175zM281 461q0 -130 20 -211l322 532q-49 49 -129 49q-113 0 -163 -95.5 t-50 -274.5zM365 137q47 -47 129 -47q211 0 211 371q0 121 -21 207z" />
<glyph unicode="&#xf9;" horiz-adv-x="1093" d="M29 811v86l329 37v-643q0 -185 158 -185q52 0 107.5 23t83.5 47v608l-142 25v88l330 35v-809l106 -41l-24 -82h-111q-105 0 -149 70q-42 -33 -114 -61.5t-144 -28.5q-287 0 -287 270v536zM295 1229l88 143l358 -231l-51 -78z" />
<glyph unicode="&#xfa;" horiz-adv-x="1093" d="M29 811v86l329 37v-643q0 -185 158 -185q52 0 107.5 23t83.5 47v608l-142 25v88l330 35v-809l106 -41l-24 -82h-111q-105 0 -149 70q-42 -33 -114 -61.5t-144 -28.5q-287 0 -287 270v536zM326 1141l358 231l88 -143l-393 -166z" />
<glyph unicode="&#xfb;" horiz-adv-x="1093" d="M29 811v86l329 37v-643q0 -185 158 -185q52 0 107.5 23t83.5 47v608l-142 25v88l330 35v-809l106 -41l-24 -82h-111q-105 0 -149 70q-42 -33 -114 -61.5t-144 -28.5q-287 0 -287 270v536zM240 1120l235 252h103l235 -252l-63 -59l-224 156l-221 -156z" />
<glyph unicode="&#xfc;" horiz-adv-x="1093" d="M29 811v86l329 37v-643q0 -185 158 -185q52 0 107.5 23t83.5 47v608l-142 25v88l330 35v-809l106 -41l-24 -82h-111q-105 0 -149 70q-42 -33 -114 -61.5t-144 -28.5q-287 0 -287 270v536zM199 1229q0 30 50.5 80.5t74.5 50.5q23 0 74 -51t51 -80t-51 -79t-74 -50 q-24 0 -74.5 50.5t-50.5 78.5zM575 1229q0 30 50.5 80.5t74.5 50.5q23 0 74 -51t51 -80t-51 -79t-74 -50q-24 0 -74.5 50.5t-50.5 78.5z" />
<glyph unicode="&#xfd;" horiz-adv-x="1007" d="M0 844l25 78h405l25 -78l-131 -56l190 -577l213 586l-137 47l24 78h349l24 -78l-123 -51l-389 -1076q-86 -239 -295 -239q-46 0 -90 12t-65 24l-21 11l37 244h111l28 -170q17 -6 43 0q70 10 119 151l72 203l-283 840zM297 1141l358 231l88 -143l-393 -166z" />
<glyph unicode="&#xfe;" horiz-adv-x="985" d="M2 -426l152 53v1643l-142 24v86l330 37v-506q115 31 156 31q203 0 304 -127t101 -358q0 -230 -108.5 -353.5t-290.5 -123.5q-74 0 -146 16l11 110q43 -16 125 -16q101 0 154.5 93.5t53.5 273.5q0 362 -229 362q-83 0 -131 -24v-1168l152 -53l-25 -76h-442z" />
<glyph unicode="&#xff;" horiz-adv-x="1007" d="M0 844l25 78h405l25 -78l-131 -56l190 -577l213 586l-137 47l24 78h349l24 -78l-123 -51l-389 -1076q-86 -239 -295 -239q-46 0 -90 12t-65 24l-21 11l37 244h111l28 -170q17 -6 43 0q70 10 119 151l72 203l-283 840zM213 1214q0 29 50 79t75 50q23 0 74 -50t51 -79 t-51 -79t-74 -50q-25 0 -75 50t-50 79zM569 1214q0 29 50 79t75 50q23 0 74 -50t51 -79t-51 -79t-74 -50q-25 0 -75 50t-50 79z" />
<glyph unicode="&#x152;" horiz-adv-x="1734" d="M80 662q0 108 15 202t53 184t97.5 153.5t156 102.5t221.5 39q83 0 168 -20h868l-25 -283h-125l-32 168h-488q153 -153 170 -463h211l51 144l80 -27v-350l-80 -27l-51 144h-209q-7 -352 -172 -514h502l33 166h125l26 -281h-887q-82 -20 -165 -20q-125 0 -221.5 39 t-156 102.5t-97.5 154t-53 184.5t-15 202zM297 662q0 -568 326 -568q75 0 132.5 31.5t93.5 84t58.5 127.5t31.5 153.5t9 171.5q0 117 -15 212.5t-50 178.5t-101 129.5t-159 46.5q-326 0 -326 -567z" />
<glyph unicode="&#x153;" horiz-adv-x="1513" d="M82 461q0 481 405 481q207 0 304 -149q42 68 116 108t176 41q337 0 344 -383q2 -43 -2 -104l-16 -19h-520q3 -344 237 -344q122 0 242 41l33 -94q-138 -59 -285 -59q-227 0 -325 149q-43 -70 -120.5 -109.5t-183.5 -39.5q-92 0 -163 26t-116 70t-74 106.5t-40.5 130.5 t-11.5 148zM281 461q0 -184 46.5 -277.5t159.5 -93.5q207 0 207 371q0 183 -46.5 276.5t-160.5 93.5q-206 0 -206 -370zM895 539h332q0 5 1 26.5t1 34.5q-8 227 -150 227q-88 0 -131 -74.5t-53 -213.5z" />
<glyph unicode="&#x178;" horiz-adv-x="1206" d="M20 1241l25 82h449l24 -82l-156 -53l250 -469l279 467l-166 55l27 82h409l25 -82l-146 -53l-356 -590v-463l147 -53l-26 -82h-438l-27 82l147 53v432l-335 627zM299 1626q0 29 51 79t74 50q25 0 75 -50t50 -79t-50 -79t-75 -50q-23 0 -74 50t-51 79zM686 1626q0 29 51 79 t74 50q25 0 75 -50t50 -79t-50 -79t-75 -50q-23 0 -74 50t-51 79z" />
<glyph unicode="&#x2c6;" horiz-adv-x="778" d="M102 1120l236 252h100l238 -252l-66 -59l-221 156l-223 -156z" />
<glyph unicode="&#x2dc;" horiz-adv-x="860" d="M117 1135q26 96 81 151.5t130 48.5q35 -4 51 -12l143 -72q48 -25 82.5 -1.5t69.5 79.5l71 -37q-24 -95 -79.5 -151t-130.5 -49q-39 3 -97 34l-98 50q-21 11 -40 11.5t-33 -5.5t-29.5 -21t-25.5 -28t-24 -35z" />
<glyph unicode="&#x2000;" horiz-adv-x="907" />
<glyph unicode="&#x2001;" horiz-adv-x="1815" />
<glyph unicode="&#x2002;" horiz-adv-x="907" />
<glyph unicode="&#x2003;" horiz-adv-x="1815" />
<glyph unicode="&#x2004;" horiz-adv-x="605" />
<glyph unicode="&#x2005;" horiz-adv-x="453" />
<glyph unicode="&#x2006;" horiz-adv-x="302" />
<glyph unicode="&#x2007;" horiz-adv-x="302" />
<glyph unicode="&#x2008;" horiz-adv-x="226" />
<glyph unicode="&#x2009;" horiz-adv-x="363" />
<glyph unicode="&#x200a;" horiz-adv-x="100" />
<glyph unicode="&#x2010;" horiz-adv-x="819" d="M102 393v121l615 21v-162z" />
<glyph unicode="&#x2011;" horiz-adv-x="819" d="M102 393v121l615 21v-162z" />
<glyph unicode="&#x2012;" horiz-adv-x="819" d="M102 393v121l615 21v-162z" />
<glyph unicode="&#x2013;" horiz-adv-x="1245" d="M102 393v121l1041 18v-159z" />
<glyph unicode="&#x2014;" horiz-adv-x="1814" d="M102 393v121l1610 21v-162z" />
<glyph unicode="&#x2018;" horiz-adv-x="423" d="M102 1171q0 41 15 85t59 101t113 107l51 -51q-77 -83 -74 -145q1 -9 22.5 -31t42.5 -46t21 -40q0 -28 -51 -79.5t-74 -51.5q-25 0 -75 53t-50 98z" />
<glyph unicode="&#x2019;" horiz-adv-x="423" d="M72 1323q0 28 51 79.5t74 51.5q25 0 75 -53t50 -98q0 -41 -15 -85t-59 -101t-113 -107l-51 51q77 83 74 145q-1 9 -22.5 31t-42.5 46t-21 40z" />
<glyph unicode="&#x201a;" horiz-adv-x="423" d="M72 109q0 28 51 78.5t74 50.5q25 0 75 -53.5t50 -98.5q0 -66 -43 -143t-144 -148l-51 49q77 86 74 146q-1 9 -43.5 53.5t-42.5 65.5z" />
<glyph unicode="&#x201c;" horiz-adv-x="722" d="M102 1159q0 41 15 85t59 101t113 107l51 -51q-77 -83 -74 -146q1 -9 22.5 -30.5t42.5 -45.5t21 -40q0 -28 -51 -79.5t-74 -51.5q-25 0 -75 53t-50 98zM401 1159q0 41 15 85t59 101t113 107l51 -51q-77 -83 -74 -146q1 -9 22.5 -30.5t42.5 -45.5t21 -40q0 -28 -51 -79.5 t-74 -51.5q-25 0 -75 53t-50 98z" />
<glyph unicode="&#x201d;" horiz-adv-x="722" d="M72 1327q0 28 51 78.5t74 50.5q25 0 75 -53t50 -98q0 -66 -43 -143t-144 -148l-51 49q77 86 74 145q-1 9 -43.5 53.5t-42.5 65.5zM371 1327q0 28 51 78.5t74 50.5q25 0 75 -53t50 -98q0 -66 -43 -143t-144 -148l-51 49q77 86 74 145q-1 9 -43.5 53.5t-42.5 65.5z" />
<glyph unicode="&#x201e;" horiz-adv-x="714" d="M61 109q0 28 51 78.5t74 50.5q25 0 75 -53.5t50 -98.5q0 -66 -43 -143t-143 -148l-51 49q76 85 73 146q-1 9 -43.5 53.5t-42.5 65.5zM360 109q0 28 51 78.5t74 50.5q26 0 76.5 -53.5t50.5 -98.5q0 -66 -43 -143t-143 -148l-53 49q76 85 73 146q-1 9 -43.5 53.5 t-42.5 65.5z" />
<glyph unicode="&#x2022;" horiz-adv-x="712" d="M117 659q0 38 48 99.5t105.5 107t85.5 45.5t86 -45.5t106 -107t48 -99.5t-48 -98t-106 -104.5t-86 -44.5t-85.5 45t-105.5 105t-48 97z" />
<glyph unicode="&#x2026;" horiz-adv-x="1357" d="M109 109q0 29 50.5 79t73.5 50q25 0 75 -50t50 -79t-50 -79t-75 -50q-23 0 -73.5 50t-50.5 79zM553 109q0 29 51 79t74 50q25 0 75 -50t50 -79t-50 -79t-75 -50q-23 0 -74 50t-51 79zM997 109q0 29 51 79t74 50q25 0 75 -50t50 -79t-50 -79t-75 -50q-23 0 -74 50t-51 79z " />
<glyph unicode="&#x202f;" horiz-adv-x="363" />
<glyph unicode="&#x2039;" horiz-adv-x="722" d="M102 428v64l430 411l89 -78l-310 -364l310 -365l-89 -78z" />
<glyph unicode="&#x203a;" horiz-adv-x="745" d="M125 96l309 365l-309 364l88 78l430 -411v-64l-430 -410z" />
<glyph unicode="&#x205f;" horiz-adv-x="453" />
<glyph unicode="&#x20ac;" horiz-adv-x="1206" d="M61 481v103q23 0 70 1t70 1q-2 25 -2 76v55l-133 4v102q23 0 71.5 1t71.5 1q36 259 183.5 388.5t377.5 129.5q88 0 168 -18.5t116 -36.5l36 -18l-35 -264h-137l-27 206q-78 13 -123 13q-49 0 -92 -11.5t-85 -40t-74 -72.5t-57 -113.5t-36 -158.5l379 7v-129l-387 6v-123 l383 6v-127l-371 6q29 -200 121.5 -288.5t228.5 -88.5q62 0 127 13l27 204h137l35 -264q-14 -8 -41 -20t-113 -31.5t-176 -19.5q-229 0 -375.5 124t-185.5 375q-26 0 -77 1t-75 1z" />
<glyph unicode="&#x2122;" horiz-adv-x="1144" d="M51 1411h436l-10 -168h-69l-17 94h-65v-338l63 -20l-10 -57h-221l-11 57l66 18v340h-63l-15 -94h-67zM479 979l68 18l33 342l-64 19l10 53h176l84 -229l82 229h170l11 -55l-58 -17l43 -342l60 -18l-7 -57h-215l-10 57l56 18l-29 230l-80 -234h-68l-90 246l-20 -242 l59 -18l-10 -57h-191z" />
<glyph unicode="&#xe000;" horiz-adv-x="921" d="M0 0v922h922v-922h-922z" />
</font>
</defs>
</svg>
